<mxfile host="app.diagrams.net" agent="Mozilla/5.0 (Macintosh; Intel Mac OS X 10_15_7) AppleWebKit/537.36 (KHTML, like Gecko) Chrome/140.0.0.0 Safari/537.36" version="28.2.5">
  <diagram name="ページ1" id="t5yf0qtcVaYfoAFsTmio">
    <mxGraphModel dx="1426" dy="912" grid="1" gridSize="10" guides="1" tooltips="1" connect="1" arrows="1" fold="1" page="1" pageScale="1" pageWidth="827" pageHeight="1169" math="0" shadow="0">
      <root>
        <mxCell id="0" />
        <mxCell id="1" parent="0" />
        <mxCell id="XKDgAC0m7lBMJ3iOIWy0-1" value="" style="shape=image;verticalLabelPosition=bottom;labelBackgroundColor=default;verticalAlign=top;aspect=fixed;imageAspect=1;image=data:image/png,iVBORw0KGgoAAAANSUhEUgAABLAAAALaCAYAAAAhnqrJAAAQAElEQVR4AeydBWBcVdqGzySpAy0upbRAcacFFtjFWVhYbHHYxXV/3F2Kuy+LLe4ssLi7Q3GnuLsU2lJJ/veZ5CZ3bmaSmWSSjLzt981xe+4kmfvNd86tCf5nAiZgAiZgAiZgAiZgAiZgAiZgAiZQ6QS8PhMoawI2YJX15fPkTcAETMAETMAETMAETMAEuo+ARzIBEzABE+gpAjZg9RR5j2sCJmACJmACJmAC1UjAazYBEzABEzABEzCBDhCwAasD0NzEBEzABEzABHqSgMc2ARMwARMwARMwARMwgWojYANWtV1xr9cETAACVhMwARMwARMwARMwARMwARMwgTIiYANWGV2s0pqqZ2MCJmACJmACJmACJmACJmACJmACJlD5BEpjhTZglcZ18CxMwARMwARMwARMwARMwARMwAQqlYDXZQIm0GkCNmB1GqE7MAETMAETMAETMAETMAET6GoC7t8ETMAETKC6CdiAVd3X36s3ARMwARMwAROoHgJeqQmYgAmYgAmYgAmULQEbsMr20nniJmACJmAC3U/AI5qACZiACZiACZiACZiACfQEARuweoK6xzSBaibgtZuACZiACZiACZiACZiACZiACZhAgQRswCoQWClU9xxMwARMwARMwARMwARMwARMwARMwAQqn4BX2EKgXAxYV2nKDT2gz2jMahfeI88JQk/wZ0wNbTEBEzABEzABEzABEzABEzCBDhFwIxMwgQohgHGiQpbiZZiACZiACZiACZiACZiACRSfgHs0ARMwARMwgZ4nYANWz18Dz8AETMAETMAETKDSCXh9JmACJmACJmACJmACnSJgA1an8LmxCZiACZhAdxHwOCZgAiZgAiZgAiZgAiZgAtVLwAas6r32Xnn1EfCKTcAETMAETMAETMAETMAETMAETKAsCdiAVdBlc2UTMAETMAETMAETMAETMAETMAETMIHKJ+AVlhoBG7BK7Yp4PiZgAiZgAiZgAiZgAiZgAiZQCQS8BhMwARMoIgEbsIoI012ZgAmYgAmYgAmYgAmYQDEJuC8TMAETMAETMIFGAjZgNXLwqwmYgAmYgAmYQGUS8KpMwARMwARMwARMwAQqgIANWBVwEb0EEzABE+haAu7dBEzABEzABEzABEzABEzABHqWgA1YPcvfo1cLAa/TBEzABEzABEzABEzABEzABEzABEygwwTKxoBV4Aonqf5XRdDv1YclBDgUg+cPhmkCJmACJmACJmACJmACJmACJmACbRFwmQlkI1CpBqzXtdh5i6Abq49ql3oB2FBaDJ5/Vz8NUosJmIAJmIAJmIAJmIAJmEDXEXDPJmACJlBxBCrVgIXRZayuVmd1nPqwhACHzrKkPf2YpwmYgAmYgAmYgAmUAQFP0QRMwARMwARMoJQIVKoBq5QY5zOXGVRppBRPp10VHiq9QHqX9DHp3dJLpaOku0k3ly4nnVPqaygIFhMwARMwgRIk4CmZgAmYgAmYgAmYgAmYQJEI2PhRJJAd6GYqtVlF+qKU86WeU3ij9F/SY6U7Sf8i/ZN0Tek20sOl50ivkT4hHSP9QLq9dGapxQRMoMIIeDkmYAImYAImYAImYAImYAImYAIh2IDVve+COg2HMeo+hR9J75cuIa2VpppUQV5Cfa7fUNW+SIox61mF/5QOlFoaCfjVBEzABEzABEzABEzABEzABEzABEygzAlgAGlnCS4uAoEB6mML6SvSO6WrS6eXFos/xiw8upZWn+dK35DuKZ1FajEBEzABEzABEzABEzABEzABEzCBPAi4igmULoFiGVBKd4U9OzP48vS+lzWNq6ULSslT0GWCMWuwej9T+pp0MykeXgosJmACJmACJmACJmACJmACXUrAnZuACZiACXQJga42pnTJpMukU9j+R3PFiDRcYU8Ih8NfpYHvlS4gtZiACZiACZiACZhAyRPwBE3ABEzABEzABEwgSQAjSzLP6c4TWEldYLjaWmFvaU8K3leragKct/UPhaQVWEzABEzABCqYgJdmAiZgAiZgAiZgAiZgAhVFwAas4l5OeK6rLh+Wsl1QQckI2wov1Wx2lfaVWkzABNok4EITMAETMAETMAETMAETMAETMIFSIYDBpVTmUgnz2FuLuFFaqoL31dmaHAe9d71nmAaymIAJmIAJmIAJmIAJmIAJmIAJmIAJVDiBblieDVjFgYxh6GB1dYK01A1DHPK+veZ5ubTU56opWkzABEzABEzABEzABEzABEyg8gl4hSZgAm0TsAGrbT75lGIQ2kYVj5X2kpaL8HTCSzTZPlKLCZiACZiACZiACZiACZQ7Ac/fBEzABEygggnYgNX5i/t3dfEvaTmyZO6Hau4WEzABEzABEzABEwghGIIJmIAJmIAJmIAJlCaBcjS6lBLJGTSZE6XlvBVvf80fQ5YCiwmYgAmYQKcJuAMTMAETMAETMAETMAETMIGiE7ABq+NIB6jpS9LZpOUsPJGQs7umK+dFeO6VRcCrMQETMAETMAETMAETMAETMAETMIE4ARuw4jQKi2+k6oOlpSiFzml2NXhWWk5neGm6FhMwARMwARMwARMwARMwARMwAROoagJVs3gbsDp2qUeo2X+kHOCuoCJkLq1iVanFBEzABEzABEzABEzABEzABKqIgJdqAiZQDgTKxYB1pGAuXYBupbpdKbuo83Jhp6nmJaznAtWcVtpV8qI6LuQ6UldNLCZgAiZgAiZgAiZgAiVNwJMzARMwARMwgS4mgNGii4coSvfvq5fnC9A3VberZFl1vIO0EmUOLWobaVfJWHX8grSQa6nqFhMwARMwAROofAJeoQmYgAmYgAmYgAmYQG4C5WLAyr2C7i1hy+DB3Ttkt4+2XbeP6AFNwARMoDgE3IsJmIAJmIAJmIAJmIAJmECFErABq7ALO6Oq/1FaybKwFscB9Qos1UfAKzYBEzABEzABEzABEzABEzABEzCB0iNgA1Zh12QvVW/7jChVqADZR2uok1pMwARMwARMwARMwARMwARMwARMwASyEXBetxKwASt/3Bh0ts6/elnXXESzn01qMQETMAETMAETMAETMAETMIEuI+COTcAETCBfAjZg5UsqhEVVtVqMOlNprX+SWkzABEzABEzABEzABEqbgGdnAiZgAiZgAlVBwAas/C/zyvlXrYiaG2oVHFqvwGICJmACJmAClUzAazMBEzABEzABEzABEyh1AjZg5X+FVsm/akXUXFqr6Cu1mIAJmED7BFzDBEzABEzABEzABEzABEzABLqQgA1Y+cGFU7VsH4yIsN6Zo4TDrifgEUzABEzABEzABEzABEzABEzABEzABLITwDCTvaT8crtyxr3U+XzSahK2D/6hmhbstZqACZiACZiACZiACZiACZiACZQFAU+yCgnYgJXfRZ9W1fpJq02GVtuCvV4TMAETMAETMAETMAETqA4CXqUJmIAJlBcBG7Dyu16D8qtWcbVmrLgVeUEmYAImYAImYAImUCwC7scETMAETMAETKDbCNiAlR/qRfOrVnG1pq+4FXlBJmACJmACJUXAkzEBEzABEzABEzABEzCBfAjYgJUPpRAWy69axdXqX3Er8oJMoPIIeEUmYAImYAImYAImYAImYAImUPEEbMDK7xLPml+1iqvVp+JWlHVBzjQBEzABEzABEzABEzABEzABEzABEyhlAsUxYJXyCoszN55CWJye3IsJmIAJmEAuAnOrYIccurXyLSZgAiZQKQSGaCG5ft9tpzJ/RhcEiwmYQIkS8LRMoIcI+I9jD4H3sCZgAiZgAq0ILK2ci5r0NIUnxfRYxS0mYAImUCkE5tdC4r/jiP9befwOvEBhrdRSwQS8NBMwARMwgcIJ2IBVODO3MAETMAET6HoC62kItm9HineWstqUASrloRurKFxI2k/ancKTWzHCraZBl5SmpMWQwepkjSadSmElyUAtBlZcM27ou3vr+tQaf6T0T9LZpJ0R3m8LqIM/S1eQziTtboHnEhq0p3hq6KLKdOqN9ayqcBEpP+MK0lLuLw9qAdHvtyh8TXkWEzABEzABEzCBHARswMoBxtkmYAImYAI9SmCyRp+YUCVbCV4Kmyv3AenP0lek3Bi+rnCslHzKFS2q8JRW+sVb4h31PE76jfRZ6f3S0dLfpI9LD5FiWFBQkGCsOlwtuKm9RyG6lMIiSY91g6FnV43+lPQHKay4Zm8p/qP0dulfpMWWOnW4ovQ46fPSb6W8Z4g/pvjnUq7jvQq3kDJPBVmF990fVXK09FHp91Ku95sKaU/eF4q/Lb1Uuoy0q6SvOt5Z+oQUni8qjHiyvjuU/qu0mLKuOmO9HdWj1D6bYPTFWHWhCrkecGU9/By/qrxfpLxvdlHYW1rOUq/JJ3/HNSjPYgImYAImYAImkIOADVg5wCSyuZFKZFVF0h+kyuYyb1wb5l5qSO3wpdapGz7iWeloaYN1RNcyGN6l/U/uNXzE5dIdwrwjZggrrcTNd9m8I7tponjrYEC6RuNx04tRAQPET0rz+4s0+ZRfrzzqK+i07KUeuLmmX86wmVdpxvpaITfcjK1owACCkQODyRvKwOiloF3h3MVVVOtT6SjptNJIJkSRMg3xoLlJc/+XdFkpn0N+VYhhAm4ww9hyl/LYUkW5op0WPNgw7jyinjAojlQ4nfQ7KYZHjAmKpq8ZHlRXK3GVlOuqIEPw7ntfORgnj1CItxV98b7jPTBJeQht51NkGyl18czDQKNk0aS/erpOytaz5RXCK86T9/zayscoeKZC5qSg04J3GWN3VMdnmQFzZeswxqodVY5HHO8JjHAYNrlGrI/3zfkqf0EKdwUWEzABEzABEzCBaiDAB4FqWGdn1/hlZzso0/bRh/Aum7477jyBvvOMnKtung9uq0vVv50K9bepR7YwsSVHUUsZE6jVndtW0ovq6sNbdZ+OPbKM19JVU+dcrG1jnWOMwNOFbVwYmYSvuXQTxQ6WFkMwWHCzHfXFlxxseWRcFKNaVBaFbAPM5xriqXWfGt0tHSRNCmMl88opfYUmu5Y0EjyWYIaeG2U2hfso/Ie0GIIhie2CUV9w5KBsxkW3VAHeMAqaZX3FjpEmhcO3h8YyeZ+doTT9sA2S7YgYXJTVLBglMaLO3JxTnMjF6ob3noK0vKvXBaXMBWOQos2ym2KsWUGnJV9jbLaB8NrC4BYv4/PoJcrg51ZBs2B0i9aDsbi5QBG2FGIMLbZRUF1bTMAETMAETMAEuoJAZ/vkA0Nn+6iG9nxzWg3rTK6Rb5OTeU6XEIG64SNXmtzQ8HRoCGvNMOvg/hv9c+9w9BU3h1FX3RrOvudJaxkzOOvuJ8J+Z18SNt3jgDDXQovOEFLhsF7DR3zca54RGGhK6F3YY1P5g0beQxoXDERsHfxKmdwMf6YwLgcqsbC0mDJFnWFkuUfhj1K2pTEvDDNKZshOSuFhpKCV4GWFtxXbzlZSaa7tUYyn4rIULrEiWQAAEABJREFUtgWy9Sw+ebyhuE6sm+148b87eB3iqYXBKN6mGHGMjFeqIzzm8MzCi+lmpePCZyS2OjKPeH4yzhY3jKN4XzF/tpGek6ykNNcYA5eiRRE8xTZK9HSo0njuwfMExXlPKkgL3lcYhIalU5176YwBiwPK8aqKz4AvXjAyx41RXBOMmKwFtlyvy+ONFF9ZireWAosJmIAJVAUBL9IEqpoAH86qGkCei/8gz3qVVo0P4pW2popZT928S+pb/ob7+k89zUzr7fB/4YhLbwgrrLtRmHammcOgGThLumKWWpULSaVSYY555w/Lr7Ve2Ou088M62+wc+vQfMEdDQ7iz9/Cl2MJUlVyaFs3fLraXxY08/L5iW1FTlYCXx3lRoinkrCDOzmlKFiXAWHZnoqfflebmW0GG4LXFYc0ZmUpw844RhPOu+itNe1TRVoK3T6vMMshgXVdpnnFjEFv38BpVdlowJmGkSCeaXmi3ZlO8WAHbTPdUZ/XSuGB4iqeJ4wXX3i9UjELJ68X2UtrHFeMMnmDxvI7GeS9zthaeXVEfGE//GyUUYpj7j8K4wDNpRIyX5xuPG7DwfOQcM87g4gu/pFIW7zf5s8HP81mqEF+LkuFaXmKK1xzXLekdznllsWqOmkB7BFxuAiZgAiZQrgT40FCuc+/OefMhsDvHK5WxuDErlbl4HkkC9Sm2GfXaedQpYdWN/Pk9iafS0qtvtlXY+qD0ucfT14f658ICI7IZQipt2bnWg+GKbUXxcg54Thp3kt4a1OecIMLO6ENqjKEAxSjDmUPKyhCMMxkZTYnkzTfZI/QSecVwmDheOjsoL5sk15itTinmDdekppHGBY7J9dwYr9AUZytfU7TDAQftcw4UigdQtuuQNEJFg2EMjeKEeIxx7dEblMHWQAUZgjEpI6MpkWuMpuK8g6GqGTciKRl47yR5Jo1A1OOMMcKOawjR2Jxdxs8iRlh9qRLYXpvUp2MDcR2SBi1+l9E+Vi0dfTf9mvmC59Z7mVkBb0x/nk1AcdIETMAETMAEKpGA/+Dnd1X5wMS3+/nVrpxaHFJbOaupoJXUDh+BZ0nfbQ8ZFeZcoNg7oioIVIUtZaGllwsr/21TVtW/blLYmkiV6lJa9wzSuHwcTzTFMcLz+7spmQ7m0SueMAo6LJzVtJFaowcpTBoNlBUW4yWheKowp5DI5zwgPHbYQrWiyj6SZrt5V3bZCgdvx72vWMjrvCSUw/GTZ1HRNlGt4CRPBsTzCGVbWrYOOIw/mf+aMsZK48K8ufYoP5DZjGGczxRvQ5ztnzxpkXhnFaMNHn3xfrJtW4Vn8uB/fn7i7ToSx5OLdpzBhbEu6c1GGTqLXthiqyCwfg60T9blQHjKk5rry8PkzzQc2HabbO+0CZiACZiACZhAhRGwASu/C8qH0zH5Va2YWnzQfK5iVlNhC0mlwqqzzDEsLLoc97oVtrj8llO1tVZaf9PQp28/1r87L1Wqa2VZNzfRWbJD8ssHnoKXzVARiviPv61JowtGLgxf/D1JDkUZh4jHvY+SN/nJNuWWXi7LhDmrKZmNhxIaz+fsqDniGV0QZ6sgTyqMd82T8jZQBtdHQUGSbb1skSzWZwm8nZITwliVzOP9xjri+ax1WDyjA3G2dbLlb7922vK+5sEEVMNzKul9RT7bIQmTSv/JPNJJjzjy8FoktJqACZiACZiACVQwAT5kV/DyirY0PryyZaBoHfZ8R+3OgPXGD39tt4ErdA+BXvOM2CM0hPnmH7F0qK1LOjR0zxw8Ss8R4IyzBZfC+SLM1nu+JRftuZn06MirZxk96ZURVcm2vS+bd1RUvxjhOupkcWlc8OLB0yqeV03xbFvEvssCAO8rjC7JIrYgJvOKlWZL6l3qjCf3KWgWzrbqqCfyZs29tEQOUBQjloJOS9JASofZ+ubLKJhSHtfOGnExsHImFZ+P4v3G45wdxll1UR5PDMx2bTmgPaoTD6eLJ2Jxxo0l09FcXlzpQr+YgAmYgAmYgAlUBgEbsPK/jg/mX7UianIIa/Jb8IpYWLkvor4hpA8BtvdVuV/Jjs9/pb9tnm5cPyW1VTpSfS+Dsyw520061ZLbp8jLdWNMWTGUbYXxfvCA4dyhXDfq8bqVGseYkVwbxpVsedkMFMnzs5LtCknzND6MmGxt4+D/D9U4bhDiqXfrKY8n+ikoWHjaZHIL4dXqJduZbMrukGQz2GTjBuNs+ZFXVIcGz7MRT3CENdXxhDyNSBbNtq2WarlcjGejMKH+PJsA4qQJmEAXEHCXJmACPU7Af/DzvwQP5F+17GvyjSrflBKW/WIqbQE1qZDePjV8kaSDR6Wt1OvJRWCqgY33nqnQMG2uOhWcz/lV0QHS8WXm+n3FDXy8HvGu4sbcMF4swyBNyvgHKs6XAgqqUuDS+KbNXH62a0YemlkzhKmTGZ1IYwB9We2vkPJUyrhBhK2o5HG9ss1DTdoUtubxRD3WHFV8WJF/Sosl9M02wHz6Yw14SyXrFtMgmOybNFt1tyfSpDzsACNWUzIj4KmQXIuMTCXYJh1/4upw5V0mzeZ5Ws3GYSEpH/FMTcAETMAETKAzBGzAyp8eB+oW6+yK/EftmZpsdXm+Z4b2qCZgAu0RmHG22dNVGhpCV58LlB6nxF7w6Mh2Ng6GomxTzZafLS9b20Lz8OrhAQsYGGiL8YAzgs4hUcKKQW9/za9Yupf6ihgoGrhe2fY7ZzOswAylXVyz1Y2XFxKnfzz22M6W7BdPsdvUGQeip71dFc9XeG/+R5XjZzrhXbSh8nhan4JOCx3k4pntfc1aUdrFNbnueFkx4nivxX8/XdtOp3uo/DtpXNjmyIH55LOVkzO0cj284st4Q8dNwARMwARMwAQqk4ANWPlfVz7slfpNSP6rabvmMyr2t5mCYDEBEyg5AmyHwviQnBg39ck80gnDCVkh21lB6YJOvODV8z+1j8bDmLCb0hi0FJS0cPbTyZphsfQM9cWT4RSkheuFsSidiL1g8Ikl01EMX2g6EXvJdcZZrEreUbYILqLauLEurxCvOb64UbRZeHres0oVcjj46aq/sjQS/pbCttjnSebiGb33ovEJYZnts95PFHaR4h3G0waj7l9SpL2HwmDg20L1MPgpyBA8LudqysEzLtvPL2M0VXFgAiZgAiZgAiZQqQSyfaip1LUWY124uPNNYDH6KtU+MNSdqslx86XAYgIJAk6aQM8T+CHLFHpnySMrm2GLbWKUFUsZg61NkccJxhrOwfqXBiCuoKSFM7pgUizFCMHfkviiMVDE08SzGVz4XIJSHtdiGlz4+4ZXNV5WGJku0kBzS/H2UdAsbHvk+ADC5swsEYxEOyg/vk3wIaXXlRZz3uquWbIZ9ArhWWyjWvPEFOGQPgyAigZY760IhmcFOQUvsftVyllkZyu8Q/qalGuEIZEzxOC5gvKoq6BZ8L7iHLPmDEdMwARMwARMwAQqk0C2D4mVudLirIoPjGwt6FRvJd74Sc2PD5EKLCbQSGDsd9+EvReboU3dZ7EZwxErLxBO33y1cNl+24eX7/tf+PmbL8Ok37Odod3Yb/y1fsqUcOJ6y+Yc45ErsAXEW2TGf/jik3DgMkMy2r/28N2ZlZRqqK8PZ2zx54x68bXdez5OKKqYQ3798ftw8HJzZrR/4c4bc9R2dhcRyHazOlWOsTAuxYu4+R0dz+hkHC8iDuderakfDDd7Ks4XAQrKQvBe4VDwYumsWjVeQgqaBa+n5kRTBE+dpmhzAE+0OUMRrtk7CrtSMN4dlWUAPOva20q4pNqdK40MSMz1b0rTp4Iukc+z9JrN0MbnvGw8MQxl6aLTWXhLxc8A+1Q9viDNVz5SRX5+eJInZ11xBhaPXf278m+XYmicQWFcMHTF046bgAmYgAmYQEkR8GSKR4APNsXrrfJ74kP0MRW+TM7vqPAlenmFEmgIDeH3335tUyf8NjZ89+mHYczzT4Tnbr06XPjPTcORqy4UTlx/2fDag3fmMWRDmDhhXM4x7jr3+DBpAo4i2btqqNccx/2W0b5+cvYv/dsa54FLztQ8co8TGvIfJ/tMnVsEAni3JLvh7KJkHumkYQuPmGw3/9TtiG6nRptIEYxX/6fIhVJLJoFsRsMhmVXSKYxASaMjHjZdaQxKD6yXp6XZBINctnzyOFj8PkWiLZMcDr+U0nzhpaDLJNuWvMbD8TKHxHiV9E7kiIBvMqsVLfUP9RS/ftco/Zu0WHJ8lo5uyZLnLBMwgcoi4NWYgAmYQJpAuRiw+GabMyry1Q3Sq+uaF74dHNU1Xfd4r09pBl3pSsJNQL7XMKqnKVnKlcDE8ePCl++9Fc7fecNw/k4bhl++476pY6v59YfvwkOXd/1xQr/99EO499+ndGySbtVdBO7KMlD8SXJRcUoRPEIUNMvbzbHOR1ZUF7wpMRIoGjgnEeMV26ZIR4pRhi3otyljK2k1Cn9fkuueJ5mhdD9p/BB0JQPnHhF2RnmKIZ476IAcHfELii+qksXR9c2Wf74yp5Mib+iFbW7J87SUHdbUC9f/ZoW8HxR0SrIxwTsp2SnGq/6JzFyGukS1gpOMs0esFVt9T46lOxvlHKyNE51g2LwukedkVgLONAETMAETMIHyJ1AuBiwOA71AuPNVnn6j6l0mGHnacNHosnG7smNuuHhaVjG/KU3OlycK/VuZ+V5H6qm6pRQJ9OrTNwycadZmnXr6GUO/qQeGVE32XyuvPXRnOOsffwkTfs12FE5+K3zu1mtCQ0O2+8v82udb64Xbrw/1U7J7b+Xbh+t1KYEX1Ts3rgqaZWHFMFgpaBa2ICU9sLLd+Dc3KCCCEeRc1Y+8TTgr6UilMZQMVBgpnmGcCYRnCtui2tuOpqZpSa4lnamX7D9gKihx4ayp5A8VBsDkOnmSY8Q0WtLtUaQT4T1qy3sGvUTxbDKtMpPzUVb4npeQ+cJ1OFFZfMGmIC2765VfcNG1J6RPDHXHqozrv57CKdLOyrPq4HdpXDiQPjl/DqqPvMOiuvm4xEZ1Cwn3UuU5pZH8V5FieaJhiDtc/cXXh8fjzsrDq1KBxQRMwARMwARMoNIJ8AGs0tfYFevjoNe/qGM+PCmoCMGjIduWhIpYnBdRfAILrbRmOPK+V1r0/tfC0Q+9EQ669emw/CbbZTVkffnem+HUTVcOUyZPymtCAwZFjg2N1b8a81Z47UHO9m1MF+u1/zSZR/F898kH4aV7/1es7t1PE4EiBpyvlDz3Bg/PFRNjJF3pMBzgMRWvxllFbyoD5XfgNIq3J9xEX6xKGM0UpIXDp8coltR3lBffmo2BQ1ntCp5I2SphIMuWH+Xh3cM5hqznFWVm88pRdrfLexoxeXA4HjUYrFTULMkvoDB63dtc2hjZRwHrQx9WPB/hmkX1eFJgTZSIhRwQHks2R7N57WGoYbtocyVFbpAmrz/r5jqMUBnCg2CSVni2/nEOGevB0Ee99vRjVS1KlaMAABAASURBVPhaGpdhSnAel4JmGdUca4zAM2kQ5GmZjI0+2lit4FeMZNsnWnHweiKrQ0muHVsRt060xmiMV1siO8ysjOelrIefaYxfSuYll6sW7dD4z62yA/28qghlKH8kmJuymoWDFylDj2jOdcQETMAETMAETKAoBLJ9gCtKx1XQCd9+ctZFJSyVG6xNtRBu7hRYSpRASU2rtq5X6DvVNM2KEWiqaWcIQxZcLGxx3HnhYBmy5lh4iVZz/uKdN8LoO29qlZ8tY6l1Nwv0G5XhfXXtEXuE38f9GmUVJVz8z+uF/gNxlGjsjnGuO2L3MH5svraGxnZ+7TYCfHmAESPpgXKaZhAZfvA8SRq0uKH8RHXiMpsSCzTpggoxACloU6jPVrF4JTyy2J6WVN5Y8T7z8UipUcf8TlbQStZulZOZkVISb1fmuIjiA6WlIDzNAWMhBpRoPsz1sCihEA+luAGGuhzejdFHxc0yh2KsD+WaKVmQzKTaGBri3nmzKI8nRyrIkKOUShqKeI+xFZBQxc2SvPak2cIar5fsi8ZsmWQtKIYuuJDflvLe30wV4t8G0A4vQGWnZQ29jpRGwt/47ZRInn/FWWSMjXaEp7oMeBli1COOYkB6gkgnlGuCUex99bGhlPUpSAvGQt4vrCmdEXvB0DS/0qyHP0Lxnz9ltymcaUY7lJ+jeGW2kvIzRRmajVU0LuUYFOPtHTcBEzABEzABE+gkAT4kd7KLcmpe1LnyYRx3/beK2mv3d4YlgA+IlbYlsvtJesRmAqlUKswuQ9auF96S3mLYXNAUeeDiM0I+W/R69e0bVt6WXTlNDRX88u3X4YMX83VSUIM8pK5Pn7DGLvtn1Pztpx/CO0/l69yR0dSJ7iGAVwsXLe7NgvGDLYKcQ4UXEjeyzAaDF94aZ5DopHITy7lH/TvYTy6rKMY23ux4jfGlwj9z9M+aearb8SrnrEC8iRRtFnhERg1u+NnC2FzYwxEMGmy7ZI7RVDBM4PXDtr6rokyFGCYuVZiftVsVC5Q/qz5fQvGeuEhxvKyWUhgJ75nrlDhamhQMJ2xPTebnk04aj2jD9WI84hhb8CAi3p5yltXpqhTnydz4GYAn81dxWugfj6hr06nivmCk5TGxvN/ombHwpOMaki5UMdKy1ZMnV+LpGDeMcb4Y12QLdYonpoJWwrjMgYJCeFLfagImYAImUFEEvJhKI2ADVueuKEasXN+Sd67n7mu9t4Z6UmoxgaITGDjTLGG7M68MNTXc87d0/9lbr4a3n3qkJSNHbOL48WHk2huFmlruQRorNTTUhzvPOa4xUaTXSRMmhBFrbRh698u0Sdx7AbaEIg3ibrqCAMYQDBHxs/tGaKAdpXi/KEjLMXrlEO1iGOq5Wc+11UzDtCu5PLA4/PpsteYswuEK2xLWeLAqXCA9RBoXjAjRDww38dkMJvH63R3fVwNyfRQ0CzzxDIpv38Q4t4tqYIxQ0Gm5Sj0kjYdsr+Tcph1UNlAaCQYhvJvw/ory4mHc0BXPzyee7XpwvbhutMeYlc1Li7JsyvXnnFDmHJX/URF4xvdGs91xW+Xj1aagqALHuJfZ9+odDywFHZLImzFiQiesj+2/GPcwYLX1vuAPTvT5lvUWwpOxrCZgAnECjpuACZhACRGI/sCX0JTKbiqcw/JXzRp3fgVlJWyXSJ7xUFYL8GRLn8AcCy0e+k0TvzdsnPO7z7RvwJr0+4Qw49DhYc4ll2ls1PT6weinw5uP42DTlNHJYNLECWHaWYeE4Utx39fS2cevvhBefaD4Z261jOBYJwlwU4tnFQYfPE/YIsiDIrjRHaW++YKBm2u2geW64WUr2Zaqi3KDj1eqkjnlF5Xg/UH9jijeU+qileBJ05H+OBw83hk3/RgAyONLluS5U+T3pGJUwzuI7VUbaSIYIzDE4cHD9rf1lceZUPxtoq6SreQy5USsOMRbyXaF/jE+cm4ZTyrGQMb7grHx8sEqjtfbn9QThh8e1pLrPYMxLBq/0PBM9Z8ULOcYXcj/Ui+8rxXkJTC6QjXhyRbNaE38DMCTPLYI8nNBXVVtJVcrJ1oHXJQsSD5UbYyNkWI8+0l5HRV+6cKJJxgyH64J2z45qwsjdHt82JKJUZDxMRhixCKej8IsYkE83obPeWyVjMr3VGFyLhiio3I8NVUlBL+YgAmYgAmYgAkUh4ANWMXhyBN9tlJXyXM6lFWycpJmxofDXB9oVWwxgc4T6DNgqrDkX9gllNnXF+++kZmRJVU/eXKoqa0Nfz/u/FDbK9oN1ljx0au4H2uMd/a1fvKUwNMTNzni9FDXm7OIW3p8+AruA1vSjgW8TzCSlBKKrzQZbnrxtNpVcW50ufnknJwPlG5LOF+HA6JRjBa5tiVFfVDONizqd0RzeYPgCduR/th+F82NcDm9cO6SgoCV+PNQmv8+1rR4Sh0GFwwfeAhhdORg7OScVTVD2PoXsbo1o6TtBH/v+MVDG7YNYjxjbDzCOIsLgwPbHDFSttUT21ej8QsNOVQ82TeW815Nmbc0hYUGnO1G22hN/AzAk7zP2umMg8mjdVC/neqtivG4whAYKT+LrSoVkDFOdfEOP1Ah14lrUsjnK3hixFLzwCHveLURz0cxiEcsHkw04P3DtsyonIffJKqE25URlXfGC03dWEzABEzABEzABJIEbMBKEul4mhslzpIq5Ju+jo/WuZZ8sMX7KvnNYed6dWsTyEFgsT/z5PjMQs6yysxpnaqvn5LOnHmueUPyQPg3HrknjP2OL9fTVTr1Eo0z07DhYe4RPEyupbv3nnks5DPXlhalGCvqnJ5Sbxhb8OooNUOWplbVMp1Wzw001wWjBV5phdy8q7mlmwngbXZq05icqYnhpinpoAMEeCgDW4tpGp0l58860LCagAmYgAmYQAUQsAGruBeRG4eV1GV7396qSo8Irvcba2S+JVVgyZuAK3aKwLDFRrZqP3E8X7K3ys7IaJjSaMAic5n12ZVBrFHrVXbpPtuEhobO35s0NBnK6HmZDRLjqOyCXTcODfV8+U6NELAOhOr+h5WPm21+53X0MOvqJtg1q2fbFU/WwyONpyS2vGm7Zjz32nkCl6sLthDiQcVxBJ3/haYOq1jYegrPT8UAA655CoTFBEzABEzABCqFQLcZsCoFWDvr4IMSngmcx4LLe8vddzsNu6GYm01uOtmyUQ5eYt2AxEN0F4F+Uw8MNTWZv24mTmjfgIWRKprjHzb8Rxg082xRMh1++PKz4aevcDQJIVUjs1JKGgr/Vz+l5T5/xNobh2lnw7mopZ9PXn8pfPMxO82UxxiMpWiVywCtn6eFsZ2LM4HYuqYsSw8SYOsS2wa5Fi/14Dw8dP4ErlfVm6SczdXedldVs7RDgC1+bBFdTPXek1pMwARMwAR6iICHNYGuIJB5R9kVI1Rnn99q2Rw6yja99u/SVbkLhe0j3FwurTE4twMjm6KWJgKc/QGTstGGSRM5rLdp+uURpFIyLCUMWHGPplyrqK9vsQH37tsvrLZj5u6a38f91nzIeiqVCvzP1Vdb+Q0x76peffqGtXbjwV4tLaZMnhReue9/6YxUSqOkSuNXZ8P4satpUt393q3TmHFJKYHbGsZ7zo+ZU+noQGpFOyycP4PXaKSFnIHT4UHLvOE9mv/KUg7VVmApAwIXao4bS8dKLZ0nwAH/HNJfag8vyLayNZQZ/X6LQgxvyraYQJqAX0zABEzABBIESuMuLDGpCkpyrgXba/h2tSeW9ZAGZUvjNgrbe7KWqlhMoGsITPjt11A/OdPxL3lYej4jL7EG9yWZNW8/c1SYOGF8SMmolEphS8ks70hqkZXXCjW1mXaaey84JUwc/5u6S4VUKqXQkoXAqsp7XcqT/RZSWKg8rgY8NQ3dTHGe9hcpTzZTlsUETMAE8iVQ0vXwXo1+v0XhRpoxv/8wamb+0VSBxQRMwARMwASqnYANWF3/DmDfER9EltdQbBWYqLCrhSdk7aVB8M7gwOUWNxZlWkyguwl8+gaf0zNH7T/NoMyMPFLTzjp7WHW7PTNqjvv5x/Ay3lEYldCM0o4lpplx5rD6jvtkNB7/y8/huduul/EqhFTCmyz4X5wAniQ8fevneGaecfaD8hS0bMrTxPLsxtWKRsAdmYAJdBWBr9Vxtt915LENskHlFhMwARMwARMwgRgBG7BiMLo4iiEJj4I+Gud66cfSloN3lOikcON3n/rgEFi+yTtLcX/4EYR2ZIzK8RgpH02lusMIKizFk1cfaG17SJ5nle9o6+03KgwYxMPWWlq8fM8toaa2NiTP2WqpUXiMcaaefqaMhi/fe0vaeFVTm/8OuYwOip1I1eBZ2d3v3Vy/V9ji9y8tcW7poVJ+JymwmIAJmIAJmIAJmIAJmIAJmEDnCdR0vgv30AECm6vNglIOe+epUW8rXqgxi5tIjC+cOzOP2tPfWgrvlFaSdPVacNVfRIOUjabqen2h+ZaNTPp9QnjuNs7VzZzyjHPy9s/MyydV17t3mH+5VTKqvvXEA4ED32tqi2tYWmTVtTPGGfPcE2HKpEkhub0wo1I3JlJ9Bzyj4br7vZv06OR3Fwar+TWX/5Oyz1KBxQRMwARMwARMwARMwARMwAQKItBmZRuw2sTTZYUYn8apdw7a5VRqbkAHK83h3Lsr3Lcd/YPKeRwbZ8z8UXEMWWzbSd5YqshiAj1L4LO3Xgnjfvqh1SRGrs3O2lbZeWSkwjr7HBnqeuPM2Fidw9wfv+aikKoprgFrzV0OCBzq3jhKSJ+19eClZ4fauszzsaLyKgu/0XqPlg6VHi/9XmoxARMwARMwARMwARPoUQIe3AQql4ANWKVxbTmo8ytNhW2F5yo8vR19VuXUn6jQYgIlS2DCr2PDdUfsGaYkDnCfY+ElwhwLL9nhec80bJ4w8q+bZLR/+r9XhIbYUwszCjuYmGGOOcMfNtwqo/UT110S6idXta2Yc1vYKojH1VGC462CgmAxARMwAROoIAJeigmYgAmYQEkSqFQDFltaShK4J2UC1UTg0n22Dp++2foA93X2GdVpDMtvsm1GHz9/82X4LYunV0alDiSW35iHeLY0HKcxfvqmrHZxtky+OLF51Q1bBX9UaDEBEzCBrAScaQImYAImYAImYALFJlCpBqylBIptep1VzpdRV1UtvEd4olhnWdL+EZFMSS0VTIDtfM/ffn04fp1lwmsP3dVqpfMvv0qYb9kVW+UXmjHnEkuHuUfycM/Glg319aGhgbdZY7pYr7MvuFiYd5mW+TIGYxWr/zLsh+3PZTjtspuyJ2wCJmACJmACJmACJmACJhAjgHEilnTUBLISKL5VIOswziwnAp+//Vq49ZTD0nrLSYeGqw/ZNZy3/Xrh4GWHhUv33jpw9lVyPXMt+Yew26W3h7pevZNFBac5SH2zo84MtTn7KrjLrA1qamvD30/8d6jr0zdruTNNwARMwARMwARMwARMwARO9m7QAAAQAElEQVRMwAS6noANWF3PuHxH8MxNoA0CX73/drjvglPTev9Fp4Unb7g0vPHovWHCbzxPoHVDjFd7XXVfqKkp3kHrswyfP8w0bO7WgxU5Z/rBQ8OQBRYtcq/uzgRKjgDedZzJiK5QArPjrEfmgm5ZwHzwnqYNekKiHU+e3U156F8VWkzABEzABEzABEzABCBQBmoDVhlcJE/RBMqZwFTTzxj+cdKFYY/L7wp1vTvveRVnUVvXK6y776h4VpfEUzU1Ya3dD+2Svt2pCZQQAdwMsTCjdSUwr/h8Cvnl0U9zZw0ofSiZFraw76/YOU1KXFFLJwjMoLY8GVmBxQRMwARMwARMwAS6loANWF3L172bQEUQSKV034e2s5qaurrQf5pBYfB8C4cl1twgbHnc+eG4x94Ly264Vejdr387rVOhrlefduq0Ll5stXXCsEVHti7IlZMKHTKkLbTiGmHukcvl6tX5JmACJlBNBJbQYnlCx5cKeSqpAosJFIWAOzEBEzABEzCBnARqcpa4wARMwASaCEw9/Uzh5Gc+CSc89WFOPfXFr8K5b40NhIfe+ULY8dxrw/Kbbht65Xl2VE1tbdj3hocz+t/yuPzui/a44u5w/JMftNIFV1i9aQUtQSpVE3a/9PaMcbY+9ZKWCm3EdvvPba3GYNzF11i/jVYuMgETKCEC7HH+SfNBiSvabcJnLqz0MqN35Zjd0vfMGmUxaSl46mkaFhMwARMwARMwgWogwIepalin12gCJtBJAlNNP2MYONOsORXPq5CHl1Zb0+jTf0BG//0HTttW9eayvlNNHQbNPFsrzWU8690vc5wBg6Zr7qutSJ/+U7Uag3F792XHUlstXVZWBDzZSiXAA0nW0+KGNOlGCrtL1tBAT0rxWppHocUETMAETMAETMAETKBAAjUF1nd1EzABE2iXgCuYgAkUTICzhJZTq79LN5YuKc0lGEDmUyEanQ3F0ww4oHwL5bO9S0GzDFJsLek/pCtJB0jzkTpV+qN0UykHns+qsC3hM8WcqrCalHWsq3CYtD3ppQqsF4MS48ykdD7CeAuqIi6QGyiEi4I2Bav4YNVAp1YYl3mVgCnK2pUMrAeumymxlJS5KsgqeFYxn4g1xjL63Fa1b5NyVtT8CidJc0mtChg/0mzW9YGxOhjjlMwQ5shTJ2DC4ferqnQaaXtCO+a3tiryPuK9Aiclm4U6zC0+LhZ88tDZm2u2RGC5kJLrSHlfYMzj/a5kVuE60hdKWyrx/ub9RNxqAiZgAiZgAiZQpQT48FelSy/pZXtyJmACJmAC1UEAAxSGmw+1XDx0rlR4g3S0FG8dDCiKZsjbSkU6QvF9paT/q/Bq6YvSk6UYVJZX+J70TukV0oelT0kx5CjIKWwRe0Slj0uvk94u/UK6izTbZweMZGep7APp/VLW8T+FrOsMhVNJswkGrldUwHpvVMg4PH0QI56SOQWDzE0qfUN6i/Rm6bvSo6UYgRRklf8oF1YodZVsFvIixZBziEpYD1yvVfw56UXSbAf6zaj8W6XMJ2JN+h3lMSaGn28V/0j6gzSXwPFNFUbzyLaPmicoRuX0repp4XpjuGLOMIXJVSp5QEoehrVs1452GCcfVL23pHdIeR/xXhmj+PbS6DB8DI2MfaHyIoEVeehlUaZC+h2ukLm8rhAjHu+LexT/WLqNlPe/ggyhn0gxZlGP9rw/6DOjshMmYAImYAImUAEEvIQ8CWT7IJNnU1czARMwARMwARPoJIHT1f56aTYDD2cMPa8yvHoUZJWDlXuKNPJUUTQte+kVz5/7FCa9XTByYPRpyxhwgdph/FKQITzBj77jmRghHlIGhhUFrYT6GKaSc8QQ9IRqLyCNC/PC2Jb0kIrqYAx6Rgk8rxRkCI8LxXMnI7MDCQw0x2Zpt7XyDpPGZRYlMMBFHkLjm9LxM7Y+Ux6GHvRnxXPJ9yq4WxoJ3mx4OEVpwmV4aVKMQk3RAA+MoNm8oKYPIWBQ2yq0/rewsjBc/UlhUjBcXazMY6SFyopqAJds71+u/aUqz8ZY2c3CnDAaMg+4Nhc4YgImYAKZBJwyAROoBgI2YFXDVfYaTcAETMAESpEAW6n+qYnxt5hDxfFuwuOKLYB4/agoYHjAE4h4NmVbFlvSzlfh5dJIMPLwdAIMBRguTlDBd9JIMC5kM3RE5RiP8MDB4HGAMiOjC0aoHZWOezkdpTRzVhDwgvqzInhWsb5PFEcwRKxJJKbHKx7fooanF1vMmOsUlcFFQSvBUITRC0MXhXiUYaxjnj8qgzkq6JQsq9YYoDDYna34b9JIkutgi2W0pQ4vLbyZRqoyhjS83xQNlLMt73cS7egRKue8LgWB64eBjHikbGWM4qydOCxGKYIhlLb/VhwDKFvvDlR8gpT3xHkKmYuCtMCY68C2RDLwuNpQEdZPH4qmBSMkhi7WA2sMr+kCvXwqJQ89SXEkmg+ecqQxrP1FEbbJYpBSNC376HVpaS7hvcX15FrwfsxVz/nFIOA+TMAETMAETKDECfDBpcSnmJ4e37rx4bm79df06H6BQ3ezj8YzfRMwAROoVAIHaWHc6CsIh+sFrye2mLF1cE+lMUwpCGwxxChCPKn8fl5cmRjCtlPIVjEFaanX65FSzkLCCIYxSslmYdtbcyIRYevgKspjyxceXpsoTn8KAoaZRYhIMSThBaZo4G/1yoqwhZAtYnh/4bFEOwxebEuLzt8ijaFE1dOCRxgGHuowVwwX6YIsLxhTouzXFME4xtY15skZWhOV11nBoMhjTPdQR1yLExVGMlsUaQox1KWjesHow98vRcOXeuEaK0gLhq50pJ2Xl1ROWwUBz6M5iDQpxqvIoIW3FtvzKGKeGJiIw35vRV6V8n5gOynbUpVMG8QwEhJHMYDCjDiGL7brsfUQDzeMS19TIOV6Ybhk+yOsucbKTguGUfLQKJ/rznWhAv3y3mTr4NPK2EkaGaPoly2wysoqvO/fVwlbZXkf05eSFhMwARMwARMwgWokUC4GLD6s8q10dysflqrxfRFfMzceHETb3eyj8eJzcdwETKCyCVTb6jD+RGtmC14UJ/xcL3itKAh99MLvYQWtBMMK278o4Pd1ZEAgjSED4wVx9F694NmkIC0YD9KRLC+cWxXPflaJyDCD0S0yeuBppaK04H3EOVnpRNML52ixfY4k3jj8bidOH9HWxsnKOE4aN07g9YRBTNmthAPBo0zOpmLdUZotlxgBo3RHQwwurCdqj6EsiuMRFMUJOduKEMXgRBgp64ziyXZRfjKEQ3RNac/ZVVGduBHyTGXCTkHYnJcm5T2Bx1VTMh1wDlY6ohe8qxSkJe79hOE08uiiEP5cF/rDgMT2TPLz0biXGu8BPLfi7diWGKUjw1uUjocYx5hvsn28juMmYAImYAImYAJVQqBcDFi47rMtoLsVl/XueCvwARXXfj745qucOUK77pgfHLqbfTRed6yvzMZo4Jvx8NkH2T7Pl9lSPN0OEfjuy0YbQSqkIsNAh/pxox4lwGHdcQ8ozjLiAPC4xs864vDsbBPmwO94ftxw8Y0K4mkMPaiy25XIWBVV/EURvL0UpIXtaUTi29HwDorPP4rHPZaiNQ9VY/7eKQhsq2OuxCPFiwqN0lFI+/gB9HgrRWWErC++ZvI6otHWx6htZCiK0vGQaxeld1aE7ZcKAtsj44ZAvMvIz0c5AD+qx1MQifN3H68w4jCLtozy+YFzzchH8V6L2EchRijK0MiISJwthoQoB6VjPCMeKVso8bCDc/z6R+XZQgyjceMsRsVkvxzUH7WNPMqidDxk+ytGrHie4yZgAiZgAiZgAlVKoFwMWN13eYo3UkpdcRYFH+hXUJxvUNmGwAdBzqm4RnkYhviwjfJBnW8781U+vNKOD4W04dt7DlnlcFk81jjMlTNOuAGaTmP5WgtCJUhDQyrtXfDzd/Ev/SthZV5DvgSee+CupqqpaBtOU9pBGRHA6yT+exlDAoddxzV+eDf5Pbk8/tY0Wk4bZzFXYxDixhDOa2KeSY17HvH3iKZxAwdeYfxNI789TZ7bxZcd7bXp6nJ+DvFeYhwMexiWH1MCg1Bk4KOc86eUnZew5Y/PBVTmSX4Y/DinCgMeeXjoRYYd8jFikY9iEEpeg7gRMc4w8oKjXdQf8c4ohjY+/0R9RNshozThOF6aFGNu/GehKTsdsA2V91464RcTMAETMAETKDoBd1hWBHJ9YCirRZTIZPnAxpkgHFLK05b4MM4Ha7Zd4D5/h+aJuz+HpXLWCe7+fMBLKb+zwrfYnDuC8QojFt/4coYFH6o5b4IzLPhGmi0JnDmCUYtviIsxdmfn7vYFEpg8ZjTnw4Q7r7g41Ndz31dgB65e9gSevb/RgDXp/ReuKvvFVO8CMEDEV8+WK34351LOJorX74k4hpFoXIwzxDmHiRB9UC+55h/lR1vZONdI1dOCxw5/x9KJdl7injtU5ZB7wp5UzoWKn+PEVknOf8Iww7z4e7ySIoUYYvi7jRFMzdICv5kUi7zP8GriyytlBcJ437xXqJ9LmQvt0LhXVdQ3+Z1RvNUi4xv9REY34pHGrzeflfhCLipzaAImUGYEPF0TMAET6C4CNmAVTppvOfmmnA+AV6g5Wwe4EeFD9YtKc2fJ2SDU41tnjESRqrjbJBqTkHkwn/k1+k1SjFp8Q8yWDTy38AZbTfl8I14so5q6s3QRAW5UHv7yo/fDp2N44FcXjeJuS5LAV598FH75HptB6m5N0Dd9glCmwvlUGB6i6X+iCGcuxZXf0RhHyOPpcKrSbcLfjfhgePlgmInyovO5WEeUhyGKuSaVcuZPfrQ1EQMWhg7K+AIoMvaQRvl8kpwD+Rh24tz4u0Z+pPzN4+9dlO6OcG0Nws+jgrCfXjBe8WXWHxWfV7qxNFq3onlLfBshZ1VxCDzro4N/8dKkeDPFXXLhCeu4vqO6eMiNVhgd/K5o4LMLIYrXFmFcOX+KL9840J/rGy/LFefhA/F+s21/nTnWmM9QsWRVRr1oEzABEzABEzCBPAjwATGPalVbhQ+KfCOJYYcDXTkAl4OH8GTCu+kfIsMTfHDNp162D9uqUnLCurgRYesAnlt4g3HwL2dlYBHhm12eaMWHcL7d9vukxC5hQ6rh3CmTJ4crTx4Vxv3KTtQSm6Cn0yUExv74Q7jgiP3ClCmTQ21o2L1LBnGn3UUA4yO/b6PxMHhEcUKMMDwBkL85PE0O4wX53aX8XYiP9Qcl8NxVEKbo5VEpEjdgYWThCx7yI+Wpg/9Vgm1k/J2ZR3GEPjBGEWetbH2P/61hvbSlPK5w48uiKI+nI9aGECUDBq34U/uaC7owwrEAGI0Ygl/IGKs4mwz9UJnMWUHBwpdNUaPFFYmuCcbOuHcWX2rcovJI8NJNsoMTn1u4DidFFRVi5FKQFq4fWyDTCb1wPTDIcfwB3nV4kvH5QUWBMQlRPk8QxpUnDkbpNRSJPHhhgAAAEABJREFUb1ukjy2VFwlPSoziDk3ABEzABEzABEwgJwE+nOQsrNICPlhhiOLbQbb+fSoOfAi9ROGfpZxDwYdtRStOWDuPrOZpQ5zVwQdkPuy+oJUuJ+VJWNRR1NKTBKa89+LNunu46JvPPglXnXpsmDyJL7x7ckYeu6sJTJr4e7jk2MPC9199qUufOun3MaPxYCnesO6pJwj8JzboCYrzhQi/Z9FtlcaDR0HgqXvxp+CR19XKNjQMHRgn+DKDbfD8bWRcPHgwrBHHAMLfCOL99fK4lHOfMOhg8MJLGeMFaTyXcR9UlbQRjL+xxFHWe6QieAHjEXyB4rmEv09RGdvkmBtna7GNHyNN0ngT1e2qML4djnljcMSwh/fcRA0Kn8MUwrKQv6Fw5iE2aho405KzsIjzZRphXDFoMx55PBnyWEU4Qw3uGPRIKyuwnU+/Q4im9VK9MlcFacFoCj/WtIVyogPkacOTIQmVnT54P4pjtMTwRRveu5Tz3sHQRpw1cxg87w/mBAve65Rh3DudiNUETMAETMAETMAE2iNgA1YmofmUvEKKiz2GGw5f54OcsqpWMNYtodWzXYQbFr6B5dtUZVniBLo7PmXy1Hvo7uGi1595Ihy3w+bh+QfjX3h392w8XlcR+PXnn8KN554ajtpqw/DBG9zPhpMnzz4VN4BdNaT77T4CfDHyQtNwGBrwVMIri+1e5zflE2BU4IsU4t2hHObNuUQHaDC8pPC2ioxXygoH6QXDg4K0bKDXyHjClyB48+KpzFrYeqbigCGHrXRRPfKO0AtPN1SQFtKMzcHdGL/SmVleMODEt8xxfhh/s3lSHl8+ZWnSpVk7qPfI0KRohmC84UshzqdkjjtllLadYIslZ1pSK84fbyjy4qo/ByG+rRCPNh74wbXg/cT5WdSHb/y9Rbt9KGhSjICwxXMM41ZTdrhREY4cUJAWtgjSNp3QC15xbBPlvaJkWiKjGQkeLMNDAJgTT0kkD8V4hdGTuNUETMAETMAETMAE2iRQSgasNifahYV828v2QG4Q+MD9d421qJQPnQosMQJ8q86HUCwl3HTtrLL4ob5KWrqNwEePTJgyZvROIZU68Puvv3zvylOOCYdvsV649PgjwqO33mgtcwY3/euMgB6/05bh8TtuCWN/+lGGhNShk8eMPig88gg3tsH/yp4ARg+eUMs5hJzrxBcGc2hVePry9xnjDkYJtnQru1nihoN4nArxdDxOGRrPi8fjZZcrwe93jFh41UR/D0lvrTK2AipoFs5U5AEhTzXlYHziKYWzNKX58oNtaPEznShi69hmisTPQMKDB5fS45SfttgqROJzxQjGdjeMJpShGAAJeXrf3USaNN6uKas5SJbF0/F4c4MsEdjgIYeBjnnjcXay6uFdR/x5xbnOCgIeSHgxRcYk8trTC1WBvhWkha2XcSNROrPpBQNgZHQki3Hw2uIaMjeuG09GjntcUY/thzspgnFJQcBLimuH0YwHwPD+3EUFcSYYJ89SHuUKAu/XwYrgZaYgLRfr9f+kGO4UBM5RY07U5b2Exx1KWVzj48Tj8TqOm4AJmIAJlD8Br8AECibAh4iCG1VIAz5gc/Dq21oP34JjuOKDqJKWPAjwjfK/VY8PptyY8KHU/ASku2Xyey+cXNvQwE3wvj//8N23Lz324Nj//vvMYC1vBo/ddtME9Neff/q8IZW6cPK4MNfkMS8c393vL4/X5QTwduE8IDyXMA5xjTFE4NXEdi8MABzSHZ8I2+Ui5am38TK8o6KyVeMFTXF+V0flcQMQxVH+wUrgccP5jngXMSceToJ3E17KKm4lbAdcXrlsX2M7G0YcPHuYA+dI/ltl2YwRGJsw2GHIOlF19pay5RAvQ/qL5pR84ibGFv4O4eF1rNocKsVbmLOzMKZF7eChomZhS1xUxvyaCxSJ8glfVjoueH2Rj2Kci8rY7niREpyDeYrC9aQHSreXEsfQBsfIaIShjS13Ks5LMA7Grxnj4/2UrTF8mQPvJY48gAlptmdyNhh5cEu2pR1rmFMFbPOkHVta+VzEF1e8PzE4qbhZ8MCDH57rvEdpw7WLP42RfjHAsn685DBWHa0e2A6JgYyzw5LvbRUH1hgpxjXyrCZgAlkJONMETMAEqotANRqwMLLgRfS6LjXfjvKNoaKWThBgC8Cbas+NAt8wK2rpTgK/v//imMljRp8+eeLE+SY31CyUStUsYS1vBjJKLoJODj/PPeW9F3YOX4zOdqPXnW8zj9W1BH5W9xiHMAQco/it0rjnjZLNgmcWBgUUj5zmAkV+l5KPZnvPMA5lKEYIVW+WqAxvHTLxruELHuZ0pzKifEVzCoaac1WKEYftbw8pnpyjsjKE8uuVg+GMJ95h1FMy4LnEPNFcXoeceXW4KmNki84Jw5uNNmiSIUzIR2Glps0SrZ+yJBvGJx+Ff9QI76so/msUSYSMGW8Do0SVnEmMQPF5xfvJ1Yg2eFvBBI+sy1QRbzcF7QreXbTjIPirVZsthwpyCudcYaSiDdcOg2S2yhgAMVixfZDzNZPXJd6GNcIZ5b0RLyt+3D2agAmYgAmYgAmUDYFqMmCxVr6dfVZXh2+W2aZBnpKWThKAI08r5AMsWwt52hFbYTrZrZsXTOCT134M7z//6aT3nn/ZWt4MMEqiYcyY5E12wW8LNzCBriRQ5X3zNw+DERgw0FyryK5SPMrwfMJggzcXZ0spO+BJxllQxK0mYAImYAImYAImYAIFEMDwUED1sq3KmQxsR2C7BOc/cK5D2S6mxCfOVhE+wPNUKHu3lfjF8vRKgoAnYQImUL4EntDUOR+Kpyvy2QLDFR5J/B3kHCy2zeGlxbldHNLP2WJqYjEBEzABEzABEzABEyiUQDUYsPAM4tvPowuF4/odJsD7irM2eCIU30B3uKP8GrqWCZiACZiACfQYAc6Pmlejc24ZWy4xar2qNA88YTsl+ZTjncx2QhVZTMAETMAETMAETMAECiWAoSGEQluVR33OutpLU+V8Bg4mVdTSzQQ4gJhvos/TuDztUYHFBEzABEzABCqKAFsI8bDi3DIOvf+TVreY9C9SDrQnHw+t5LlaKraYgAmYgAmYQA8Q8JAmUKYEKtWAhRs/HlccIOtDxXv2zdlXw/9TynYKniylqMUETMAETMAETMAETMAEypeAZ24CJmACJtD9BCrRgIXB5F2h5MwrBZYSIfBXzYOnRU2t0GICJmACJmACJlDdBLx6EzABEzABEzABEyiIQKUZsAZq9XdLh0nZQqjAUkIEhmsub0o56F2BxQRMwARMoOME3NIETMAETMAETMAETMAEqodAJRmw+uiy8cSflRTaeCUIJSpsI7xBcxsqtZhAzxLw6CZgAiZgAiZgAiZgAiZgAiZgAmVBoFIMWKyDpwD9rSyoV9AkO7iUhdXuKinXTYHFBEzABEzABEzABEzABEzABEzABEyglAn09NwqxYCwr0BuKrWUD4E/aqrXSHtJLSZgAiZgAiZgAiZgAiZgAiZQ6QS8PhMwgU4QqAQD1tJa/yhpb6mlvAhsrOluKbWYgAmYgAmYQE8TOEUTaIipohYTMIHSI+AZmYAJmIAJVCuBcjdg1enCsXWQJw8qaikzArz/ztCc55RaTMAETMAETMAEuoOAxzABEzABEzABEzCBMiSAAaEMp9085QMUW0RqKV8CgzT1k6U+eF8QLCZgAuVBwLM0ARMwARMwARMwARMwARPoXgLlbMCaXqj2ktrwIQhlLmtr/iOkluoh4JWagAmYgAmYgAmYgAmYgAmYgAmYQN4EytmAtYFWOaO0SqWilt1Pq7lc6nPMBMFiAiZgAiZgAiZgAiZgAiZgAiZgAi0EHINAuRqwhmryF0otlUNgbi1lYanFBEzABEzABEzABEzABEzABIpLwL2ZgAmUPYFyNWCtLPLeOigIFSR9tJatpBYTMAETMAETMAETMIESJOApmYAJmIAJmEBPEihXA9YaPQnNY3cZgd3V8wxSiwmYgAmYgAlUIgGvyQRMwARMwARMwARMoIMEytGAhafOph1cr5uVNgHejzZOlvY18uxMoIcJeHgTMAETMAETMAETMAETMIFqJIDBoNzWvZsm7O2DglChsmiFrqt0luWZmIAJmIAJmIAJmIAJmIAJmIAJmECZEShHA9bwnmbs8buUwJJd2rs7NwETMAETMAETMAETMAETMAETMIE8Cbha6RAoNwMWnlcLlg4+z6QLCIzogj7dpQmYgAmYgAmYgAmYgAmYQM8Q8KgmYAImUBQC5WbAYtEDeLFWLIFptbJhUosJmIAJmIAJmIAJmECagF9MwARMwARMwATKzYBVq0u2sNRS2QQWq+zleXUmYAImYALdTsADmoAJmIAJmIAJmIAJlDWBcjNgAZunEBJaK5fAnJW7NK/MBMqXgGduAiZgAiZgAiZgAiZgAiZgAj1FoNwMWJyB1VOsPG73EZi++4bq1pE8mAmYgAmYgAmYgAmYgAmYgAmYgAmYQAcIlJkBK5TbfDtwSdxEBOxlJwgWEzABEzABEzABEzABEzABE6heAl65CWQSsEEok4dTJmACJmACJmACJmACJmACJlAZBLwKEzABE6ggAjZgVdDF9FJMwARMwARMwARMwASKS8C9mYAJmIAJmIAJlAYBG7BK4zp4FiZgAiZgAiZQqQS8LhMwARMwARMwARMwARPoNAEbsDqN0B2YgAmYQFcTcP8mYAImYAImYAImYAImYAImUN0EbMCq7utfPav3Sk3ABEzABEzABEzABEzABEzABEzABMqWQN4GrLJdoSduAiZgAiZgAiZgAiZgAiZgAiZgAiaQNwFXNIFSJGADVileFc/JBEzABEzABEzABEzABEygnAl47iZgAiZgAkUmYANWkYG6OxMwARMwARMwARMwgWIQcB8mYAImYAImYAIm0ELABqwWFo6ZgAmYgAmYQGUR8GpMwARMwARMwARMwARMoEII2IBVIRfSyzABE+gaAu7VBEzABEzABEzABEzABEzABEyg5wnYgNXz16DSZ+D1mYAJmIAJmIAJmIAJmIAJmIAJmIAJVD6BLl2hDVhditedm4AJmIAJmIAJmIAJmIAJmIAJmEC+BFzPBEwgFwEbsHKRcb4JmIAJmIAJmIAJmIAJmED5EfCMTcAETMAEKpKADVgVeVm9KBMwARMwARMwARPoOAG3NAETMAETMAETMIFSI2ADVqldEc/HBEzABEyg7Aj0mmfEnrXDR1xUN3zEaOlLdcNHWIePKCsGtcMW2ap2yAIhUl/H8rp+ra/Xkv/Tz+UuYaWV6sruF4onbAImYAImYAImkJWADVhZsTjTBEyg5wl4BiZQ2gTqho9cqW74kjfVzTNiUkNDODMVwg4hhCWli1tD2TFI1fWeKdWnf4g0hFB2awiec+yapdbVz+X5dZ+NnaSf1Yd7D19mQfGxmIAJmIAJmIAJlDEBG7DK+OK1O3VXMIFxOD0AABAASURBVAETMAET6AICG9fWDR9xdAgND6dqajecfubZ6rbc99Cw3zmXhLPuejycfc+TVjPwe6CH3wNHXXFzWG/7/wtD5pkv9Orde6X6MPmN2uEjzw3Dh/fpgl8K7tIETMAETMAEep5AFczABqwquMheogmYgAmYQPEI1A3/4Aj1duigGWYKOx19cjjkgqvCMquvFeaYZ/6QqvGfVbGxmECPE5huppnDqhtvEfY/5z/hyMtuDDMOnj2kQsM/a8Og03p8cp6ACZhAyRLwxIpCYEb1spp0R+mB0uOl50pPlB4s3Vm6pnRWqcUECiLgT9oF4XJlEzABEzCBaiZQO/dSm2r9R8y10KK1+551YVhoqWVDrz526BATiwmULIFppps+7HPmRWH+EcukZMT6v7rhI48r2cmW/8S8AhMwgeogMEDLXFi6nfR06W3S96WTpN9I75deKI2MVv+neGTM+rfid0u/kE6RfiS9S3q2dCcpxzFMq9BiAq0I2IDVCokzTMAETMAETCALgQVGzJqqadi3b/8BYdtDjgkDp+cLxiz1nGUCnSLgxl1BYMDU04Sdjz656ee2Yacw14iBXTGO+zQBEzCBCiYwndaG59TlCl+Wvii9RLq3dB3pXNJCH5yBPWKo2v1Furv0Aunz0lek10nXl9pTSxAsjQR4wzTG/GoCJmACJmAClUCgi9bQa2LDGqGhYak1tthGN8EzdNEo7tYETKCrCNTW1YUlV1yF7mfoVRP+RcRqAiZgAibQLoGFVAOj1WcK8ZTaSuFwaS9pVwg2iiHqGK/3mxV+KH1AupzUUuUEeHNUOQIvvwQJpEpwTlU1JS/WBEwgQWDEiF4NqdS+/aeeJqy60RaJQidNwATKhcAaW2wbppl2+tAQUquGYSv1LZd5e54mYAIm0M0Eemu8g6R4Q72gEKNVP4XdfZ/GeJzVsKrGfkT6uvQ0Kd5gCizVRqDcDFi/6wLxJi519fxC6AyD/YP/mYAJmEApEfh+6lpNZ9rBcw1XYDEBEyhXAv2nmjosuRJnCzcM6tPnV7atlOtSPG8TMAET6AoCs6hTDl//UuEJ0pHSUjH24/GFN9g+mtPH0v2kc0q571TQo+LBu4lAuRmwugmLhzEBEzABEzCBGIG68XwTOXi2OeeOZTpqAiZQlgR8q1OWl82TrnQCXl8PE8AusJnm8I6Uw9dL3cNpKs3zFOlb0t2kzF+BpdIJ+EJX+hX2+kzABEzABEzABEzABJoJzDTb7MT71E+aMjWRilEvxARMwAQ6RmAZNXtYeq10GmlnhScL8iRCtvs9p84el3KG1WMKn5W+Kv1KOlnaWWF7IU8vZJvjn9WZv6IQhEoWG7Aq+ep6bSZgAiZgAiZgAnkTcEUTMAETMAETqCICkRcTZ0ut0IF116sNR/w8pZCnB+IJtbTiHMA+v0IMY39SyNMz1lDIOVaM8wfFF5BSb3GFO0t5sMajCn+T0q+CgmQJ1b5TyjxK3XtM07R0lIANWB0l53YmYAImYAJJAk4XiUBDfX0YP/bn8PFrL4Y7zhwVLt1nm3DGln8Ol+69dbjzrGPC208+FMb98lOon8KXnEUatIq7aWhoCL9893WGjvv5p4oj8uuP32WskTU3NHTkPqHi0HhBJmACJlCNBHbSojlHqpAzrvijwR9Inkb4d7Wn7fIKd5GeJ+XQd87P+lHxcdKJUjytaEdIerzy6AMvrFcUZ8vi/ylcSYpR7W8Kr5d+Ky3kg06d6nN+1xEKLRVKwAasCr2wXla5EvC8TcAEqp3Abz9+H644aKdw1KoLh5P/9sdw17nHh+dvuy689+xj4fnbrw93nnNcOHvrtcKRqy4Uztn2r2HsD3y+q3ZqnVv/+F9+DIcsP7d0rma9ZE8+l3eu31JqXT9lcvr9dMjyLWsk/uv335XSND0XEzABEzCB7iNwVIFDPaH6y0p5os16Cq+VdoX8T53yyOd5FeLFdbfCBmm+ghEr37quV2YEKs+AVWYXwNM1ARMwARMwgYjAW088EI5de2R49uar0oaptrxjMHS989TD4bAV5g2PXc2Xl1EvDiMCE8ePCx++9Gx4/NqLwk3H7R8m/T4hKsoIGxoaAgae+ilTFDZpfSFf+mZ0160J5vzNh++FF+/+b7j9jKPDT199nn18ffSfMnlyy/qa1tpgD6zsvJxrAiZgApVNYJCWl885gD+o3gXS1aV4SHGm1feK402loMukXj3jpTVa4VpStiaeqRCvLQUxaR3tr6xppZYKJGADVgVeVC/JBEzABEyg/Ai8/ui94Zxt/hp+/gbP+8z5p1KpUFNbF2pqakPy36QJ48N1R+4RHrmC4yOSpdWbfvyai8Lei04fTtl4xXDt4buHR688P8Cqkoh8+/H74aBlh4ajVl8kXLz7luHu804IP375WfA/EzABEyiEgOtWJYGftOpvpLmEb3w4G2tBVWB74AMKe/KbnRc0/t5Szta6WeFv0lyCgY0tjLnKnV/GBGzAKuOL56mbgAmYgAlUBgEMEf/JsWVtmQ3+Hg6/++Vw9IOvh8PufjGstuPeobaOYx4y137ziQeFT9/kKInM/GpNjf3+29DQ0FDRy/993G/h1x++q+g1lsniPE0TMAETKEcC+2nS2f5Qvqp8zrVaTeHX0lKSnzWZDaVsLeTJiYq2krNa5TijYgjYgFUxl9ILMQETMAETKFcC1x21Z5jw69iM6fcZMFXY44q7wtanXBxmGT5fmH72YWGWuecLfzvwhHDgLU+FmeecJ6P+5IkTw792WD/89nM5fumYsZRuT/QZME3Y8rh/hS2OPa9ZV9t+r26fR1cOmKqtDRvovRNfI2vuP9C7LLqSu/s2ARMwgRImcJ3m9k/pGCkfQj5VuK90OemL0s56XPFtW1/100/Ktj5C0uSnlNcZeUON2Vq4s8J3pMwfF+QDFT9FaqlQAjZgVeiF9bJMwASqjICXW7YEvvloTHjnKbz0W5bQq0/fsPP5N4b5l1ulJTMWm32BRcNWp1wS6nr3juWG9PbDt594MCPPifYJ1PXqFZbfdLvwx822b9aFVlyj/YZlVCOVSoWRf924eX2slTXX9e5TRqvwVE3ABEzABIpIYJL6+reUb8QGK5xDerq0re15Ks4qfBuyuErWlx4uvVTKkwqfUfiS9HXpy1LS9yi8TDpKurF0CekM0kKFbY4cAsq2QuY/RB2cLCVfgaUSCdiAVYlX1WvqEAE3MgETMIHuJtDQ0BB42l39lMyzUOdfflUZr1ZuczpzLr50WH0nvijNrPbQpWdnZjhlAiZgAiZgAiZgAm0TwIOp7RqtS/GkWlDZGKU+Vvi89L/So6XbSDn4fTGF80nnlPJUQdKrKr6VFEMXXmAcDP+h0m9Kl5d25JuVjsxfQ1nKjUAxDVjltnbP1wRMwARMwAR6lADnF33zIZ77mdP40+Y7ZGbkSC35lw1DTW3mwe4fvvxc+PqDdzNa/GfvrcO/dtigWa84cKeM8ihRP2VKuO6oPZvr0ea+C06NirOG3336UbjhmH3CCev9IRy6wjzpg9N3X2CasN+Ss4Sj/7xo2kD34t035zyPinOcLt5jy4wxP3qFz8Ah8ES9647cMxyz5uJhvxGzpvW4tUem+/zlu29azeeHzz8J5++0YbqvZ265KqOctV28x9/TZazr/J3+FnhKYVTpsn23bS6j/InrLo6K0uEjV56fUU6d9vSCXTfJGCPdkV6mTJoUXrj9+nDuduumGR2w9OwBZnstMl04cJkh4fTNVwu3nHxoGPcLZ+yGVv8u3Wfb9Fxgkyy88dj90mXpue24Qfjkdb74bqx117nHt5Tp/XDFgTs2FuR45amFT914WXqeh680X+Ca7rP4jOHg5ebU9V423DBqn/DtJx/kaN2Yfd+Fp2WM+d8TDmoskPH2+duuC2dvvVY49E/Dw16LTB8O0/vn9M1XDc/cfFVoUHljRb+agAmYgAmUEIGU5oIB6tIQAtv4UM6jmlr5GLSwL1BHybyE+rSbSrUXkD4hfU96o3QTKWUKLCbQSIA3TGPMrxDooxf20sZ1JeXlKyNVMd6WH2ZlWUzABEzABEygNYFfvvs6TJ6Y6ened6qpw/zLZ986mOxhpqFzh2xbwD56lYf1tNR+45F7wuuP3N2sbz5+X0thLNZQXx/ee/bx5nq0+fi10bEasagMDE9e/59wxMrzh0cu/1f49I2Xw49ffBowSE2ZNDFtfMGQNvrOm8J/9vpH+N+ph6fLYj2ko1MmTwpvPnZfxpg/ff1leOPRe8OoNRYLj119QfhyzNth3M8/pvXzd14P9HnSBssF4ulOml7G//pLiNb6XcKwgkHk7ScfbB7ntYfuCpM1z6am4c3H728uY92fvfVaVJQOP5UhiPxClDXEx6Cjn775Mpy+2aoBoyLrhhGGTJhhUOPw+THPPxHul+Hn6NUWCR/KIEm7uL752L3puX7w4tPx7HQc41/zHB++O/z87VfpfF4+eOmZdLuo/K3HHyA7q2IMxLh01cG7BOb5/Wcfp68pZ7XxpMxP33gp/eTLkzZYPm2Mw0CYraOM+eg9yNq4ltcc9n8Bo+HbTz4UeHLixPG/hR/0/hnz/JPhigN2CDdHhq5snTrPBCqGgBdiAmVDgPtk7m3v1oz547GNQjyqFBRdhqjHjaTXSzFocT/eX3GLCQQbsDLfBLMoeWdCcWtUVl5ynGrF2/sAOQGxmIAJmIAJZCfw9fvvBLxc4qVzLr5MVqNUvE4U79W3XxiyIEdORDmN4ScyLjTGuu71ocvODVcfytmv7Y+BcQNPrhfuuKH9yqrxxqP3hPO2Xy9M+O1XpbILRo//nXpE9sISzcWIdu6264QPX2G3RPuTHPvDt+HsrdYKv48f137lItaolyHzrK3+ImPmY+32ijHq0n22Ca/c/79260YVLt9/h/CEjJ/wiPKS4YP/OSu89xz3LcmSRNpJEzABEzCBriYwvQbgF/IzCrv7gEiMZg9r3JelnHWlwFLNBGzAquar77WbgAmYgAn0KAG8cZITmG3ehZJZbabnW671WVm//fh9m23ihR2NP3LFvzKa1vbqHdbc9cCw/02PhYNueSpsedx5oXe/zC9Mbz/9qAyvp4wOYgk8u2LJMGBaPjvHcxrjbz1+f/jtpx8aE3rtP82gsMRaGwa2Vs44bLhyWiSVSoVFVl07XUb5iLU3DhyW31Kj7djwpZZvbkv7pE4/ZFirDmaea94MBvf866TwxTucY9tSdaY55wm7/ee2cPD/ngl7XXVvWHS1v7YUKvb7uF9D8lyzaOx5lllBNTJl7hHLtsxTLKabbUhmhXZS9VMmhwt22Th8+/H7GTUHz79I+gmNO5xzTfjj5juEIJ6h6R+GqCsO2DF8/nbm2pqKM4KPX30hvPYQ3/U1ZmOE7TuAnSeN6fjrHWceHRoa6uNZjpuACZiACXQvgcM0HH8Q2GmkaI/JPBoZl3Af9CkQ1Sw2YFXz1ffaTcAEikHAfZgPO7CiAAAQAElEQVRAhwmM/e7rVm2nnmHmVnltZUw7Kw/eyazBVrTMnOKmXrj9hvDdp5y32tLvOnsdEdbd9+gw5+JLhzkWWTIsv+n2aYNWS40Q2DKZNIzEy+Px2rpeYal1Nw2jHn4rnPL85wrfDjMOnSteJbD98KOm87IomHbW2cP2Z14Rdjjn6rDMeluQ1aw1tbVh65MvTpdRvv1ZVxZkwFp2o62b29I+rhsffmqYMomHOTUPF6aZcZaw55V3hzoZ9sidOGF8ePqmy4g264xD5w4HyOC34Ap/DkMWWjzM+4cVwy7n3xhmmCNznV+880ZzGyKbH3NOei4bH9b6fLK/HXRiuiw9v7OvDoPnW5gmeStbBd95ii+7W5rMu+xKYb8bHgl/3Gx7Gcf+FjYfdU7Y5PDTMvj9Pu63cP9Fp7U0aic2jd7n/zjxwnD6y9+EU1/8Kqyz95EhbhQL+jf2+290jScrZjEBEzABE+hmAimNd4j0GOlAaSkI34rtromcI/XZWIJQjWIDVjVe9ZJbsydkAiZgAtVJgC1iyZX3HTBVMqvN9FTTztCqvKsNWHMtuUxYeev/k5Fm5rQRo980A8NqO+zdah4rbf3PkDRKfPX+O6G9f6lUSv3vFrY57bIww5A509VnGDIsrLINn1vTyeaXz99+tTneE5HJE38PZ/3jL4ED56PxU6matEEmfm0wZK2776gw98jlAtcYA93K2+wW+g+cNmrWGGrteG41Jhpff/r6i8ZIN7zefubRYeKEzC2L6+x1ZOjTf0Dz6KlUKqy01T/DHAsv0ZxH5PVH7gmco0a8LR00y2AZJN8Ky260VYBDTW1t+Mv/HRyGLLhYRjO2kNZPnpyR54QJmIAJmEC3EOirUbaXFiL8wuYPyEdqxHbDcxXuIF1Tupx0DSlnZ52pkC2JHyj8TUo7BXnLLqo5o9RStgQ6PnEbsDrOzi1NwARMwARMoFME6nr1adUeg0irzDYyJk+c2KoUo0CrzCJmTDd4aNj48NPCsY+9F46475VwwE2Ph5ra2lYj9B0wddpYEy8Y/8tP8WTW+BJrbhDWP/DYkEqlMsoHz79oRppEfX0DQY/pQ5edG77+MPOpjytsuVNYbqOtM+ZUU1sbRv51k7DvdQ+luR30v6fD0uttnlEnSgycadYomg454Dwd6eKXSTLGvXLfbRmjzDDHnGHYYktl5EWJRVdfN4qmQ87Dej/LwfLpwqaXVCoVtj7l4oytlU1FYaahw6NoY9izl7ZxDn41ARMwgVIk0PVz4gNKyzcXbY/3q4pPkK4i5ZyqRRQuK+Vbp0sU3it9Wnqf9HIp33j9SSH15lO4ovQw6c/SfIQPB4lvf/Jp5jqVQMAGrEq4il6DCZiACZhAWRIYMKj156/xY/P9/Na45GxeXMmzpxprFv+1rlfvwLY9DCyPXXNhuGHUvuFfO24QTlx/uXD4SvOH/UbM2uZB7LlmNM8yK4aamtpWxX2nKsw7rVUHRc5gqx1PV4x7HeFd9JfdDg6pmtwfsfC6mmb6mcL7LzwZ7jz72HDZftuF0zdfLRyz5hLhoGWHhWdvubrIM82vO54iOen3CRmV51t25VBbV5eRFyXmXnLZKNoctvVkQyr1m2ZQoE/iSe2u921yXKerk4BXbQIm0CaB31Xa1geSKSp/UrqPlG9d2G74uOKfSjFoKWhX8Nb6XLWekvIwtBkV7ix9UDpZmksoazkAM1ct51ckgdyfripyuSW5KD6N88M6RLMbKuUXwHQKa6WFCvuCZ1GjOaT0NZtC9ixjpVa0TemlUlxFI42PT3vmxEErxFXVYgImYAIm0FkCU8uIkezju08/Sma1mf709ZdalfcpcBtiqw7yyKifMiV8+PKz4chVFgwnrLdsuO6IPcIjV5wXXn/47vDJ6y+G7z/7KOCRExoa8uit/KpMnDBeBrt9Qtx41bvfgLDv9Q8FznfKtaJxv/wU7jznuHDIH+cK5++0YcCA9dyt14Qxzz8RvhzzVvjl26/ClEmtvepy9VfM/Am/jm3V3fSD+UjRKpuMMHAmPnKko80v33/+cXPcERMwARMwgbIlMF4zv0iKoUpBs/BHnX3taytnBekZ0nwNVqrapkxS6YXS1aXLS3FvTj7JgzTzan2IqBpYKp+ADVg9d42n1tD/kr4l5UAQlB9SQvIeUz6/FBS0K7h3spf4TdWkPf2gxOnrf8rH+KQgp1ylEtpHepDSCAa2GxR5W8opsoylqMUETMAETKBzBEKYfYHFWm2T+/g1HrKTf8/vPvNoq8qzzDVvq7xiZ9x6ymHh9M1Xl6Gq+gwWGO8u2X3LtMEpznX1HfcO0w/m+6N4bkv8l2+/DidtsHy486xjSvJwcjzpWmbbGBuY2M7YmNv4OtV0rc9fiz8VsrGWX03ABEzABMqUwGmaN+dNfaYQw9VXCkdJ2fZ3r0KMSQqKLoz1nHpdXIqHFwYzRcO3emH8vRRSR4Gl2gjYgNUzV5xnZPMV+64afnYpe0j6KewtxbA1k8LlpA9J+cXBHmRFswr7h19QyZ5SPjVPo5D69IXxCY+udZT3opQDOXJ5UDGPOVUnUj6VYvRiv/JGysdLDK8s/7IQDEuJEPA0TKDMCUw9/YyhthcOsC0L+eaDd/M2Cv38zVfhp2++bGncFJs9cRh2U3bRgtcevDM8fNk5GZ5CfaeaOiy1zqZh06PODDuff2M48OYnwvFPfhDih38XbQI93NGLd98c3nzi/oxZLLLKWumDyDMyYwm25p2z7V/Dtx+/H8sNYbb5Fg5r73Fo2PrUS8KeV9wdjrj3lTBynU0y6nRXorYXHx0yR/v1x+8zM2IpvMliyXR0wCActtNRv5iACZiACZQ3Ae77LtYSOKuKe8SFFD9KWiyPK3XVpuAFdpZq8Dhdxl9Q8aOlU6SWKiVQU6Xr7sllT6/BOdwi/gmPXw4/Kp+9vPEfSAxGHHKH5VnFrYQtgjcqd35pXNiz/Isy4lZxjGL/Vt5K0mZpJxL9woiqcTAGc43SDk3ABEzABDpBYNDMs4W+U/G9Q0sn9fVTwvO3XdeS0UaMJ/DVT8bjvqUShqS5spxN1FKjczEMMZftv32GB9HUM8wU9r76/rDtGZeHFf++S1hs9XXC0EVHBtZXU5v9/KTOzaLnWn/53lvh0n22lvGuhTvMNzzk5FBTy5/t7HP74t03AhovXfEfu4TD7nxBBqzDwzLrbxnmW27lMMvc8wUOv4/X6654n/5875U52g9tbAn8+evWxlPORMvswSkTMAETMIEyJ8DTV3C35l61J5bCfTLOH9/1xOCVNma5r8cGrO6/gqdqyPjdCkYmDqubW/k8fudvCuOCxxSW5rnimYrzKRPXypkVj8vBSswhpf7yCjFkKUgL51vdpRjeVgralJEqXV8aFwxYzDee57gJmIAJmEAHCXBW1bIbbdWq9TM3X9kqL5nR0NAQbjv9yEAYYv+W33S70Ltvv1hO6+jkCfw6b50/aeKEMPb7b1oXxHJ++far8PtvsbOSUqmw5XHnhyEL4ekfq1ih0WsP3y001Lf8Kaypqwu7XXJbmGkYf8JzL/q1h+7KaMd5WX876MTcDXqgZNpZcbzOHPj90c9kZsRSn739WizVGJ1naRzDG+N+NQETMIEKJOAl5U9giKqyA4j7Xzy52Fm0g/K4T1VgMYHCCdiAVTizzrSA91KJDjiojoPosCyjt6l8XWncEwuvpz8oLy54UrE9MJ63pRJ8GubuA59/PnUurLy4tRoj1j+U1578URWir5LZRrix0mtI8e5SYDEBEzABEygGgTV3ObDVod/ffDQmXHHgjmHyxNyHed9x5qjwSeIA95ra2vCHDf7e7rTY+jX+l8yHC/320w/h9M1WDb/+EP+T0borDvqOG81SqVSYZsbkdymN7R6+7Lww4df49yhBa+q5PyOcXdU4s8JfWfN/jz8wjHnhyYzG8B62+NIZedkSSe+rGeeYK/Tqw5/kzNqMkxxjSsLLLrNFZmp83LiYWdRuqt/UA8OcSyyTUe+zt15p5TkWVXjxrv9G0XSI59h8f+DjSTrpFxPIQcDZJmACFUpgUa3rMOl9Uj5MfKLwMum+0u2l7Crivpe99Nz3PqS8Y6TJ+2NlWUwgOwEMKtlLnNsVBOCNxvueQQm8rBQ0y92K8QN9q8JtpNS5RmFc2FoY7+s9FbKdUEGGfKrU5dK4tP66P16aGWcOfBq9Sdkc8I4xTVGLCZiACZhAMQj0m2ZgWG4TftVn9vbszVeF/55wQPjhC36Nt5ThAXWHjFf3nH9SS2ZTbORfNwmD5+N7i6aMpmC6LE+Se/7260Jk0OFcJp4i+Nlbrza1yB306tsv4+B5vJG+eOf1Vg0wwtx2+hEBg0y8MGk4i5cVM17Xu3dGdw31DWHs95z/mpGdd+KT118Mj1/D5+6WJnMstETY/Jhz29w6GNVOXoOvP3o3/Pojn++jGiH8Pu7XcMX+O4SvxvDclJb8iePHtSSINWny/DSy337iAYIO6wYHHBdqaqLvrxq7efSqC0KGEa2hIXzw0rPho1dwBG+sw+v8f1wlZJsTZVYTMAETMIGKJcDZVHhY8UcBgxRPEZy+ndUOUvnK0sOkfDN0h8IlpfH7WyUtJpBJwG+QTB5dnZqsAXiKg4Jm2VCxS6Xxa0G9NZW3gRTj01iFcWH7ID/w8bzjlWg5kEOJmNBHLBk4M2twPCNH/HnlM7/cLgCqYDEBEzCBciNQavNdZ+8jw3zLZv5ax/Dz6JX/DkesPH847q9LhXO3XTecuP5y4ZA/Dg93nXt8aIhtY2M9cyy8ZNj61P8EWZdC8t+cWTyErj9qr7Dv4jOG/UbOFo7+86Jh9F18T5Fs2TrNk+dSqfifrBCuOez/wtM3XZGuPGXSpHDryYeFM7ZYXQaZ39J58Re8v+LprorPNOc8GV3X108J1x6xu+bUePbsuJ9/bMUwo0EsMfb7b8KpG60YJk7INCQ1hIb02q88aOeQTa8+dNcw9odGo9m8S68Q6zGEyb//Hi7cdVMZsXCYDuHTN15JX99nb706ox6JieMyxyUPnT6LYfLhy84L77/wFMVpA+Xkib+n4/m+DFts6ZBkh+Hu37tsnH64wO/jfguP6H15+qarhAm/Zn48WXFLnk2T70iuZwImYAImUOYEUpr/kdKXpXhY9VHYEeFpNmurIQawMxTSrwKLCbQmkPkJtHW5c4pPAGNVvFd+QNkbzOF4T6iAH9oVFZKvIKtg5U6Wb66afOrNpoeqLCn5uGqeqUYtB30oYTGBJgIOTMAEikgAg9C2p18WZpt3oVa94iX1+duvhTcfvy/gBVQ/he84MqvNsfASYdcLbgqpVPJPQ2M9trklnzCHgez38ePCuJ9+SBs6qNm7X/8waJa2v99gm9mfd9mf6s1aP2WKDDg7hT0WmCbssdDAcN+Fp+Y0Do0fm7l1sbmTIkemm22OUFOb6Uk05vknwr5LzBL2XGhQ2G/ErGKa+STBXFPgje2QpAAAEABJREFUaY9TsnD/9I2XZbi7vA29Ms2Xfocv9ccwcMZZiDbrmBeeDAcuPXvYa+FpwwnrLRO+/uDd5rJ4ZOL43+LJ5njvfgPC4PkXaU4TwVPqtM1WCXuqz93nnypcfeg/yc5b8Vzb5rRLw4CMpwk2hDceuSccvtJ8YR8ZPW8YtXfAIBh1mkqlwgYHHh/mWw6H7SjXoQmYgAmYQIUTOFjrO0raS1oM4Y/2HuroXKnFBLISqMma68yuJHCtOn8gBL1mytRKLi/dS/qIdIwUl8o5FSYlm0vmn1Vpixy6qfKTkv3AkpZafCV8c0vSMRMwARMwga4kwDlSh975Qlhhy53yfgodZygtvd7m4f8uuS0MnHm2nNMbutjIsPBKa+Y0cNFw+sFDwz8vuiW09xS5VCoV1tnriDDvMnzXQssWnTxpYrPhCoPZSlv9MyykcVtqhNBdBiy2Us615B/iQ6fj9TJE8SRFEvAj7A7tP3BQ+OveR4Z+0wzKGA5D4sQJ45vzuA5bHn9+c5oI5dQjntT1Dzg263WdpD5p00dGrmSb9tIYRHmiZLb3QkPC848tpatsu0dYeevd2uvW5SZgAiZgApVDYBotZUdpV8jf1Om00goTL6cYBGzAap9iIa6QWI3b7zEEXCQ5r2pSG5WHqYw9xG8p/JM0LvzCiKc7Es/8BN26hy+Vlf0xVSqwmIAJmIAJFJ9AKpUKmx19djj28ffCClvIkDXV1KGud5+sBooV/r5zOO6J9wPeMlNPP2Obk6mt6xV2Pv+GsO5+xwSMNrV1deqzJu2hVNe7d1hklbXCIXc8F+ZZZoX0Ewx79+sfIsVAka3zva6+N6z5z4Oa+usVODepprY2YLiaTsawPS67I2xyxOlh+tmHNfdFn7V1vTO6S4VUwMhCWaTMKaNSU6JW64jqNId9+zaVZgacxbTPtQ+GpdffIj3Hmtra9BxTNVp3TW2gL54CGbXq03+q0Nwn6+/bLyoKNbW1mWWU56F9+vcPqZraEP1bfpNtwwE3PSZj46zp61pTWxvgVqvrwXVZWnM95tF3whJrbpAYb0Bga2bUTzxcaIU1wp5X3pP2mKoVn5TWh9YorKmtC1PF3ht9+w/I6De+/nifxBf80+rhqPtfCyPW3jj0EuMazZF+U6maUFNbG+r0vpx13gXDgTc/ETY85CSlM68rfaB9EmP2FWfysynjZFwD8QupVLaqzjMBE6hGAl5zKRGYVpNp+8OHKnRQBqldV/Wtri3lTKCmnCffBXNvPBgjs+MBSk4lzUeSP2i5zo4ifzN1uIh0d+kr0lzSRwU8yWFxhZFk20uAC+eBqpCv0qeqW0zABEzABEqNQP9pBoXNRp0dTnr20zDq4bfCn7Zo/SXnHzfZLkw1bTaH3NyrWWPn/cIxj74bDrn9ubDv9Q/J+PBkOOqBN8IuF9wU2BqYSqXCbpfeEU4d/WWzbnXShTk7XGfvI9JGtMPuGh0OuPnxcOAtT4Uj7n05HP3A62ljGA03OezU5r7od6uTM/vjEHvmRFmky23EznpaZ+qs8yyY0Rf12/P82frki7Xmd8JBtz4d9v/vY2H/Gx9NzxVvt8Hz8We4cYyj7n81o+/1DziusUCv2cZl7PaU6zfT0LnVQ4vMPNe84ZiH3w5HP/hGek4HyAB0iK7H8RgjOcNMVbn+8b5Pfu7TnAYiVQ/z/mHFcMwj74TD734xvT7WuP9/Hw+H3PZMWGWb3aiS1u3OvCpjjYff9WI6P9dLLxnxtj/rynD8Ex+or2fV9yN63zwYDrz5Sc3/9XDo7c+HbNte4/3948QLM8Y8+qE34sUZcQye8XUfpvdVb80ho5ITnSLgxiZgAiZQJALfq5+vpe3J56rAfee1Cu+RfihtT35QhXz6VjVLtRGwASvzinMOVfJwEb76w8KcWTN7aqZE9thEOp6sV+Id6bnSJaR8wsWYdbviv0vj0leJnaSR/BhFYuFdip9cgL6kuhYTMAETMIESJoBXzqCZZwurbLtnqOvD9xktk733glMDB2q35OQXm2aGmQIGGbbXDVlo8TDdbENCKtXycaC2ri7gXRMpXjy5eqYdRjSMMhwiP2TBxcKMc8wV8H6K2uC5E/VFmK2/ut69M8bE0ydqnwzrevfJuy5t6WuaGWYOsy+waBi6yIgwbLGlAnOdZe751E9vqqQVz7F43zW1tel8XlKplOqmxy04DGpLH3FlHLbnMSe263E9BiSMkdSJa7x9tnjfqaYOHL7O+lDWOtt8C4f+A1s+wtTU1mbMP36dsvUZ5Q0YNF3aUMUB73MtuWzgfTPtrENCTW1tVCVnWFObHLN3G3XrMuZX16t3zrouMAETMAET6FECv2p07mMVtJIPlMN96XCFQ6V/kW4pZRfSPApnk3J21psKswnGru45MDPb6M4raQI1JT277p/cFA35gjQufDpbNJ6RI76G8jNPZw0h+2msqiipk/LVeUphg5QfdH4JrKv4rNIvpHGZN5Z4W3HaKGiWVZpj2SM7KHsB6UCpr7sgWEzABHqCgMfsCIHpBg8JMw3lc2BL69F33hgOWX6ucMUBO4SrDt4lnL75qmH/kYPDHWex+7ylnmMmYAImYAImYAIm0AUEzlSfe0m5b/1F4VdSDFO4N7Mr6H2lub/GcYN7V0LSXyr/aOmS0j2ln0oxWOF1Rf7+SltMICsBGzJaY7klkYWB6RzltfU1IEahy1QnKbhJJvPoh0cCYSjDwBU3TEV18bD6X5RoCmdoCglw2RxNJKbcsUwXS8ej/BL5tzJek2L8elwhXl8KLGVHwBM2AROoOgJ4omxy5Bmt1s2B6M/cfFV46sbLwpjnnwy//fR9hsdNqwbOMAETMAETMAETMIHiEMAodZa6mr9J8a4apfg4aT7CrqOzVREnC3Q+xTFg0a+iFhNoTaAqDVitMWTkYMBKHq4+p2o8LF1OikFLQbP8UbE7pDNL4/KiEo9K47K4Et9Kz5MuJsXgtLfCpDAGrpXx/O/iCcVPlcZ/uDmnCws2nl0qahbO8PqPUniSoXiJ8cuB/cjKtpiACZiACZQDgXmXWSGsu48+12XZkhaf/8xz8vkxnuO4CZiACZiACZiACXQZAY7NwauKbYXx+9N8B+R8Z9rjhdWR9u2O4wqVQ8AGrNbX8j1lXSzFxVFBs2C8elIpDFB4VnHmFJ5QeDNhxMLopOK08IO3j2LJPji0jh9MFTXLzopdKcWoxJMHufOg7VrKi8vT8YTiHIaHu6aizXKEYhjgRipkrwlzZn6kldUseGN905xyxARMwARMoCwIrPnPA9MHaPPUQM6d4gl/g2YZHKaffWiYadjw9DlF0ypdFovxJE3ABEzABMqFgOdpAiZgAiVBwAas7Jdhd2XfLc0mnFvFeVccRjddlgoYrbZRPoYjBRmC8eqQjJzGxN8V8CRCHs3zquJ4V/VSGMl4RTIf2xQC2wxXVP5P0rj8VYnnpGwXZA7JrYKfqYz9ygosJmACJmAC5UZg6CJLhl0vvDkcdufocPg9L6Wf+nf43S8FntjG0+w4uLvc1uT5mkDlE/AKTcAETMAETMAEOkvABqzsBDlcbmMVcQjdRIX5ykequLn0CimGLAWt5Crl/EM6QRoXHi/VXxk8cVBBs3D43bJKcbidggyhbH3lJJ/ggDcY/SSvL4YtDstLbkdUFxYTMAETMIFyIsAT5Hr37Rf6Dpg69O7XP/30tppadoqX0yoKmKurmoAJmIAJmIAJmIAJVDWBpIGjqmEkFo/X09HK42wrzqzi0HS27P2kPMpQvKA+VvopKdv+OCz9BsXbE4xYc6sSh8PjdUW/PLmBPtmWiCGMM7Q47J0thXhnqXpW4ZytpVVynJSD4dk/TF8YyH5QHn09r5BHly6jkC2QCloJ63tCuZHSRkmLCZhApRDwOjpBYODkyWr900/f5foVqlKLCZhAWRCY+DvnBof6UFvHz3VZzNmTNAETMAETMAETCMEGrPbfBRisdlM1jD8YnQYrPmOTzq6Qs6v+pJDHQ3FwnaJ5CUarPVSTLX70O6vi9DtEIU9ywCh1vuIN0vaEg+8OU6U/SOeS0tcMCpkffeHBdY3SbQkHwK+gCpFur7glk4BTJmACJmACJmACZU5gzKsvsYLfJqUm2iINCasJmIAJmIAJlAmBbjZglQmV7NNkWyFeTeNUjMEIJc7XeLm2C6pqu8ITD+P94oVFn4zXbuNEBdp0tC8MZUlNdO+kCZiACVQpgdGj+d38xlvPPxO+/cIPca3Sd4GXXSEExryWNmCND+P646leIasqq2XwJG6O6uAL4n01c86OXUUhx2kosJiACVQOAa/EBIpLwAas4vJ0byZgAiZgApVJoCGVCjdO/H1CuP7sk0L9FL4vqMyFelUmUMkE7r328jBh3LgQGsLJ4bOnMUxX8nJLaW1zajI8LZujN15WnCM3OErjVMUvlT4o5WgO4ux68D2KgKTFLyZgAiZgAs0E/MehGYUjJmACJmACJpCbwKT3Rp+l0nc/fPO18N1X7AJXymICJlDyBKIJTvz99/Dwf68l+dzk90efRsTa5QRSGgFvq3cVcrbsHApzST8V4I31tMJRUt+nCILFBEzABEyghYD/MLSwcMwETMAETMAE2iTQkKo5eNLEieG8g/cMX3z0fpt1K6jQSzGBsifww9dfhRN33SqM+3VsSKUa/l32CyqfBZyoqV4jrZPmKxi9DlVlvLMUWEyg6ARq1SNnEOPtt5Li+Sh1B6luIcK5xMurQT79u04IZtB5BiuHEDgXe16FhfzeVfXyEBuwyuM6eZYmYAJlTcCTrxQCU957/uaGUPOPH7/5evw5B+wenn/wnjAl/YDCSlmh12EClUXglx++Dw/ccFU4Y++dwndffFafStXsNem9F9mmVlkLLc3VbKdpHSBN3kSNVd4d0uOkx0ivlmZza+UBQ3hkYdBSFYsJdIoA76OR6oEHb+ERyGF4jyvN9tWHFLan1KXNpqpLXwpySn+VHC99TfqotL2+XR6CGRSHAe9n3quj9b77QHqBlIe0tfeeVbXyEBuwyuM6eZYmYAImYAIlQmDKmOevSjWEXX8b+/MPV55yTNj7ryuGK04+Orz78ujwy48/WM3A74ESeA+88uSj4eGbrw+Hb7l+uO0/54eff/h+XCqk9p303vNsBS6R3yYVPY1ZtLpsrH9U/tLSdaSHSTkX6+8Kh0sfk8aF+5RTlDGV1GICnSHAe+h8dfC8dC/pXNKppb2kvM9SCttT6g5TvSulPIhAQU7hPX2wSqeX4u3VXt8uD8EMiseALw14zw8JIewkxYjKuYMzKl4+kmOm/MDmKHK2CZiACZiACZhANgKT3h99+eSGujkbQrhY5b+98NB94dyD9giHbb6O1Qz8HiiB98AlxxwSbrnw7NDQUB90W3RqXd2UhSaNeeHM4H/dQYAb0Qs1EDdQCpqFR7guoNTb0qRwoP6ayuSAdwXNMoNi60ktJtBRAmwVfFONuRZ0mpcAABAASURBVJFX0GnBkIXhta2O8B5sq7xbyjyICcQIbKj4q9KlpGUtNmCV9eXz5E3ABEzABHqMwJhnf5kyZvSOk8eMniqkUqunUoEPrCdoPtYQyo5Bw68/Plv/41chUl/H8ruG8WuWamjYqSHVsKF+Pmsmvzd6/wlvv/yRyi3dQ2BmDfMnaVJOVsbX0lyCEevYLIVsM8RokKWoS7PcefkTmE9LuEWKJwqGVUWLIngMttXRnG0VuswEeoAA7388Y6/T2EtIy1ZswCrbS+eJm4AJmIAJlAqBye+98MCk90afrZvlQ6yjy5LBlK8+eLz++89DpL6OxbiOPdfHpPdfvGjKey/erN8RDVJL9xJYUcMNksaFrYP5HJ7P+S2TYg3HKY7xCqOYoq2kt3IWkWLkekrhh9Ix0vukO0sxXChoU3gy4haqESkeX2z74hwjDkS+TWVRv7crjqfYNAqTwg0i5yNF/RAum6wUS7OFLVl/tli5o50jwDX8l7rg/aGgqJLc7prs/LlkhtMmUCIE2D57leYyQFqWYgNWWV42T9oETMAETKAqCHiRJmACJlB+BDbLMuUrlDdR2p78pAqXSznY/a8K8aBh2yHbD5XMkKmUwpDwgkLO08JYxBlFbBlbXXkYzN5SyKH9/RTmklVUwHiRnq809e9WeL+U87qifpnTXcrjLCXGUTRDOPcr6oeQM7wyKsQSbOW5VmnqRco4yrIUgQDXDWNqEbrK6OJXpdq6rioOPH2T0GoCpUhgfk0K47mC8hMbsMrvmnnGJmACBRBwVRMwARMwARMwgW4j0EcjrSFNyiPJjDbSO6qMQ7DvVPiZlKcWJj3pFlI+5xotoxAvLAVZBS8DnmSIoQiDV9ZKiUw8o55UHk/uwotH0QzB02pe5bCmWRVGwhzxAovShAvrJVsfyg5b6oW+FKQFw8gr6ZhfOkuA644hMhd7+ud6sW0V7vko70M88P6gxh9L2xI8ADlzCE8s2uXTv+uEYAadZ8D7Dc9V3t+53qPYgPBO5CEDueqUbD6TL9nJeWIlQcCTMAETMAETMAETMAETMIF8CHBDhPdSsu63yYxOpNnad5Hax7cHcrP2gfIwPGE0+F7xuLAtkDO44nm54hi6Fm0q5Ib6HcU/kU6WxmV2JQ6XxoXthvH0QCXWliYFo9vGicxzlP5Nauk8Abz2eABArp54f3Dt5lGFaaVseW1PuZbrqu4b0vakXhXYwoyBlXbt9e3yEMygeAw4o42nbbZ15iBfNqwWsv8r6VwbsEr68nhyJmACJmACJmACJmACJlA2BPBeyjbZH7JldjCPGzO2C8ab4w21mDI4PJ4yDBMYnZTVLNsplu3sKmVnFbYJstUGYxYGEcZNVuScrfiB3TeqQnKr5H7KS8pIZcRZ/a50vgY2VbW0Q+CPKs/lfYUhEkPU8arD1lTSUxRvTzGSqlo+klGHdu317fIQzKA4DDCefql34NlStin/rDCXUJ6rrGTzbcAq2UvjiZmACZiACZiACZiACZhAWRGIG2XiE+cQ93i67XjbpRyOHq+Bh9RflIG3FMYCbuAYb1flxQWPA7bNxPNyxb9TwfpSDBwYpNiSw5a0y5QXF+6l4mfJ4EHFAcnxOiOUwDNNQbNgYGlOKPKelPkrsBSBAFtM49sz412+q8RLUt4rCiwmULEEvtDK8EpVkFWyneOXtWIpZfJLt5Tm47mYgAmYgAmYgAmYgAl0koCbm0APEcjl9YKHUTGm1FedJG+6OGw9W//3qO5H0rhsoARbBBXkFAxgGMm4+YtXIv8QZWCkUtAseGg1JxThvK24cQTDWfJw9qQB6yG1wxNIgaUIBKZrow888zj7qo0qLjKBiiCAV1tb57WxvbXsFmoDVtldMk/YBEzABEygGwh4CBMwARMwgcIJJI07UQ/ZzsWKygoJ11JljFgKmuXR5lhmBIMT5xDFc+uUmEXalkxQ4dPSbMJWSA6Wj5fNFk8o/qqUsRWkBaMeWxvTiaaX5ZrCKDgvijgsCgGY5+qIm/pcZc43gUoj0Nb7va2fk5LlYANWyV4aT8wEyp2A528CJmACJmACJlBlBHJtg+OA5mKg4Ol/yX7aOiCeLYDx+tz78IS6eF4hcbyk2E4YbzM4nlD8GylPq1PQLHh0RYlVFYlvKeTQeba1KdtiAiZgAibQFgF+ibdV7rKeJOCxTcAETMAETMAETMAETKB8CGBMmpRlusktdFmq5JU1R5ZaPFEuS3Y666v0a8sL5yKxpa8lp7AY3gxjE01mTqRJHqQX6ipIC4clR55f26RzWl6SXmItJY6ZgAlUFwGvtl0CNmC1i8gVTMAETMAETMAETMAETMAE8iDAFkI8ipJVOVQ7mZcrvYoKLpTSpr9CjE4K0hI3CqUz9NJLmkuylWXrI1f7ZD5zSfaZzWDHwfLvJxqvoDTbH3lKoqLN8mBzzJFOE3AHJmAClU3ABqzKvr5enQmYgAmYgAmYgAmYgAnkS6AY9f6bpZPNsuTlyjpQBTtKX5FiCMLAM5/iSHJLIHkz8JJDk9v7OFydM65yVG83mzNjMKrFK/4cT8TiT8XiRDm4fRpFZpRGwoHiL0cJhyZgAiZgAm0TsAGrbT4uNQETMAETMAETMIECCLiqCVQ9gRtFIHkW1pLK+5u0PWGr4epNlTAWza74ylIMTwrCM7wkdEgiHU9Ghq8oD++rXAanqE5bIdsPk0+4y2ZUo4/LeYnp4oovIp1aGsnxinCulgKLCZiACZhAewRswGqPkMtNwARMwAS6l4BHMwETMAETKGcCX2vy70mTcqIy4sYbJTOE7XlHKIdQQbO8pVh0yDlPHByvdFwig1c8jziHtW9MJKacX/VlLJ0tiodV/ND1eJ2FlcCopqBZRjfHMiOPKBnfRojxCs+yaH0Y+W5RHYsJmIAJmECeBGzAyhOUq5lAORHwXE3ABEzABEzABEyghwhwJhQGoImJ8edR+nlpdJi5os2Ct9Uopf4hjQveSZvGMvDEei2WJvoXvQyUJmVbZfSTxuUEJfDCUtCmnK1SDE4KmoWtiniXRQaoqODxKJIlvCKWx5MYN4ylP1X8R6nFBEzABEwgTwI2YGUH5VwTMAETMAETMAETMAETMIGOEXhbzU6XJoUtfXgsnakCjFybKzxMimfVoQrrpHHh/Cs8sOJ5/44nFJ9eimFsOYVs8cNQxJP+jlM6Lpw3dVY8o404/fB0wB1Uh8PkN1HI2V7J7Yp4c92rslzyQKIgvr5rVYaxT4HFBEyghwl4+DIhYANWmVwoT9METMAETMAETMAETMAEyogABimMNHhNxac9mxJ7Sq+WXiM9Rrq8NOnZ9IHyMHLhhaVos1yq2P+kccG760llcL7VDwqpw4HpiqaFPo5WLB/vK1VLy3C9XiR9XXq9lKcIKmgWPMwwwLEVsDkzEXlJabYtKsiQ35U6T1pBUlZLwePPGoIZVD6DVFn9ZOYxWRuw8oDkKiZgAiZgAiZgAiZgAibQpQQqr/N6LQlPqDMUJo1YympTPlPpilKMUQpaydbKSXpmKSvgOZXthu0AFWLUUtCucMZWPnXZZtjW9kEGoq+TiCQUj7Nca0tUdbLIBFZSf7x3rCGYQeUz2FLv94oSG7Aq6nJ6MSZgAiZgAiZQvQS8chMwgZIjgJfSvprVn6Q3SCdI25I3VIh3FlsNMWIpmVXwtFpKJWw//F5hLnlBBetJMTbla0Sj3l5qc6w023w5pJ6thfurHCOdgjYFL66k59fdbbZwYVcS4HB/PPasIZhB5TNgS3VX/jx1e982YHU7cg9oAiZgAiVLwBMzARMwARMwga4gwPY+DmPnsHWeDMj2Qs6y4pBzzsPCYLSYBubgdIxN4xRvT35TBc654qmAHI5O/DLlXSjlaYYjFGLkuk1h0oCkrDYFw9ThqsE2Qgxwpyh+shRvhmEKL5HmKxuoIlu1FKSFvm3ASqPwiwmYgAkURsAGrMJ4ubYJtEPAxSZgAiZgAiZgAiZgAjkI4JF1k8qOl+4qZSvg3go5XP1VhXg/KShI8JLiwHW8sXjy4M5qzblaLyrsrHyuDjiMni2IByrOmV2Mp2heMpNqJc+6ul9570gtJmACJmACBRIoPQNWgQtwdRMwARMwARMwARMwARMwARMoAQJzaw4zSHna4OoK75TGva946uBRyrOYgAlEBByaQAEEbMAqAJarmoAJmIAJmIAJmIAJmIAJmEAOAqOV/60UQ9V9CkdK4/KYEsXwDFM3LeKYCZiACVQLARuwquVKe50mYAImYAImYAImYALZCDjPBIpFgC2Sufp6WwV/lrZVR8UWEzABEzCBXARswMpFxvkmYAImYAImYAJ5EnA1EzABEzABERgvTcpkZXAA/MoKOcBdgaUHCWBIPEjjH2INZhAqmsHBeo8/Ja0osQGroi6nF2MCJlC2BDxxEzABEzABEzCBniDwkgblUPlIT1K6o15SkWEEgxVPL+SJi4PVHwfAf6XQ0vME3tcUuMYnKLSGYAaVy+BEvccrbsuyDVi6qpbKIOBVmIAJmIAJmIAJmIAJmECBBF5R/UNjOkrxjhqwrlVbDAIYrHh6IU9c/EZ5FhMwARMwgSIQiBuwitCduzABEzABEzABEzABEzABEzABEzABEyhxAp6eCZQdARuwyu6SecImYAImYAImYAImYAImYAI9T8AzMAETMAET6E4CNmB1J22PZQImYAImYAImYAIm0ELAMRMwARMwARMwARPIk4ANWHmCcjUTMAETMAETKEUCnpMJmIAJmIAJmIAJmIAJVAMBG7Cq4Sp7jSZgAm0RcJkJmIAJmIAJmIAJmIAJmIAJmECJE7ABq8QvUHlMz7M0ARMwARMwARMwARMwARMwARMwAROofAI9t0IbsHqOvUc2ARMwARMwARMwARMwARMwAROoNgJerwmYQIcI2IDVIWxuZAImYAImYAImYAImYAIm0FMEPK4JmIAJmED1EbABq/quuVdsAiZgAiZgAiZgAiZgAiZgAiZgAiZgAmVFwAassrpcnqwJmIAJmEDpEPBMTMAETMAETMAETMAETMAEuouADVjdRdrjmIAJtCbgHBMwARPoWQIXaPhbmnR9hXGJ8gk3jBc4bgImYAImYAImYAIm0P0EbMDqfuZFHdGdmYAJmIAJmIAJdJjAt2qJ4QodrnhcyENXUubTUosJmIAJmED5ExikJaxgDWYQypNBge/dWVS/osQGrIq6nF6MCZiACZiACZhAAQQuVN3J0rbkZBV+IbWYgAmYgAmUP4HltYRHrcEMQlUw2Ejv9YoSG7Aq6nJ6MSZgAiZgAiZgAgUQ+ER1j5S2JVe3VegyE6g+Al6xCZiACZiACfQMARuweoa7RzUBEzABEzABEygNAhdrGj9Ks8lJysTIpaCI4q5MwASqkkDd8KWXDQsu2LsqF+9Fm4AJmEARCNiAVQSI7sIETMAETKB7CXg0EygigW/U13XSpHyljIOlFhMwARMoDoGGKZtln9J5AAAQAElEQVTWTep3QBgxoldxOnQvJmACJlBdBGzAqq7r7dWaQETAoQmYgAmYQAuBfRX9WhqXG5RokFpMwARMoHgEGsIxdT+HE4rXoXsyARMwgeohYANWh6+1G5qACZiACZiACVQIgfFax2XSSL5T5DipxQRMwAS6gsC+dcOXPD2stFJdV3TuPk3ABLqCgPssBQI2YJXCVfAcTMAETMAETMAEeprAeZrAb1LkbL2wtVCBxQRMwASKS6B3L3YQpvau+3zswVV1JlZxMXa0twlq+Lk1mEGoCga/6r1eUWIDVkVdTi/GBEzABEzABEyggwQ+VbtjpcjlvFhNoNQIeD6VQWCfbTZrXEhDGFU3sd+oxoRfu4nAIxpnPmswg1AVDK7We72ixAasirqcXowJmIAJmIAJmEAbBNorukoVDpR+IrWYgAmYQJcQmGvIbOG6044OA/r1pf8D64aPPEMR35cJQjfIFI2Bt601BDOofAaT9H6vKPEvyoq6nF6MCZiACXQ1AfdvAhVN4DOt7mSpxQRMwAS6lMA8w4aEK086Isww7UCN07CXjFhHhOHD+yhhMQETMAETyEHABqwcYJxtAl1GwB2bgAmYgAmYgAmYgAlUPYGhg2cJFx1zUBOHhiPrUgMPa0o4MAETMAETyEKgLA1YWdbhLBMwARMwARMwARMwARMwARMoKwJzzDpzuPa0o0OvuroQGsJhdXOPOLOsFuDJmkA3EPAQJhARsAErIuHQBEzABEzABEzABEzABEzABLqZwLzDhoQbzjgmzDjtoBBSYc+64SOPK/J2wuB/JmACJlAJBGzAqoSr6DWYgAmYgAmYgAmYgAl0IQF3bQJdS2CO2WYOF4w6MPTp3UsDNRxSFwYdHMLGtUpYTMAETMAEmgjYgNUEwoEJmIAJmIAJmEAXEnDXJmACJmACbRIYKiPWZSdEx2A1HFk39wentdnAhSZgAiZQZQRswKqyC+7lmoAJlC8Bz9wETMAETMAETKCyCbCd8OZzjm98OiHbCeceeXJYcMHelb1qr84ETMAE8iNgA1Z+nFyrMgh4FSZgAiZgAiZgAiZgAiZQ0gSGzjZLuODoA8PUA/qHkGrYv25iv4PCiBHsLQz+ZwImYALVTKBAA1Y1o/LaTcAETMAETMAETMAETMAETKDrCQwbPEu46JiDooGOrvu54aQo4dAEuo+ARzKB0iJgA1ZpXQ/PxgRMwARMwARMwARMwAR6jECv4SM+shaRQYxnSIWNCrmw8wydPdx45rFh2oFTq1lq77rhI0+3J5ZQWEzABKqWgA1YVXvpvXATMAETMAETMAETKH0CnmH3EmgIYSg6dPCsQ63FZTBs8KyDpaFXXV3eF3WuIbOFi485OEw7DUashr3rfgkH+UysvPG5ogmYQIURsAGrwi6ol2MCJmACJtBlBBZSzze1oTwtqhQfea4pW0ygqgjsrNW29bMaPeZN1Sy5CFx3+tHB2jUMFppnzlzYs+YPGzxLuGDUgY1lDWFU3aT+xzYm/GoCJmAC1UXABqzqut5erQmYQIcIuJEJpAlwgO6GikW6iOJxXUppG7AEwWICPUzgG40f/9kkvpzyop/dkYpb2iGAl5C1Lu0tVWwOtTWF34LNPWS2cP3poxoPdm9o2L9u7hFnhrCx/+a08z4uQvF66uM/0is7qFeo3aHS6aX5yJKqxBdiHR2PdrSnH3XVrsyoGodImSdtO6IXqP260nxkgCrtIL1E2pGxaHO52v5TOlBqqTIChf/2rDJAXm6RCLgbEzABE6gsAi9oOfMldAWlJ0otJmACPUvgFg2f/Pn8u/IsJlDWBIYPnT1cfuJhYYZpdd+eCnvWDf/w8DB8eJ+yXlRpT/4ETY/fJ9sq5HdIR/QfanusdLR0dmlbsqwKH5PuI+3IWFEb2j+lPlaVtiXDVPiy9Dgp84zaFxrupPZwwlDXln2BvbP/Vt2LpNtJCx0nqr+V2p4nvVra1ngqtvQYgS4a2Be8i8C6WxMwARMwARMwARMwARMwARMoJoGhs80SLoy2E4aGI+vCwCOL2b/7aiYwk2IYglIKiyFD1QkGHgVZZVrl3i7FQ0lBCJ18wbCJV1Vb/e2oMWaTFkOwK/BeXLCNzjZTGUYoBUWRtdXLNlJLFRHgjVZFy/VSTcAETMAETMAETMAETMAEqoBAxS4RI9a1px0d+vbuzRoPrpt7xFlErEUlsKl64+gABUWThdvoaRaVDZQWU2ZWZ/NKc8lGuQo6mI+HVVtbtFfrYL9tNfOZhm3RqcAyG7Aq8KJ6SSZgAiZgAiZgAibQeQLuwQRMoFQJzDtsSLhGRqwZpxsUQirsUTfPksd6O2Eo5r/xxeysqa9JTWG2YEq2zE7m1av9ZGkuGZeroBP5bXH7vRP95mra1ni52ji/jAnYgFXGF89TNwETMAETKHECrafH392+yp5KOo+ULQP9FPKtpYIuFcZgrOk0CucDTaOQuTAnRbtM2H7Bt9j9NQJbFXj8FnG2N1CmbEsbBGCEmwXM5lC9IVLi5FGmZJcJ1433DJ4Bc2sUtqJw3brjPcP6GI9tN4M1dnetWUNZTKA8CAydbeb0dkIOmQ8NqUPrGgayRa2rfz7LA07nZ8nB7b91vpuMHp7OSGUmvlDyY2kxZYw6e12aSzgMPVdZR/IxJnFGaK6216sAo5qCokiDetlFaqkiAv4FV0UX20s1gXIk4DmbQIUQ4O8tZz88qfV8Jv1Z+q70e+nXUj7wHaSwKwQjFU8Y4gDZrzTAd9K3pT9IP5Vy0OsGCrtCMJJxYOsb6py1fq7wAynrf1/hHdJFpZbsBNj+cZ2KuF4/KuTm5hOFxN9ReIN0uLTYgoGVLUmvqmOuGzdW3Aj9pPSH0nukbW0TUXGHBYMVhwHz88F79CP1xM8McThwaC8HDyvbYgImMMesM4crTjq8EUQqHF4394gzGhN+7SQBDC0YR4rlpcTvtVPbmNOvKltDyt9IBZ0W/lbw5FWMPLk644ysu3IVFpjP3wcOgm9r/g+rT4ysbc1JVfIWnrb4eN61XbEiCPCBuiIW4kXkJOACEzABEzCBniWA98h/NQVuvP+gEA+obxS+JeXGHGPBYorztCMMPcU06IxQvxiojlNIv4zFh9o3lcYgMIPCZaQ3S2+UMjcFnRY8g/jgjLGDpxPhbYYHGEYrjBDcEMBlLY2EYW2UQjxsFFhEAH7cOGGw2kRpvNa4mXpPcQw7bEPBiMP5JS8pbzcpHksKOiWM+xf1gHFsD4XzS/HC4jryfuUGa1blrS59XsrNGO8pRTstfCbdW72wvvUUYshi6wtp1s32GjhsrjLWvINC5qbAYgLVTWDeYUPCreeeGGactmk74dxLnuTthEV5T/B3exH1dLT03A7q6Wq3vpQztfjyQdGcwt/IJVW6q7Sj49GOvx8cps7vbXWVU/gcsK5K+Z3LPGnbEcWCypcafJZoyzhF2Ukabwnp8dKOjEUbDFc8sfEA9WFpTaCic/iwUNEL9OJMwARMwARMoAcJsAUKbxU+vPI3Fy+WlTUfttLx4ZItYfMrjWcWBgrynlGaPAWdEm72H1QPfFCk72cVX0CK4WMhhTxhaU2F30r5UIkx5DXFdQek184JTwW6SV1gEOPMi6sUn1aKtxBzYIzdlf5FimGLD7/nKQ4jBVUv3CydLwps18PYh6EIfhzGy/bPGVV2lJQyDEjnKL6/FAOUgg4LNzF8G8/7c6J6uVUabR/kvckctlce37QrCPvqhRu8zl435o3XCDdQGOLYtgMD3j+sl3XjjXaixmOLCu+fCxXHOEpbRS0mUN0Ehsw6U7hg1AFhQL++IaRSB9SFQQeFlVbi92vwv0IJZNTHo4jft/zN6ojuq97+J+WLBwXtCh7KeC53ZKyozQUahd+jCtoVvhy4TbWYZ9S+0PBYtcf4pqBd4fPGK6qFJ1ah40T191N7PivRl6KWaiLQ2Q8c1cTKazUBEzABEzCBQghwY32tGvDUIQxIfMBbSulHpfEPXXiY8GQePEpUFDhziHMiiHdUMXBw1gZPNOJDLG79f1JnjKWgWe5VDKMS32gqGvCu4YMz8Y4qBiq2n9Ge7WerK7KVFO8dBWlh/YyJVxhbCshkjgcSqXLlW2yMUWDAAyv6lnkCGU2KEQcDDx52eLCRzQ1WZx5PzvvgUjqS4iXwV4V40XENFW0WzoXhPX13Uw71+Ca9KdmhYFW1wmNAQcALkXWxPoyf5KG8fw5WZGkpZ7rw84XRC6ObsiwlRcCT6RECPJ3wkuPYMc7wDUfVfToW4zcJqwmYgAlUBAEbsCriMnoRJmACJmACJUgA4wzGG6aGoegYRSLPFUUzBOMExgPc4THu0LYzxpzt1DseKwoCho1rQgi5vv3FC4rtYpynhFGAbQ5/Vv2OCFu68ByaWo3xDqIfzqdgTcpqJRho1lEu33DXKtxHyrZGBVUpcOOb+r5aPdtMl1PIOVS5+LEdky2GGHrwtIgMX2pWkHDd2daBZxPvk43V+n4phlcFrYSzzNZWLt+i81lyL8WHSTsieHVdqYZ4XtEvxly2MOZaM8YrthGyvZD3Gz8zam4xAROAwDxDZw83nXVcmH7QNCGkwp51w0ecFhZckJ+v4H8mYAImUO4E+NBR7mvw/E3ABEzABEwgSaCn0xgE8DDqq4l8KeWQdLZkKdqmnKLS56QIX6Nj0CBeiPK3PfLm4qygM/NsfJjqYQhREPCGIixUp1cDvGcUBAxijE+8LcVDDAMaBokZVHFFabUKZ5+wfY/148XG4enE21KMfzurwhQpZ7WwZVTRggTj10pNLfCsirzimrKyBhiYMDhi8GKrI4cPZ63YTibXm22KVOOsNh40QLwtxYiF0QwDGx5qrLut+i4zgaoiMOfss4aLjjkoDJp6Kta9T93EvgfbiAUKqwmYQLkT4ENuua/B8zcBE+gSAu7UBEygEwQ4X2r5pvYc4B4Zhpqy2gzwYKICWwk5yJp4Ibq4Ks8t5eZ+N4UYhhS0KxyUfVFTLTx/mqIFBauoNndMeJT9n+IYORS0K3eqBofNKwiccUFYjcr5aKwbox6H1BLPRy9XJc5XUxA4V4SwEGULH+dNYWTdQg157yhoVx5SDTy1FATOPQsd+BcZztgieEkB7fFYxGOLJhhACa0mYAJNBNhOuPrySzelUkf1Hd+HLeJNaQcmYAImUJ4EbMDqyuvmvk3ABEzABKqVAMYAvLBYP1voCPNVDn2nLl4x0xApUDn0mrHZwsdTDgtpjlGA+h290cF4Rnu2ljE+8XyVM7uoy/ZJwmpUntbIuvGAKsToSZvIgMUZWqQLUc5moz5GTIxnxPNVHhRAXc4+IyxUedgAbTg8HgMa8XwUI2nkoRa97/Jp5zomUPEE6usbwllX3hhuvAcbc/g5FVJLTvjwJbZsV/zavUAT6FECHrzLCdiA1eWIPYAJmIAJmEAVEsD4FC27UEMOZx/huZRSBzzFUEFBgucWDegjX+8r6qOfnfOe2gAAEABJREFU6oV29MG2MCULkv5NtTEuNEXzDjg4nMqciRTnR161aMQcb6RC1xwZntjGWejnu+h9VqjRjDnyFEtCHhjQi0iB2rup/timMN+gXhU5zF5BiBuMSVtNoGoJTJo8OVx2613hilvvhsE3NamGZSeNeSGf7dzU73H1BEzABEygLQKFfsBpqy+XmYAJmIAJmIAJNBKY1BikXyOjTjqRxwtPEMR4xQ16ZwwZ9MHB6HkM2VxldsVoh9Htd8ULlWi+nP1VaFsMV7ThqXeFGt5oVwkaGWQig1Iha4raYADlvVNI28h4FBmTCmnLuWXUxwAZf9+Tl49Gxk62nuZTP6rDZ1gMraQxomF4JV7t6vVXOYFLbrojnHc1O9dDqAk1q0x878W3qhyJl28CJlBBBPjjX0HL8VJMwARMwARMoCQIcEMdTSQ64ydKtxeu11QBI87PTfFCgteaKmM4G94Uzzf4Z1NFPLGaogUFzzTVXkxhZJBSNC/5U1Ot55vCHgp6dNg3mkbnLKxCD/Bn6yjNn+SlQH2sqT5bGPHgakrmFfylqRbbRpuiBQVsW6TBWnqJjHCKtisYSTG4UjF68AFxqwlULYEzL78hXHTjbax/QiqEERPHPB/9TiHPagImYAJlT8AGrLK/hF6ACZiACZQYAU8HAngRPUBEur6UQ90VtCv8Xd61qdYvCj+RFipvqgHfuNPXqYrnawhZUHW3kyLRgerEC1GMJ8wb4wJP0avNs/HfVI+nyeFFc4Hi1SrReWl4I+2bJwTdpwaeQhgd3M81z7NpczWuN0ZXtjByDlq+nlhrqofVpMhVvHRAH21qw/t0p6Z4ewFrxtjKExt5+uK/22vgchOoZAJsG7zoxtvDlbelj1D8uqYmLDFpzOgXK3nNXpsJmEB1EuDDbXWu3Ks2gRIm4KmZgAlUBIF/aBVsqZpV4X3SfM51Olr1lpAiR+ol2pKnaEES3dAvqVZ7SdsTDAInqVL0ueAyxTsiGO5ebWq4mcL5pe0JxhqMXcyB7W+RN1B77SqxHO8ztuKxtv30wrlSCtoUvKbOUw34cc5NxF9ZeQtGoMh4trZa5fMUSsY7Q3UJ2QbIe1zJgoVD4CNPQ97/+Ty4gJ+RUzQSYz+hEKOtAosJVB8BrP6X33p3+Pd1t7D4+tra1IoT3x39NgmrCZiACVQageiDaqWty+sxARMwARMwgZ4m8LUmcLMUWUQveKhw2LSirQTj1ijlHiJF2BIVGaFIF6pXqsGHUmR/vRwjzXXANt4216kcw4WCgDEkMmaQLkTrVXkrKYYsxsM4sbHSuWQhFTwiZSsY92Gs/welq1UmauF/lHIgO9vpXlY82lqpaCtZQTn/k+LpBj+Mnkp2SDB0YkDks+GN6mFbaS7hyYF427FtkXEPUMVCn3ipJmnB+MU2REK8sHjvj0iXZH/5s7JvkCK83zB6EbeaQFUSOOuKG8L516aNVyHV0LD07++88E5VgvCiq52A118lBPiQUiVL9TJNwARMwARMoFsJcGO/g0bEo4i/t5sqzk0/IWdTcdbQUOVhOLpf4eFS6mF4YisfN+fK6pDgxcM5ShgVMAocql7ukHLO0BCFGNLmVYixifE2URxvFuZ3mOLMXUGHhP7Y3sWB5DOrB4xjFyrEEIM3God+Y9BjixzeM5Gx4kzV+Y+02gVvoiMEgUP0hyl8WHqydBkpPNmOOlJx3i93KYy83DBU3ql0R4Vzz7ZWYw7w5xpdrPgVUs5wm00heRgcd1f8BSlbPnnPcM3OUboz75ln1f5EKQY8jGKkMegupTzWy7pZP3kY7NguidcY223ho2oWE6guAmwbxHB15f8atw3W1qbmn/T+i6M7TsEtTcAETKD0CfBBufRn6RmagAmYgAmYQHkSYAsg5wQ9pOlzKDvGBgw6HFz9nfI+kmJYwkiAweoLpfHAKcbBux+rLw5Tj/rCcwUDxyfKx0OKb+kvVxzjxCSFPLaKsX9SvLOChwzeQawRI8eO6hBDHuvjrCW2uXFW0yDlY+jC+LKP4pZGAqcrYAsq7x+8q+DDAflfKR/PPrYaYszBS4snCGIUPU1lnRXuhBdXJ1wnrhtzwED0ufK4bq8rPFuKARQDG559GGmV1SnhvY8nFYZPvM9YMwY6vLFYL+tm/eRxvhrnrG2gETGMKigR8TRMoJsI1NfXh6tuuzdcfNPtjDiuJtWwsj2vQGE1AROodAI2YFX6Ffb6TMAETMAEeprAeE1gDSnGIR4Plc1TBY+TDVUHzxKMB4oWRdiOh6cMB8lj9Eh2iscLHi0rqmBzaTEFLx08dvZWp3hlKcgQDC947iyqXAw2QaGlhcBNii4gPUr6pTQpeNlhQFpYBRgMFRRFMK5yTXZRb+9Kk4KB6SJlYhzF6KRo0QRvLt4zeGNhMEt2jOEVD0EeOJC+c09WcNoEqoHAOVfdFM69mu8cQpCl+U8T33uRB3cE/zMBEzCBSidgA1alX2GvzwRMoJoIeK2lSwDvK4xU62mKbB1kCxgeURiX5lDeH6S3SjkHSEGbwgHbnFXEDT4hW7vaaoChCMPZ0qrE9kHGxKDGHPC+wrj1tMrwwlLQpmBoYlyUsfGGaasBdTignYPG2RqGoYyn1mEgYVvYHmo8RooHjoKcsq5KGBOlTzyPlJW3MDZtI31fLbkOCpqF+dB3VAdvI90bNpdHEYw6UR08g/L9LAWDeP8YYaI+s4UYOtkCipGIrYQYdtgWuooqE59RIVsN8ahTtE05WKXRnJlDP6XbEgxFeDdhQGPebP9cXQ3wzoITTwvEg49tfMrOKXhS8SS0+Nic95arAWvGc5D58l7FOMd6WTdzYc3HqTEeYQosJlBdBCZPmRIwXl3RuG3w25qG1CJ+2mB1vQe8WhOodgL5fuiqdk5ef9UQ8EJNwARMoMsJ4DnDOSWce8W2KM4eKmRQjD3cyGO4ImRbYr7tMYgwJk+MYw4YKvJtSz0MR4yLMjYGMPLbUwwdGH7YRsjB7q+pAZ5pCvISPq8wJsq4GKTyathUiQPlaRspxiuMK03F6YA69B3VIUwXJF44k4kyFGNONiNXokk6iYEw3n8ha8BTjrOxOPCeLX3EYZruOI8XDI3MF2UOnL2WR7PAew0DI2eVPaAGr0jxwFKQl9CeMSNl7HyerEjnbFFk+yvrZd08VQ0DF2VWE6g6AhivrvzfveGyWzj6LvxYk2pYceL7L2BorzoWXrAJmED1EuADYXFX795MwARMwARMwAS6kgA39vEb+UIMWJ2dFwd8x/sYHE90YTzpmVaI8acLp1VQ1xih4kYntosW1EEnKieNhfkasP6fvfMAkKOq//h7M1uupdJ7R3oLvUcEUi4NMEAaBJCoKIh/bNgCoqAiCigKopBGOSC9AhKlIx0BBSIdpKVf2TYz/+93kj32LldzJbt73+T99vU3731mdm/nu++96cAhw6q8TrmPVxhZ/9JWAWt9cXmbisAry94ysq5hsDHnlBu2/34GVxYbY63zRS0bNPonAiLQAwlIwOqBJ11DFgEREAER6C4CXXIczhTKbZgzU3LjXRmON2q8u5ZyNR4zl6816kreR7l0Lvd7F5cxdlenY40OxGV6jZK6JMrZaZz9ldv46tyIwvlLYML3fmZkXcPg2Vfa/hHm+b65fuo99TOvrOMelH7j6Rfy98pRz0SgzQQ4q/t8lP4l7BJYBaw1x7+jXNbO5eQ/QeH2/KDF5fPcyuEXqMdjttUuR/m2zjhHUcMfasYgwP0cWzsG+8I9SHujvFwbCPACaEMxFREBERCBTURAhxUBEWhMYBskUBiAZzgbi5ulM9wdxi9l2eNwg/g3s5Eu9rlsL3sIzgLjvkrZeFt87gP2GApmjcsoyQ5J9Y7tZvPps0x9Zk6Ay+mYT/sH0jnLCF6rjrPVsuctjdLtHQOqbLTrl1OTAlJ3iZ4UznIFrA/Rj/YuW0UVue4kEJjg97KuYYDzyPcAvLa5dCZjpsxeZKbOWcQKnzo2OCb9+j+5lJdxmQgUMgEKQtxK4VYM4ruw38H44wr3XUSwSce/KRSEuB0BRSXuEcktCcahdPbvK4IbOP4IxifXckk89xvlPos8ZluNYhn3m+TepRs0npPAH/mye0TOQPr3YK0dg325A+X4ABWKeS2NA8XkJGD1gGtAQxQBERABESgqAoNyRvM2wtwgHl63uNwvltwYvlsOioOcCMs67v+UDbfV55diPgUya2RIISe3PgW5bD59bm7flDhViUrMp7Ff3OcJSa2603JKfIbwKlh3OW6anz0W9yDLhrvap3BWlnMQbuifE1UwHwl4y577pqxrGJjA3NOec/7nqrnmD+ufNugEVssG2wNPZfOdAAUrPlQmt5/9EeGeh/CadF9G6rdhuY7i1G1IyP1+gmgD93+I3QujaAZvoxz3zbwLNfngHXhNOs4I+xNyuD8mvHY5/lDHh6ese7xou6puWLiYUyRgFfPZ1dhEQAREQASKjQBn8ZyzflDcT+nHCHeXgHUgjsWn0MEzPCZ/BWW4q437NZ2x/iAc8+T14ULy+MX06+s7TMGLvxw3FtDWZ3e6x6cdUmxjwzxvXK7AcHcYnx6YXRbBWV8SsLqDuo5R8ASCIDC/m1Jl/nLffI6lxhp7iDZsJ4puMx2oawlQg+B3iqaOQpGJM6uayhuMRNaF18Bxif7pDVI+j5yAIIWlpuohq12OP8oc3UyNiUjn33YLf2Md+8iZYsM2toGeUI+QesI4NUYREAEREAERKHQCnDp/LQbBPRzgmSvx0q5f81F+Yx2XLfJOir90cjneUDREQQJelzpOx/8DjpBdhvYdhBfACsmRGb+MZ2ci/Radvx3WHY5ftu/GgXjtcCN37snBp08iqcsdb07+jKPwy/yH8Hnsxss2kSxXnAQ0qo0lwGWDFK6mzV3MJj52bHBYetkzzzMi26QE+Ld3AHrA5Wr8TP8ZwpvKrsKxJ8AOg2X/tiBYMI5/F1rqN3/w2bWJ0XDPrCaSw6Tm9s/ijC2eu7BQJ7zwb3rjZqipsM+N0zc2TiFsY+sWfT3CLvpBaoAiIAIiIAIiUAQEvoIxnAXjsrZL4VPAgtctjl/St8eROIOHS+HuR7g7HDd1pVjGWUvcG4LiT3cctzOPwc1Zv4oGed44e+wyhFt3nVOCvzrvh6Y4c43XTncJnjik4Wwr3mxwv68vIUE34IAgJwKtEbht5kLDJw6ynOvaE/S0QZLY5MYfcbjX0tPoyTQYP1t/BH9T2Q9x7Cmwp2D/huUuE0e04N3mGAH3kOKyPQQ75LjUv0MN5FTmjzBN7TvKWWN75pTraPBINLADTK4JAhKwmoCiJBEQAREQgcInUIQj4L4KV2NcfILODfC703GT0Vk4IH/tfRB+d7nrcCDuk8FlA39FuBAdv4RzqedodJ4bwcLrNsebrOk42jGw7tyzDIcz38ALN6bdBT5vsODJiYAItETgt1PuNjffzT2mjWeNGZB87Zm2P66wpYaV1ykBStMAABAASURBVBECZ6Iy91HcDT5OC17zx7E/3JOJDxcZnz/d6pSeHIpWstsHILhRjrO3e21UzQ0r8Uco/qjW1N+zvije3AwwZG2U4/L/japY7JUkYBX7Gdb4RGDjCaimCIhA8wQ2QxYFnVyjwMR9GJDVJc5Dq5xWPg8+ZyTB6zb3KY7EmVcvwO9OxxlfnG3WXTO+umJsPG9c7sENZDmerjhGc21yuSdvavgrfXNluir9ZTQ8FvYBrLsdRd7c9ybD3bVnW3ePVccrAgJcNvinu2ab6XOXcDQfua7dN73s2e58UimPK9uQwCFIuhnW1LIxJOeNo0jDH3z4g0HedKqDHeH3qZvQRkdmIlHAQhNNOn6P4jrdmchtzbi5+hCUow9vA8eZYi3pKs21/9EGLX2ewKX3n8cUqifQEuj6QgpsLAHVEwEREAERKCICFCK4DxTtFYyLX65yjcul9HcVYOREYBMT+B+On/veZJg3Cnzv0l5CvpwI5AUB3w/M1DmLzZ/v4SRJm3AcM1Azr/Li1LATnPXch4ECMC674x6H/LwrgO62qYt8KiFn87apcDsL8Tsdl/dz8/fWbBLaptjFWVgItuSazGuufe4T2VSFfyCRS1bhyTUmoC/ajYkoLgIiIAIiIAJNE+CXCT4ZpjnjTJdU01WVKgIi0I0E/oljNfc+ZTqXVqKInAhsegI3TLvH3HTHzLAj1gTHpF5/tjsekBEeLy9f8qdTW6Arx8IKyXEpGx+gUUh9bq2v30KBSlgxul9jUNwmgbPBEAzdq3g9FybXDAEJWM2AUbIIiIAIiIAIiIAIiIAIFBoB9bcwCGQynrlx+r1m3dMG7ceOiWjZoMmrf6eiNy0tQUN23jnuibVX3vWqYx2KoTofWkMfwU513LeqN1psybg8EEW6xHGZP5+SyP1Fv4YjcJkiH7zyNsJyzRCQgNUMGCWLgAiIgAiIgAj0SAIatAiIgAh0KYGM55mpcxeb22ct5HFWO9YfmFr2FGdeMC7LDwI7oRvN3StXI28BjCewu20RjlsHa871ay6jgNMPRt8nwnJnKiHaIcelltx0jkvKWzI+uIYCU4cO1kJlLkvkfnfcR5XnlvEWiiuruTelyIiACIiACIjARhJQNREQAREQAREQgeYI/OGO+8wfZtwXZlvrnJh647mmnmwW5utlkxFoaebNe+gVl7VtChuOY38Ea84V6/09N3SnkNXcuNubztlq26EShcqW7ESUWQortOWk6HJxumK9wIvzbGlUPYeARioCIiACIiACIiACIlCUBF554y2Oa7njmwPSbzzd3U935bFlnUOAs2W62zqn54XXCnWLTfWURT6k53Yg64pljGhWrj0EeCG0p3zBlFVHRUAEREAEREAEREAEREAERCAPCXzm2OC41JvP8uEgedg9dUkECo9AF/d4B7TfHya3iQlIwNrEJ0CHFwEREAEREAEREAEREAER6DkEHN98MQ+XDfacE6CRikD7CXCmXW37q6lGZxOQgNXZRNWeCIiACIiACIiACIhADySgIYtAqwTWWOscrJlXrXJSgZ5NgJvk5xuBm9GhfOwXutWznASsnnW+NVoREAEREAERyF8C6pkIiIAIFDGBzH+f/Yn2vCriE6yhdRYBikVeZzXWQjucVdWapVC/CvYtWGc+BRHNyW0MAQlYG0NNdURABEQgTwmoWyIgAiIgAiIgAiIgAiJQwAQWoe8LYV3pMmj8G7Azm7GzkD4Ktj3sbBiFLnhym5qABKxNfQZ0/HwjoP6IgAiIgAiIgAiIgAiIgAiIgAhsGgIUi76OQ6+GdZXjMeaj8XuaMc66moO8T2FdOfNqb7S/GPYq7HHYxTBpNIDQnOsCOM0dSukiIAIiIAIiIAIiIAIiIAIiIAIiIALFQ6BLRvI+Wv0hjDOl4HWJs13SatsbPRZFX4adCqOQdRT862EU7+DJNUVAAlZTVJQmAiIgAiIgAt1LgH+Pd8Qhr4YthX0M+yfsJtgBMBdWzO5BDI5fUmm/Rbgr3RZo/NJm7BKkc6nA0fBLYU1xL0F6bn1+4USSXBMEIki7EJblNRhhOREQgcYEFBcBEWiKwB+Q+BSs0F0ZBtCUfQfp/P4Hr4G7EbE4TK4JAk0Ba6KYkkRABERABERABLqIAEWS2Wj737Dvw06EbQk7DPY12NOwR2HbwIrVURQiB1pXf2nbBRCva8Z+h/Q7YI/BuGzgefgDYbmuHyK59U9HvJgdr7tDN3KAPJc/Q90sr4sQ7hKnRkVABERABIqSwLcLYFRcjthSN2uQ2ZQNR3pzjt8Fm8vr0ekSsHr06dfgRUAEREAENjGBchx/AWwYjL/OwTP8kvMOAmtgdDG8HAn7G4yztOB1ulODGxLgudkfydwj4xD4Pc2NwIBfg3EZB0UoBOVEQAREQAREoFsJcDY6lxK2JhJ1a6caHawW8SSsM93yzmysmNqSgFVMZ1NjEQER2IQEdGgR2CgCB6PWKTA6fjmjmMUn3uyMhM1gd8KYDs9wfwRu7smwrPMIfBFNcVkhbXeE+YvoM/CzjsLiT7IR+NzM9RP4WVuLcDG6XTGoPWEd+a7Ia5cz2bKsVqI9OREQAREQARFoD4FbUXgVLF/dR+gYt36A1ykugVaehck1QaAjX0qaaE5JItABAqoqAiIgAj2PAKeIZzcRfQPD56yX7Jc07gd1DtIWwbLuPAQ4IwueXCcR4K+cn6Et2n/hz4MdD3sYlnXbZQPw+SWVyxCz9nOkyTVNgL9KcylsltX5TRdTqgiIgAiIQA8j4LUw3nSjPP4IcnKjtLZEKQQ1V47H5w9SzeW3J70ahR+CdZb7FRriD0DwitxtxPAkYG0ENFURAREQAREQgU4isG9OO7zZ5xeqnCTDL3H85ZEbu1MoGYtMClvwGrj+iA2CnQvjvllnwf8CrLm/85xptA/yadx/CkHDvY7OQIAiGQUcBOsdy3ADbuYNRSr3gYLXwDGN7dG2XZ/DWTzcFJ3CBZ+yw9lM67Pa7XFD8INQazSM7bE/PCaine7q0GLuxrGN+82lnJwlR+Nm7yi+gSN7jp/nZSJy2W+ek6xgiaQGbmvEyI7G2XeIGh63EoHseHkeEK13fIIRz/lpSGGf4DXr2Bb3shqDEqzDmwEuk0S0gWM59iF7DpnZGy9Mo/E6QTR0nBXItL0Q47i4hxn7xLEiKXRsh5xoFWHKhi88JvvGa2U8so+D9YHJiYAIiIAItECgQLMoHP2vmb6nkM4n88Fr4DgjaUaDlIaRFxpGwxgFLC6DDyONXt5GfAWss9xVaOg/sI46/pj2l442Usz1+eWqmMensYmACIiACIhAPhPgjJ9s/ygq0SgEZNPoz8ILl7n9CD5nY/GLH4Khi+KVgtWb8Jl3G3w+uZBLD/lF6m7Es2IIgvXuSYReWW8nwKdowDbuQZhfnP4BfzGMgsmB8F+HLYQxj3tCvYswn44Ir95RXMu2eQNSKZKwD9wUnSIc2+MXUIoeyG6zIw8eaxlqcFN1jontsT/sM0U3CifI7jTHzcc5cyjbIMebDfNY3HA/O9amNnGnoMiNy3l+eV7+isrsd5ZHU+fkFyiTbfMbCPO88FdnzgjLjpfjp9DFGWFk+QjK8ZzfB5/7VXEvNQQbOPKjqERWfCAAbwBY536UIlMKWQjWu5MQYj8ug591fCoj02jXZBPhM07jksvNEb8dxj7dDJ+Ox/47AixD+ybCuY7fQylWkS/7xmtlKgpw9hvLU/RkGSTJiUCXEFCjIiAC3U+As4v4d6jxvlH8Ee9b6E5zy825nP8D5Oc6tsUfnPgwnNz0bPiPCDT+4Y8/Dl6NdO45Cq9THP/ecwuC99Ba7vc0RNvkWIcz8fljD/8mtqlSTyykLwU98axrzCIgAiIgAvlCgEIRv3yxP5ydQoGCM636MqENdinK8DHTzc1WobiTFRNQtEnH2VoUpihW5Rbg3lwUx7h5/A65GQizrxTJKFAguoEbghS2SYENwXrHmToUdOoT2hDgjK8nUG4nWGNHTnchkf2E1ymOT4CkSMflndkG+UjrbLgtPsWhS5opSN58qiRnNTVTxFDUoUDXeIYU+f0alcij8cbyPH8Uuhp/t7sA5R+EbQVr7CiGUSDjl+7GeW2Mh8V4HfwZoXEwuuZ+WWderl2IyAOwpgQ9inTsG2faoYicCIiACIhAERHg3yv+6MIfyDgs/t3gD19MZ7wp4w8x/HGHP9pQlOIMK/5gxu8JFKWaqsO/mfyRjsv/mU+RaBQC/DEHXqc6ts0f3L6CVl+EtcXxOyC/+7EOZyJ3pqjWluMXXJnGX3IKbgDqsAiIgAiIgAgUMIEnjTGcaZIdAoWhHyDCXxg5c+VKhBsLFUgKHTd756+RFA+YMBMvXLJGUeI7CGcdxQluUJ6NN/b5hZFpFJwonnEvB8bZLmcRUVygiMV+/YsZ641Lx5rrG5fVcUkk+8Evin9CHX5Jg2coRH2fgTYY+0AGXGLG4hTj+GRAtsFZSjwGZ0Rxv4jdWGAjjBvn8ws0v3hyw3Fuxvql9e3wV+AJCFNMgtcmx5lUA9aX5Jdr1udsLvpr1qdzKSHFm/XRDTzOguIssHuR81MYrwd4oaNIREGRX455/peEqeteKL7lCj4U+K5AFtvil3s+TZAiGGf6XY50LtVg3nSEs9cIZ0JxmSHTkBw6nnem0SiYhok5LxTPOFuKSVyuMYeBVox7ufE64PFZlOeB4z4GEQq78AwFUN6oNCW+MV8mAiIgApuCAP828fOJn2PdbTzuphhzZx+TM474AwZnZfM7A/+u8e8O/1a1dCzOdPoyCvB7AX8I4g953MsSSU06Cl38oYs/ivDvDf8G8u8NZ3s1WaGDidzHlLOu+f2I54rf61oyXj8Urlgn+x2hg10o7uoSsIr7/Gp0ItAjCGiQIlDABPgEO4odnJVEMSE7FH4x46+MP0YCl4rxyxaX8iFa73hTz5k4byGF+zhw2j3D/JWRywizghG/QHHvKBRr1nH5H2fqcJkij5VbcBoiFHS4dIybyiNa75oTjfiFkfs2XYuSnNbPpydSJEI0dBSlmps1FhZY//J1+HxSIzzDX2f5RZV7Y3B6PYUUfuFjHr/88tdLhttrFAL3QCWKOlwGxxsTRMPjcbztEa+4WXl26R35kyv5cYkdfQptbJvH4PIFio2MN2UUD/klnaxouWW418dRSKAgxT6SN6Kh4xfhMIAX9iW7ZxWvFYpZXGrIGwAen3uroZjphZes8EUBj7PrnkNa1lFAYxrtn9nEHJ/fJyli8Xxw+QPFzpzsJoM/RCqFSHiGX/gppHIT3MeNMXyYAd8bCIYiVvYaYFwmAiIgAt1BoCUhhZ9dXOpMsb27jZ+T2c/1pjh0lTDT1LE6I41CFn/saU+/+feV54fGcFv6wfb5PYvHa0v5jpbhcfi3mTOqWjKWYdmOHq/H1OcXjh4zWA20WQLKEAEREAER2HQE+IWK0+gpZPHmvamecEkeZ8ZwSWB9kNpWAAAQAElEQVQ2n8IWl/nx10tu4M19F5jHX/MopGRnUjEtO7uG4cZGYYWzXLLp3EsiG+Zm5hSfsnEKJ/zCmI1THMuGc32KHFU5CaxDQSubxFlTLfUpW46zt7Jhzmxif7Jx+pwZRp9GfvTbax+iAkUdCmwUUhANHW8Q5iJEwewL8NviKEhxbCxLwY37lzGctd8gkN3zg5vS74d4U46z73JFIApO2XK8XrhcIsuCgiW//Gfz+QtzNkwhKBum4Mcv8Nk4fd4I0adx9hP9jTWeC84qa3yM5trL3TuMAi43rs2WXY0AZ9vx2uOv5lwCiSQ5ERABEeg2AtwjsDlhgT+aHImebCrjDwY4fJOOM4mbzFCiCOQQKNigBKyCPXXquAiIgAiIQBER4E0/hRIun+IMFt7cU1jiErnsMCkWcRYUBapsGmfyUMTitHuKMJyJRWGDbXFWTbZcSz6FsNwv6RRIsuW5hC5X1OEvnfy1MJvfnM8+NM6jqMVxMp39bm0GFsebK/BwuRw3Qc81ijJsj0YRj357jTOPuKSAIhU3X2e/KJxllyRQlMoV+Fpqn2JL9rsVBRnyyi1PoYkznLJpfEJfNpzr88Ypy4rpucx5TVB0Y3rWcs9ZNo03WBQ3s/HfIZDLjmEu8URy6HLLhgnteGFfeX7ot6UaRTYyz5bNFU2zaewb9x4jr9zxZ/Pli4AIiEBXEuCDRzhzpplj5GUy/5bzISN52Tl1SgQ6g0D2S1ZntKU2REAEREAEREAEOk7gHTTB/ay4ZxKX/nHpF5JCxyV72c3FKWRxSRr3GxqJ3D1h3A+CwgvFLETzynEWFsWXbKcosGTDTfncwJxCRzaPM7YoMuVargBEoSlbdmN9Ck7cg4LLHifmNLIvwlzSCa9Fx6WI2QK5Y82m0Wf79GncX4x+Vxh5ZWeDsX3OKMtlxzCXTDKPxv3T6G+M8dxyWWdb6/ZDwdy+NRbkkC1X9AQ0QBHIbwJcxszZofndy4a94w9S/HGiYapiIlBEBCRgFdHJ1FBEQAREQAQKjgBnIvFGfjR6zjC8Bo4bi/9fgxRjsnthnYl05rEehZcpiFP04UbenN3C2VhIyivHvb3YIfaXNwcMN2dcapc7o4eCEjdFbc6Obq6hjUx/FfXYT3iha4uAxWWDYWG8NCfQ5c6M69BSDxyjJZcrlLEcr5fm2DH9OBbqJms8q2GrbjquDiMCIiAC7SHAh4V80p4Km7As9yrkkkb+oLAJu6FDi0DXEpCA1bV81boIiIAIiED+EtjUPfsiOsClU1yidzfCZ8GaclzGl5tOwYpxLn2jT/stXijwUPRBcJM7Lv9r3ImTkUCxDl7oWhPYuAwx98aBws/zqJlrXGrHmUZcMpn7NEcU67DjLKEsazaWu6cY400ZZ89lRa/c2U3ZshS1csWa7L5l2fzO9LmPFGfjZdvkWHLZMczjU/RkuDuXnZBl7vk/PNvJHJ9LCPlUTG7gru+rOWAUFAER6DYC/JHhNByNPry8dZzFyqfEcglh3nZSHROBziCgLwSdQVFtiECPJaCBi4AIdIDAm6h7AKwCRscnDvZloJHlzoyhOJJdUphb9l+owzx4oTser9zPCV7oKJyEgW564a/AuTOieHw+kTB7eM6+yhVXsumNfS6PzKaRD5dIZuP0uUn5EgS4T9IN8DvL8QlTP81pjDPBuEl5TlKTQd5EsCwzuR9W443Rv4YMsoBn+Ct57ubsTOtM4/UwP6fBSxBuLCxydsEjSCc/PqEQwSYdZ/U1mbGRiexb7r5ifIgBBcNsc9zgnk9XvBwJfBoin+aIoJwIiIAIdDuBx3BEzny+FX7jma1I2qSOS9X5Axj/5vOpiJu0Mzq4CHQHAQlY3UG5pWMoTwREQAREoKcSeBsD/zMs67iJNoUEPmmQggH3JOJT627KFoDPWUYUHBA0ub8IfxMJnPFDMewwhBs//a4r91rC4TZw3J9rAVKPgHHvpV/Dp1gHz1C8OA8BfvGG16KjgMGn7LEQZ1qRBzdZ51LE3ZHIduEZinWcYcRwe42iEo9D44wf7nnC2UiVOQ1RRHkxJ95ckHuP5QpdbIvjpvDGfbSyohgZcNPz95trqJPSv4d2ONsJnuG5+CEC7Av57YPwt2B0nBWWO9uNaRQZ6dM4C4o3cLy+OGOLaR01XrPZm0GKsX9CgxSxaLzmyQtJhjMKstc84zIREAER6G4CXB7+FRyUf4e45yR/UOHn+aY09oOfx5y93ZU/hmDYcp1KQI11iIAErA7hU2UREAEREAER6BABCgp8Ol+2EW5afg8i/LLML6TfRpizUeCFN/K86WeYdi9f1hv3MGJ5CiiPI42CDrx6190CFg9MUYKzxbi590VMWG/cZJab1K+PtuhR6Lkup8QFCHPmGoU8zjrLbtzOJ/7llkOxNruvoiSFKxpFrEGIZ2dJIWg4q2ocA2003kywDotzxhPPL5c6cpkexSOmk0nuExSZ1hVGkZNPqGTb/M7Hmy32hft7UZCjGMg87p3CX/EZztrr2QB8ioPPwOf1lTurC0kb7fjkxKk5tbkPHJdgct83nmdmUby6GAGmw5MTAREQAWM2IQN+bnFm8FXow5Wb2NgPdEFOBHoWAX6Z6Vkj1mhFQAREQAREIH8IcAYKnyrI5VuckZXtWe7f5wQSKfhwicDfEc66eQj8CMYv1PAMxRE+lY/7YPHphBRkmE7LChUM0ygM0adRJKCftdy83HBb81nuH3jhksEM/KwAh6Ch+PFlBhpZ7nFywyzGWVYUwCiyME5xbmcESmBchnc/fC5XfAt+W1zj9hvX4RJAClDcn+z7yOTso1wxB0nhLDL6tMbtcU8z7pmSXc5BUZK/2lPMYtkZqMT+5s5wQlKLbTI/a2wjG876uWm5YZ7br6MQrxOKWQga9oVLJHleeK1wKd9+yKAICK/ePYrQzTCeQ3iG5Xl9cXYd42213P40DnMGGK997tfF9rjPGcVWCmY8B5ylxplZufVYTtYxAqotAiIgAiIgAgVJIPcLckEOQJ0WAREQAREQgQInwM3KJ2MMe8IOhZ0PowD1XfjcqJ1izekIcx8OeA0cRSrOQqIoxE2vuW8QRQYuHeOvw1yORaNQkFtxF0SYTuNyLUTrHZc1Mp3GpxnWZ6wPcEkg82hV69MaexQ92J89kMF9libB5zi411GuUIfk0J2KV7ZH46wzROsdxQv2cXukUOxju9cgzLFymRnrctYOktrkOAOMx2nOKDRx/yru4/VLtNh4aZ1njOHssmz97Awnk/OP4tcJiH8Bxr2nfgZ/FIziDGdzUZxBtIGjSJdtM3emHQtRTMrmUXxiWq6RbTafglBuHvnxOuF1wWWRP0Am+8MNf7lMlUtWKbohuYGj+MXZaVzayv7wmmIfWT9bMHtMXoNZgTGbR5/H5lLFbLmrmZhjFAt57XP5K/tBwYpi23CU4bXDfrMMonIiIAIiIAIiIAI9nYAErJ5+BWj8IiACIrApCOiYTRHgbCKKK39FJsUCzjxajHB2DygEm3R8SiGXE3LGE5dkcVYXC3JmFoUJGmdxMS1r3BeJ6bTGAgH7wXQay2XrZH22zzwahapselM+l35xqdwtyGQYXpOO+2GxPRpnBTVZCInZmV0UUTjW9ghXqB46CjM8TnNG0SUs2MJLLoPG/HKrceYWN5enMDMbGTxX8Jp0PEfZPjVmwGNk8xrP3GJjPE/ZfJ53pjU2nivuS0bxj/25EwWaEtKQ3MBxyeHvkUJRlUJidmYZkgxnTvG49Jvjlts3Xlus19jYN84Eo7BG0YqzC3lNNC6nuAiIgAiIgAiIQA8mIAGrB598Db2wCaj3IiACIiACIiACIiACIiACIiACItBTCPRkAaunnGONUwREQAREQAREQAREQAREQAREQAR6MgGNvQgISMAqgpOoIYiACIiACIhAHhDgUkc+aY/Gp9XlQZfUBREQAREQgc4jUDAttbQEuQKj0D0wIMgVPQE+EIUPR2luoNy6oLm8vE3XmzdvT406JgIiIAIiIAIFReAe9PaQ9cbNvhGUEwERaEBAEREQge4g8FYLBzkQeXyoBTw5EShqAqUYHR9IA69J936TqXmeKAErz0+QuicCIiACIiACIvA5AYVEQAREQAREoBUCjyGfD+yAt4HjU2RvROoOsAiMjjNVZMaIQfcyMB3419y5YpMuXvh0YD6AhU9DRrRJxxnzTWbkc6IErHw+O+qbCIiACHQ+AbUoAiIgAiIgAiIgAsVM4CUMrg7WnBuJDC5159Nhb0WYT8qVGSMG3cuAQupQXH8Uo+C1yfHa5ROBmztXf0YrfKovn9I8EeGW3CMtZeZrngSsfD0z6lceE1DXREAEREAEREAEREAEREAE8pTAB+hXFawlx+VVFA/OR6ELZEYMTLcz+AauO4qoD8Mvh7XkuJfV4yhAcepr8Fs6XyOQz73e4DXr5iGHQi+8wnKbRsAqLEbqrQiIgAiIgAiIgAiIgAiIgAiIQGEQCNDNb8Heg8nlAwH1oTkCXMZ6LDIpZsFr1vF6Pgq5naHfrEQ73KuU7xMEC8t1BoDCGrF6KwIiIAIiIAIiIAIiIAIiIAIFREBdbTeBNajxS1hze2EhS04E8obA2a305PJW8tuazfcDlx8WrLgrAautp1rlREAEREAEREAEREAECpWA+i0CItDzCHCvIM5sKciZJj3vdGnE3UDgZzjGD2AF6yRgFeypU8dFQAREQAREoDsJFP2xfo0R8iYna4jKiYAIiIAIFDABfp7fjP5PgnFfLHhyIpCXBLgXVksdu76lzDbkLUeZ78AoYPF9gWBhOglYhXne1GsREIFCJKA+i4AIiIAIiIAIiIAIdCcBLpnik9kOxkEpZn0Gv6Bv4NF/ueIhwGvxFQznOlhL7hpkshy8djnud3U3ahwAuxbmwQraScAq6NPX8zqvEYuACIiACIiACIiACIiACIhAOwl8ivJ8etve8I+GTYbdC3sQ9jeZEQPT7Qxm4robBzscxj3b4DXrViHnGNg5sDmwls4X2/0FyhwH4/XO/bU+RLggXeNOS8BqTERxERABERABERABERABERABERCBYiPA2S6cgfUkBnYF7Muwk2FfKmLT2IzJVwan47q7A1YLa4tbjUJTYSNhLY2J7f4QZR6FfQzjdQ+vOJwErOI4jxqFCIiACIiACIiACIiACIhApxNQgyIgAiIgAvlCQAJWvpwJ9UMEREAEREAEREAEipGAxiQCIiACIiACIiACnUBAAlYnQFQTIiACIiACItCVBNS2CIiACIiACIiACIiACPR0AhKwevoVoPGLQM8goFGKgAiIgAiIgAiIgAiIgAiIgAgUMAEJWAV88rq36zqaCIiACIiACIiACIiACIiACIiACIhA8RPIzxFKwMrP86JeiYAIiIAIiIAIiIAIiIAIiIAIFCoB9VsERKDTCUjA6nSkalAEREAEREAEREAEREAERKCjBFRfBERABERABHIJSMDKKhO3NwAAEABJREFUpaGwCIiACIiACIiACBQPAY1EBERABERABERABIqGgASsojmVGogIiIAIiEDnE1CLIiACIiACIiACIiACIiAC+UBAAlY+nAX1QQSKmYDGJgIiIAIiIAIiIAIiIAIiIAIiIAIdJCABq4MAu6O6jiECIiACIiACIiACIiACIiACIiACIlD8BDTC5glIwGqejXJEQAREQAREQAREQAREQAREQAQKi4B6KwIiUKQEJGAV6YnVsERABERABERABERABERg4wiolgiIgAiIgAjkHwEJWPl3TtQjERABERABERCBQieg/ouACIiACIiACIiACHQqAQlYnYpTjYmACIiACHQWAbUjAiIgAiIgAiIgAiIgAiIgAlkCErCyJOSLQPER0IhEQAREQAREQAREQAREQAREQAREoCgISMBq8TQqUwREQAREQAREQAREQAREQAREQAREoPgJaIT5TkACVr6fIfVPBERABERABERABERABERABAqBgPooAiIgAl1IQAJWF8JV0yIgAiIgAiIgAiIgAiLQHgIqKwIiIAIiIAIi0DQBCVhNc1GqCIiACIiACIhAYRJQr0VABERABERABERABIqQgASsIjypGpIIiIAIdIyAaouACIiACIiACIiACIiACIhAfhGQgJVf50O9KRYCGocIiIAIiIAIiIAIiIAIiIAIiIAIiECnEchbAavTRqiGREAEREAEREAEREAEREAEREAEREAE8paAOiYCbSEgAastlFRGBERABERABERABERABERABPKXgHomAiIgAkVPQAJW0Z9iDVAEREAEREAEREAERKB1AiohAiIgAiIgAiKQzwQkYOXz2VHfREAEREAERKCQCKivIiACIiACIiACIiACItBFBCRgdRFYNSsCIiACG0NAdURABERABERABERABERABERABDYkIAFrQyZKKWwC6r0IiIAIiIAIiIAIiIAIiIAIiIAIiECREWhCwCqyEWo4IiACIiACIiACIiACIiACIiACIiACTRBQkggUDgEJWIVzrtRTERABERABERABERABERCBfCOg/oiACIiACHQLAQlY3YJZBxEBERABERABERABEWiOgNJFQAREQAREQAREoDUCErBaI6R8ERABERABEWiGQHTPQw93dx9wU2T3AS9EdhvwIXwfFmwC0zF3H9BRBpfhvJkc62h7qt/xc9IRhqtwLp/F+/NWd/dDhzfzFlayCIiACIiACIhAARGQgFVAJ0tdFQER6EoCalsE2k6gZJeDd4ruNuCOwA+essZ8basddjpw533222bfw4+2+x5xjJGJga6BTXsN7HHgIX0223qbQ6y151sTzIGYdXV814P2aPu7XCVFQAREQAREQATyjYAErHw7I4XcH/VdBERABHoCgZ0P6ptxnCcCa86Ol5aa839ytbn8lhnm0uv+ZCZd+Wsz6YpfycRA18Amvga++csbzU/+WmV+N/8fZpudduUn0/c9x325ZI9DwwgTZCIgAiIgAq0TuOGGG+KL77tvm8WL5+67aN7MoxbOnTV48bxZh//tb/O2a712+0pMnjzZWbBg5p4L5sw5fvH8OUPvXzjnmLlz7913wYIFW998883R9rWm0l1OYBMcQALWJoCuQ4qACIiACBQmgfiuh+/pRtynjTXbjPzKN8wV02aZA48+3lhrQyvMUanXIlCcBKzjGMd1zQ9unmbGXPoDDjLmBcHS6G6HDGBEJgIiIAKbmkC+HH/+/Pn95s+/d9dQoJo3c8LC+bOuXbRgzn1/W7Lo8QP2+cLTsV5lj+MT9WEnEn0oEo0sdFz374HnPrFo/uyHlyycN3LhwoXxjoxl8eKq/gsXzvnKwOOPfiLqxh6NROzfcJz5gbEPlcZKHi6N2if22n2nZx5+6P5HFi6YfS/69ovF82ZPoJD24Pz5uy5durSiI8dX3cIhIAGrcM6VeioCIiACIrCJCXjWP991nN3P+Pql5ounn23KKnpt4h7p8CIgAm0hcOSplWbi5T8zbjS6Y+DY37WljsoUBAF1UgREoB0Eqqqq3JkzZ2754IKZey6aP+e0RfNm/ehvSxbeEneDuVEbWxqJxh4tiZdMiUai/+dYe1oqnTyqLlG3fzKV3NnLZPr7nlfieZ7xfL80nUrtYK09zphgZkkkuH727Dt3QPt9sjZjxox+06ZN2ybX7rjjjq2y+fRvu+22vnPm3HuAycTvLY3Fb0kkEof5XmYLP/Aj6XTa+L4fy+C4yVRq59q6xAE1tbXHutY5PeK6P4iVxKY4kciTnuMv9ZI1Mx96YPEtC+fP/h7HtXjOnN3nzZu3OYStSDvwqGgBEJCAVQAnSV0UAREQARHY9ASiux1yrrHBdzffdntz/PAzNn2H1AMR6BQCPaeRg4490Wy/25641zLHRnY/9MSeM3KNVAREoKcTgFjkLp573yG9KkquKYs7D7uxstfi8dh9biTys1Q69ZWM5x0L0WjHTCbjQCwy8CkeNcAGsSqcbe44TpDNCIKA5azn+xdGnPizqVRqdtaQtwDlnss1iF//RP4sWFguGo3OqqtLPVJdlxy4fOVqU1OXsIlEOgHhKu1YG/BYPC7aqHfIC/uXTKYM2rOI75jOZE5OJhNfgbB1DcdV2qv0PxHHeyhRveqn8+fP3I9LE+sbUKCgCUjAKujTp86LgAiIgAh0HwF7Co/1jWuup/e5KSQCIlAQBLikcMiEC9b3NbhpfUCeCIiACBQ1gTlz5mzVqyz6l2hJ2QOutZcZY7+QSCZMMpmkAGRy/1EsikQiJhaLGYhLFKzWIu0tCElPuY67IDDBrdW1dW+k0hmf/7J1MxnPQjzaoqw0dhzS+AMB7SjU3bqR7Yj8gTDmnwiR6+h02utdl0iaukTK1NQmgzU1de7KNbUe/JWe589zXGeBY51/op23rWOr4+gb+8d+Ig1Nfe4gaIXjqq2tda2x+zuu+6N4JPbQEYcddM3SqiotM/wcVcGGJGAV7KlTx0WgeAhoJCKQ9wR23z2OPh611Q47mb6bb4mgnAiIQCES2OuQw81eAw5n17czOx+2NQMyERABEShWAkuWzN2lLBaZ77qRc1KpZH+ITiYIAgpTxnVdE4pAjpOIRKLvxeLxl8BhcTqdvj6VTk6EwDUs8L1TvaQ3KFbqDfrSoKHDPv501eN1ifQOa6rrnNXVdQbCFaqsc2y3NB5j2z7DbbA0BKjYutrha4DXBNKoUZQkU5n+K1ZXp1atqZuQDtYOQj9OzfjBqYlkangymbgwk8n8NvDNQ7Fo7KVIxP0QIlttJBIJx4U2wnH6vo8+ZrZAme+kKkp+tnSpRCwwLmjHi6OgB6DOhwT0IgIiIAIi0JUEysoigTX9t91l9648itoWARHoBgJb77gLjxKPx4M+DMhEQAREoBgJcNlgkAlu8PzMIZyZlMl4HkSh1X4AbccE7/m+d0c6k/lO4PljgnTdSSedPPjAQUNHDB4ybNS3Bg8ddfvQ4afNHzzstCeGnnba6wMHjlo1bdq0fSEQXQ1hqtTgn+f5ztraZMb3Aw/R0EE4civKSmpKS0tXtmZoC0JXWM1YY0PxCqJahG0EATsZGITPSKfTX6msHLuS/aisHPn4kGEj5w0ZdtqfB1eO/PbgYSNOcmKlA7xU8hTfBmf7nv8D2EzUfm99m+EBUqkUha1v1dXEvh0mFP5Ljx2BBKwee+o1cBEQAREQgTYTqC11UbZ37/794cmJgAgUMoH+W27F7sd8z5QxIBMBEeiJBIp7zBSvIo7zldq65JBVa2pql6+q9ldX1zlrqmsjK1at9ZevrE58umLtw4OHjvjN4GEjZ50y7Iw32kBkBASm8AOUZSEufej7/iWBMXMQZhKUscD0qiifXltbu1dLBkFp7/59yv/Wt3eZ6de73PTuXVYdjbqXQqz6KhpaDHELngnbwzEmYDy5M7XCvOzLwIEDM4OGn/HK4MEj5p46dPg1n1Sv/tFnK6ofXV1dWweRLVvMoG2Dfn7zrrvuGnzDDTdwZn19ngKFQ8ApnK6qpyIgAiIgAiIgAiIgAiLQMQKRaJQNWON7FKYZlm0MAdURARHIGwI333xzdPr06fvAzpg2bdrNEH3+WZdM/LqmLmnTGa8iCAIHxuV5Jeg0P/v2cBzndyh709SpU8uR1qqD+DMA7YblIGShueBr48aNu8mxdo4fBKkwAy9B4Pd78803P5swYcInzdk222yzGkV3iriOcWGxiLvyrLPG3HzOOef81XXd8z3P4+bvoYAVi8W2yGQy/VC+VYexHOpknJmOY89OpTNla6rr+MREaGzrqlpjNi+JuTO22mqrxzD2G2EjUWfvAHzWldBrvhOQgJXvZ0j9EwEREAEREAERKEoCGpQIiIAIiIAIbCyB2267rWTKlCnbQYQZW15efhfaeSASidwDAejCdDp9kO8HVOuh2RjOPAqQHoUI5Rr8g2DDpweWOI7zVaQNRVJbXLh0kAV931+NY7zMMASs5bA0wzSLnwd++tOf1otGTGvKgsAPy1hrTWCC6myZNWvWfIp+PWlt2HUTBIHFuFqdMVVVVbUF6t2NdvZC/+AZA2HN1NalwuMwAW2ZWDTSN5VKDQCPb0Sj0VnW2gfuwD8IWWeRp2ZnkVT+mgSs/D036pkIiIAIiEDLBJQrAgVF4KlZM8xfvzWh3u788TcLqv/qrAiIgAiIwKYnAKGmP0SrSRBgKFa9Av829Oo0iDPbQlQKnyyIMIUfJK9znu+v9DxvKcSaPyOFAhE8ky1zWQCRKExo4QVl3kD9sASO2Rei0hhGAmuOdBxbxjwa1LKP4NeLRizT2E488cQk6r8IwQnFjXGss/3ixfdtw3KlpaXbQ4A6G8djlH2kOPZpGGnhJZlMnon2dszWKynhZDPzsOf5jyDNz6mK7tmQE3khfTvkn4n+TMW4/tWvX787wfeCyZMnSysBnHxzOin5dkbUHxHoVgI6mAiIgAh0L4F0Mmku2bev+ebevevt0gM2a3Mn/nLJuPp6bOM7h21nVn/yvzbX35QF33j6UfPM/Kp6e3o+fyjelD3SsUVABERABPKBAESp0kXzZo+CXb9w/qz7F8+fu3Txgjn/WDJ/zq2L5s8ZN2vWXbtBVBkK+zNEl2ehwNwAsaUSwksfCFNR+OEwIOCYaDQKUch60WgkKC2JJXtXlCX796l4PZVKnQ6R5hsocyTqvhJWwAva2gHt7otga+5xFMjA+GQ/HuMHqHfn2rV1E1evrbWr1tSYVWtrzEefrDht+vTpD995552v33XXXU0a8h9fvbrmsMAPVq0z388k7YypU6dehT7ORZ/68TjoK4/1HML1SxQRbs6NhPAVYSbGlwSnr6CdkRWlpd9FZ8N+Mw9pnI3m4ThItkyiSEZBixz74ZijUOYPe+655+sY3x9gQxfOve/IJQvm/GjR/NkPPrB4/mt/W7LwDYQfh/1hydyZlQsXLmx1hlh4IL10mIAErI4iVH0REAEREDqYGx4AABAASURBVAEREIF2EAhMOpkwXjpVb6lEXZvrZyCA5dZlOFi3CqHNbaigCIiACIiACOQDgTlz5my1aP6cL/cujz9oHXN3JBq52LHOycYGJ6J/x1vXOd+xZkppvPTBeCx6N4SZCyDS7AzBKgYfRUwowiDdi8ViH0B8WZxMJi8uiURO7Nu7fG1FWUk8HovEIxFn1169eiVHjx6dGjt27JsQdx6FSGP4D74bjUbD6UqMN2clJSXzccwHUT4sAumnFOGzoBRtl0imTTrjmXTa8z3P3xkFjstkMnvgOE0a6h2Z9rxdHdf2wgD60lzXGVheVnJ5EPj74DhowlBYWouyf0K/6590GGY0evnLX/7SC+W2ziZDnPpw7dq192CsK924E0VDobDFfDCqRvtHQ/j7AeKPxGKxj5CGLmBESEAeigcx5O/muu7XkXTHqurE3EQqfQUKnZjJZPZMpVO743hHMR9q2D02SC/BeRz+4IMz2/6LHBqWaz8BCVjtZ6YaIiACIiACIiACIiACIiACIiACG0FAVYzh8rTFC+ZcEnODJxzHcv+qo4PARCH6UDypN4go3MfJwQ81O/cqLymLRRwupwsRQjwxZWVlDD+BeqMTicQRZ5111tBzzjnn97vsscfTyP8kQKM0E5j+vcrig1iYBtFm+zAdEfhOOp0O98ZCtCWXirvutYEJPoTgE85oQt0G5SEBBUxonM60XGM+BK9ITW0SQbSIfjK/rCQW9Kko8yG8rSiJR5ZHo+5N48aNW8C8luz888/nHlq12TIQocpKS0vDWVHWN19Bf+t1D8/3l48ZM+ZpiFu/BIeBKHsUOE9ER16ASGfALdsMZ3+Rdy+Iclusqa5zlq9cG6ytTbDTPspz1hbPVQnGfYLrOjPTdc6TC+fPvbC+AQU6nUD9iez0ltWgCIiACIiACIiACIiACIhAZxNQeyIgAgVK4PHHq0oXLZjz7SMOO/gFa82vrLW7QEBxKIZwSK7jGKRRFPEgijAp12x5WUkkFnHT0Wh0HupdXFtbu1cymTx1woQJMyFcfYC6PioEhx56aNrPpOYjjqhhmxFjg6tm3Vd1/pSpU6dCsDrFfP7vPQg4LzLKfagWzp35xYXz5nxj0fzZv140d9Z9i+bNenzRgtlv9etV9kHvvuX39e9TvlVJLOqyUfabxuNQ/LGOUw2x6GPEP8mxd13XhVDnvJWTFubXJVNrfOhXSOfhaY7rOrY0Ho1VlJWW9+1VftH9i+d/vGjenDcXzZv9GPp050L0a/GC2Rctnj/7uHnz5m3OSjB0I3gGPsdP4WlLx3FmVFXd9Rs/8M9CeuiQZqzrj7fWBjTO7Dr77LPfHj9+/BTETwCX/cDiW5FIhKJZrbVOBBVzT4WbTKaTK9dUr06lMgkH5wv5PF8Us1zr2N0dG9wIXs8tnjdzopYWkk7nmtO5zak1ERABERABERABEch3AuqfCIiACIiACHQfgTlz5vRaOG/2mauXxx+DGvJr2P6+H8SC9TOPXNc10Vj03ZTnz1i5pua9VWtqnRVrakxdIuU16qXt07vCi0ajXx83btyNEF5eO//889c2KhNG19SuvRHHWIVjwAvWmsDsXxKP/b68tGSs6zpexHXrYtFoqqwktnabLfr/YdGCOS8ZP/Ks47qzoO9cD3HmMifingZR6ijU3TnjZTb3Pb+PYx23rDRm+/UuM317l5t+fSpMv77lVXV1dfvgWPslEolDIKodnLVYLHZEaWnpEAhER2XTsn46nTkgk8wcjrxnMKZw9hbCDgJ84mGJ7/sVXiazhXXMLtaxRzuOcxb6fVkQmBuMNfNijv/C4gVznl+8YPafe5WX1CCfM8M89MOg7hchMn171Zqa+Oq1NSaRTEPY8l794IMVr4aAcl5wzAA814wZM+YVML2+d0nJj7bcrE8sHosmXMdBe4bCWAbtckZWme+biuq6JPSuzFKIXZyRFraGfIpZMWvswcZxbrZ+aumiebNHQWgLp8qFhfTSIQJOh2qrsgiIgAiIQM8koFGLgAiIgAiIgAiIgAi0SIBLBRcsqNo/tm6p4B3WMQdD5KifcWWtNdFIZG0mk/nmmurPDlm5au0iY+wOnu9bz/NNMu3ZNTWJf68XZgz/uY4tKStxhzLcyOzNN98cnTp16gnTpk2bmUw6T1bXJSIO/lljeq0vW1JRFrd9e5W6fdZZuqw0fpx17HlQXvYP/GAb9K83yjoQgCgCIRlyEhJynbXWxGIxv3dFRTJinYusE5+Af/+GCPQ+BLUPc2306NEfjRo1ahXEoY9z0xnmrLERZ5zxTG3SOxlC1bVlZaXZWU1u7vHQp7Af7JPnhZoeGJo+fhBsh7yDjLEXlJaUXBaLulFjjMU/vqBMgDEEJpX2THVtwl+xunp39PuF6dOn33PnnXceQV7GGOAxDf6VlEZPxLEivSvipRDpnL69Sz9BgTdQNwKfFsUxekFs/G/arz0o8LzvAXMSacgO9+4yENlY5ijHde6JWu+pBbOr9uf1EBbQy0YTcDa6piqKgAh0iIAqi4AIiIAIiIAIiIAIiIAIFCeBRXPmHHD4gIPnRGzJkxA2ODspFFQ42kgkYpD2McSXi3zH22tw5cibTjvtnOXIGwThBJ4xLANh6+erVq0+FGLWfRBIwvQMBJx4SfwLYQQvVVVVpVOmTDkHotUdpaWly1BuMdoeCds+mUxXrIGKZYzlDCKz/h8EG+siH/pPUI4+QOTJzTbsm3FdlyKV4dJAtLka5Z+PuO6MWDR6hRtxz095qaG1K1bvsDaRunnIkCFJ04F/FLhiZb0vz9RV7+V5qZG9yisuwHGugvp2n3Wc542xa9kPCEhhv9AXk/tv3Rg8U1YSszCIbwHGmFsinEHlICWGsewA/3QIYX8Hr9fJDaLfWRdeeGEU6WbJkiXlad8/nWGIUCYScWpikcjoeDw+IJVKTeB5YR7qIy9y8scf16RPrRx5rWfSuwPkt9Dfz3AMFoGIFSDJdyEB7udG4o8fcehBM+bde+8eYaZeNooAT+JGVcyDSuqCCIiACIiACIiACLRK4NN33jQP/Pk68/uJw8yVgw4y3z5oC3PpAZuZHx67m/n9ecPNQ7fdaD5+8/VW21nz2cfm4Rk3m1u+fqa5esRR5rtH7GB+cPQu5lenH2du/7+J5oX754RPWGy1oSYKvPOvZ819V38vbIttXjPqaDPt+5PMa48vbaK0kkRABERABPKVwP1z5my7eP7sn9tIsNRxTCUEqTIILKGgQmEjGom87/npn6R9Zz8IV3885ZQRH0KQySpInAEVDi2TyTDtvkmTJtUGvv0L2lgTZuAlnUwfDuFlOISX3yeTyTfQ7i1o4yzYjihXArMwlDQmlc6U1NQlPc8PVkF8gZZiVpt1glbc4B/qhqKQMTYF0eoVCEWLIdz8JZP2vuNlMiemvMSOaX/tLvGy5PHb7LDLeY888fSVJ59a+dehQ09bPGT06E9Hjx7tmU74N3DgwMxJQ09/Z3Dl6XOPHfilvyxfXTP5/Y+Xj4tXJ473jLvT2trUTulU6mQvk/6uY+1t6OcDbsT9N8acxLgMx4GwKSuNm/59y01FWYmJx6IJpK3CuOCFpyAUlcCGfEqQuDOM3G4//vjj/wue165atfyL1gR7c0jIMwD36qDKkY9gnHU4l4shXD3NdOZHo9FSxNEd6w8Zcvr7ELJuyPipI6yx17uO81m2HMsGJqhA/MxoaeTJRQvm/GDBgqqtmS5rHwGnfcVVWgREQAREQAREQAQKh8CDt/7O/PSkfcysX15uXn3kAfPRsv+YRPVak6ytMSs/+sC8+vD95t6ff8f8YvgR5uW/Lw6/2DYeHb7omjf++Yj5ycC9zV0/vcRQqHrvledN9fJPzepP/mfefvFp8885d4bC1veP2NGs+ODdxk00G/e9jPnH9D+ZX59+vPnbX64P22Kb7/7rOfPEvVPM9RMGm/k3XNVsfWWIgAiIQNsJqGRXE1g4b9YpnmtetI5zOUSg/vz7kT0mRJQa3w9uSWTMAYOGjLpq2LBhnyGPghK8dQ4CxwpYGInFYpyxFYocQ0eMeMBx7HK0aRLJlFm+au0RKDQTos1F8LeD1e+nhbBhGzheAvYx4revWVt93Oq1tbsm0qmD/SCoisdjH5SVlX6Mcv/zfO/GTBCcWJdatW0yYw7/dMWaysGVIy4YMnzktacMGf6PU08d+V5l5diVAweOrt5vv/1SkydPprCGZrvWQTDyJk6cmBg4enR1ZWXlyuHDh78LIenBwcNO+zX6dZ5x40MCGzvMuMltfS91iu/7N4PHu2Xl5R+5jvuf0nj0l6VlkQMSicRu6OkxsDvi8finKENRC9F1bv05isPfAXn/l8kEMxHujdwa8PFtEHyCcOgQ59LGsjCCF5TD6+cO+UFl5Rlvnjy48tLgs1U7myD4M85BbbYEyqM5098a8wsniD0xd+59h2Tz5LeNgASstnFSKREQAREQAREQgQIjsADCz9zrftqmXqcTdebWb44xK//3/gbl//PY38yN5ww1qbr676AblMkm1FWvMdedfVKbRaxFf7jGVF1xqfH95n/Avv9PvzKcoZU9hvxNSECHFgEREIFmCCxZOPtMx9r7jAk2h5hSXwpiSmCtc6f17GFPPfP81yjGIDOAbeBQ73EIHmF6KpUyEERunTZt2jemTp36rRWra7ZcsbraVNcmjef5ERRyIYjAW+dQ1nAmEvwX0caF6XT6CMR3hxB2wXnnnffU2LFjVw4bdtqL1bWpr73x5rt7lL/x9o7vvP/RTtW16UuHDBn+MJcwQlSrpXC0rsX8fuWMrVNPPbVm0KDRK04ZMurBtbWpi2KlvXYr7/XmjiXlvfc/deiIy4cNO+ONCy64YMWYMWOeAIcJYLp7JpM5Aoy+jdEtAx94nzvyhDmBCfgHvxznw/eC4Au33XbbcTgP26Dk1ai7L8qEM74gjr2FdjdYPokywakTJtSsAeu07x3pWjvTddEsGqBjffg7R53IgxKxQKIdTgJWO2CpqAiIgAiIgAiIQMcINFU78H0z/QdfbZO1Vcj59N03zeI//spkUp9/r4zE4ub4sRea86+fZiZed7s5fMTZDbpDgYoiFr6wNkjn8sNMOlWfFistM6d+9bvmghvvMGN/8Uez26FH1+cxsOLD98z8669ksEVLrF1jKLKt/yKLL8OucSK8J2lYLYObmDt//A2IXN3yo3fDgysmAiIgAiLQKoEl8+bthT9lt0GVqsgpHFjHedQP0kPW1Dx37smVlf9ubfaS67qzPM/LfUre9mjvdxBEfplOZ7gUEdHPHdIpcqUdx3kMf7uuhB0KQeXws84669ZzzjnnJYhR1bAGv5AwPmnSpPShMPqMo0V0Ha8F6sAh4Dgoah166KQ0faQ1+KPJ/HHjxq0hlzfeeOP6lStX7gcx6xiUuwr8nuTQETb8m+xl6nFErGN3j8Wii5H/FvLPBWMEDbknEL5lAoQq08wPIReTAAAQAElEQVQ/HnPo0JH/ipb1PtPzMmda6zyLNnJKB/1ibmT+3Llzd8xJVLAFAk4LecoSAREQARHIPwLqkQgUJYHH77ndtMVWffxhm8b//KKZxssRnfiF8dzf3GbOuuIGM2Dol81hw88yjO97wqAG7b394tOmZhX30V2X7GXS5rUn/r4usv717CtvNCMuu9IcMvg0c8zoieb/7nrI7Lj/gPW567xX/nH/ukAbXiOxmDluzFfMr575wNzw6hpz7Fnnb1Br9ScfmXQbZoBtUFEJIiACIiACXUoAgocNrPdHHKQUhh8bAi+RTPt1danHPl2++qZPV9Qs22KLExqIKSzXlI0dO/Ydz/O+DxGqLief9+z8dcNm0xBIQ+z6HwSUv8K+EI1GT4CQ8lPUfxaiSQp/8+oVmGwd+Z8TmDx5sn/xxRcnx48f/zhErR9vu+22x4HjTihxN7h+mkyleyMcOmus7V1RVmqtiSPBgSHF4jz78yGG/ZXx1oyC2trazPyPPl1xZsbL3I7y9dcDrp9tYo4/CWlybSAQnoA2lFMRESgiAhqKCIiACIhAsRPYfu8DzN7HnmQcl9/5jSnt3ccc+KVhGwz71K99Z4O0tZ/Wb3dhaletMAF+Vs8t1H+7DX8oPWHsuu+em++4izn98l+a7973SG6VZsOczXXJtCXmrMnXm7LefQ1+BTYU2bbba/8GddLJhEklcu9nGmQrIgIiIAIisIkILJ4381AoGify8KvX1qZXrK72q2sTpiaRPBZpM2Avv/fee/f/+c9/3grhVt2bb765IJFIcM+mj6yFNgZDpfr79tKSEuO47vBVq1btCwHmAghXb0G0ajDLCuXl2kGAAhPEqHchAJ69Kgj2dqw7AdWrYaGLuI7tU1HmOa7D2W7QnIIpEBknhplteJk+ffphyWTynxDHXly5uvac2kQqk1stMPZruXGFmydQ/0ZovkgTOUoSAREQAREQAREQgTwmsM/xp5hv3r7A/PKpd83FUxaar/z+LuNGoxv0uPfmW+FGINIgPVlb/53VVPTfwlBkyi1wxw8vMu+98kJukhkw9Axzxd9eNlc+9Ko56bxLzGbb84fcBkWajAy7dLLZ7ZAjjXU+/0rmuK7ZYd+DG5bnzr20hqmKiYAIiIAIbGoCbuTURDJV99nKtcl0xuMfmgBdyn6oW4TjjuMMLCsrm9UWEeuUffaJb7ll330369frvxVlJaYkHnVK4jFTXhY3m/fvkygvjZ3++uuv3//1r399pV0nbuEQXex6SPPk+fWxY1f23Wyzu4wNbkScQhPFwdXRqFvdv3e57den/M3+/cvvBZI6WKtu2rRpl0Dx4q9a+6FwOczW1iVjGc+rn4Vlrem3aO5MCp7IlmuJQPaN1VIZ5YmACIiACIiACIhAlxIYf80tpi22zR77tKsf5X37mz0OP85svsMu4VLAh2670Uz93lfM9eMHmStPPcj8+owTDJ8EaJr5R2Fpx/0aPiTo47deN1ePODLcrP3JWdPNh6+/wqUEZouddkcrvFeB1wZXUtEbYtfFBr/cm8b/yvr0bZykuAiIQAETUNeLk8CUKVN2XL5izUlraxKlGCGXmEGrCFYjTEchi75BIu2okpKS30+ePLnhryZhCWPmzZtXtnDe7GFryuJPW99Mw1+TY+KxiC0vjZsKiFdlJXEPjdxdUt57LtqoFz/WV5fXiQQ4I6ukbNWVkWhkibXWRdN98BtSH/gRa8xuERuZ17s89tT9C+edwvOG9CbdjBkzDod4+RNk8tqA97lLpzNONsbrI5Hxrqiqqtoimya/aQL10JrOVqoIiIAIiIAIiIAIdC0BikRHnTHBtMW23IlPw257f9595QVz1dABEKsONDdMGGzu/fl3zJP3TQvFrI/++58G+1011+opF/5fk1nLnn7MTP3OBebq4UeaHx67q+HMLC71a7JwU4n4FtxUstKaJKBEERABEcgrAlOnTj3Vdd2XoFKdmNsxCB5IMi9ClBiB9KmIwzPQngKD8Mm777771mFCzsviebMOd433hnXs7MAE+6JuTq4xjmPZwJVra5PnU1xpkKlIlxAYOHBi4r0PPjkjsMGNjQ/g+z7Opxng+d6iiPX/tXDhnEbTptfVQLlLEeoPCx3OK58s8wj8T/0gTMp9OTydTr+F6+qLyMcJz81SOEtAAlaWhHwREAEREAERKGoCPWtwmXTK3D35EnPtl08wH7/5uqGwFODn042hsM9xJ5tzrv1ruI9WU/W9TNrUrV1jHr37L+Y7h25r7r7iUhyP31GbKq00ERABERCBQiZQVVVVOn369NsgRi3G3xXOyuESs3BISEuWlsQfHTdu3METJkyYl8lkuEHiNKSH+RC8ShD4AswEVVXukoVzBz+weP4DxrGPWmu2hSpSf39ureVfrbXW2N/7mczhTz7zwlXa64rkus8mTpyYKCnt823jO8cFJvirMbbWQEqEZR3OV7CrE5gnHnpg0fwFC+Yc+uWqL3PGFvMtXg7FNQLPULxMGGNOGD9+/PFvvvnmtqXx6EeI17t02otC8CrHeV84Y8aMG1EPbddnK7CegKCsByFPBERABFoloAIiIAIFQ+CJe6aYh2fcYjKpz4UkLtnb44jjzYnnXGRG//S35pu3zzcXT11oHDf7XbPp4TmRiDli5BhzxYOvmC9d8C2zwz4Hmmic9yAblk/V1Zp/TPujmfb9CzfMVIoIiIAIiEAhE7AQFg5PJpP/wiDOhWVdHQJ+LBox/ftURCrK4vvec889UaSZiRBAIFpNcZx1t90QKPgHZ68HFy7cZ0mvklvdiEuR60tQqsLyrAMBI4Dy8XFgg98H1tt/UOWIbw4efvrTkydP1rJBAupm44y3wcOHPzqkctT5Kc8ciMPfYgLzCc8TwqGD2BTHdTE06jhPX1A+/g+LF8/hngImEon0QV5YBuUfLCkpeYmRIw87ZCiuic0ZXm9BKp3JLjOMo85FuNZeufPOOw9GGJfD+lLyzLp3kkCIQDcR0GFEQAREQAREoKsJpBN15r6rv2fwpa/+UNGSEvOjBc+YS2fcb0b/+DfmxPFfM3sf+yWz2XY74VfRtn0dqui/uTnt+9eYH8x9yvz2xc/M2F/8EfV3RP0Nv1s+t/Bes3b5J/XHV0AEREAERKCgCdipU6dyNtVTGMVuuX9fEHd6VZR82ruiFH8PTAR5XygvjT6+cOHCOOqUZzKZSyBcoVjogl5lJcf7xns58Pxz06k0Ba0wAwIH/VTgBzcNqhy59eAhIy8eOvT0d5goyw8CI0aMWDa4cuRX19aldvACn0+YzKw/b2EHPc8zfuBPco37ypJFcybgvNfvd4bwjjU1NfH58+/dFdcI69bnpTPeO0ijEBq2wxfE98K189y0adPOY7xQrbP77XR2g2pPBERABERABERABDYlgXf+9azhTKhsHxzXNd+f/YTpv92O2aQO+5yVdczoieaKpf82P73/JXPMmQ2/X/r4EvuvhxZ2+DhqQAREQAREYNMSWC9ETXcc50aIELmd4YyofyDhkHg0diGEDMYRNcaxdkDEek/0KiudE41GKq01pqwkVtu3V6kpKYmd7vkeUsKiEL0QDEx1YIKbjWsPGDxs5DfW5YSveslDAqNHj07V1KbPjTj2cGOCqcbYGmusyf6D8BSzxt7uOrYPzn24xNRxnAMqKkofcE30JdTh0wgN/1lrTdSJjkf4KIhWz8Kvv44QNq7r/gEi1l+rqqoqGO/pJgGrp18BGr8IiIAIiIAIFBmBFR++12BEpb36mG1237tBWjby3KKZxvP4lOxsijG+H37XrE/g/lavPvKAqbryUjP71z+qT2fAcVyz5S57mLMmX296bb4lk+rt3Zefrw8rIAIisKkI6LgisHEEICbY6dOn779ixYpHHMcZg3g4Y8ZaywZXIX7FypUrTx0/fvxrgRNdgngVMny7bu+qWvwt2a+0NHZS315ldrO+vUx5WUkp2vFRrv4eHGUTiM/Cbx6nDh468quDB494DW3IFQABiFjeyUNGPD9o6MhzPBOcAgFyLs5nKtt1z/NNLBpxgsC4TKP4mUikD12+am15Ipk2SDconwl8/wouUcR19CIMgpj5DcrXwEKHenGUm5hMJufccccde4WJPfil/s3Tgxlo6CIgAiIgAiIgAkVEIF7e8EdKClDVq1ZsMMJ/P/o3M+faH5vwW2ROLpcgZqOLbrrGfO+IHczvJw4zf5/6x3BfreqVy7PZ9b51HROJxkzuv95bbJUbLdywei4CIiACPYOAhZhkJ0+e7NAgXg3BsPnEuMOQjuA6h/BHrusOmzBhwpUXX3xxkqlDhgxJDho6YoznBQ8gP+1YWwaBIoow/sRA2kAEYQ9CBPc3gmeheZjXAs+ePLhy5GmVI0c+znZkhUmgsnLk4ziPI3w/GIsR/Bcn2IdvSktiJhqNMFhvuA5MdW3CrK2pM2nPv29Q5cgrspmsBxHru5lMphJp9V82WAd5X/R9/8EpU6YcVVVV5dKQDoGMW6ahdA9xErB6yInWMEVABERABDYdAR25ewlss1vDHyh9L2OuGXGkee/VF8OOcHkhZ1Ld+s0xYbzxSyrBBwWtSy0p79VgI/hE9Rrzy1FHGy5TXFeC+lcAIewnZuX/3s8m8VdVc/CpI+vjCoiACIiACOQnAQgBsUWLZu28aP6cUUsWzP7R4Yce8KMDDtj3tojr3m2N6Z3tNQQEzq56EOLCUWPGjHk0m07/5ptvjkLwGr+6uvbgtTUJ43s+hSuWD/8e4CUB0ctFG4Gx5j0/8L/u2ZqjOPOG9WXFQWDIsJH3ZgL3SEiWl+E8/w+j8vv1Ljcl8Zhx1m/kj7QA10EqnfGC6prEEXfccccZvAaRXu8mTpz4d4hThyHhMWtxFSKAOF7N1riOFtvAm9a7PHbvkoVzbl+0YPa358+fuTfaKGWBYjcJWMV+hjU+ESgOAhqFCIiACLSZwOY77mr2OuakBuVXfPCuuXr4EebSAzaHbWbuv/laU7d2dYMy2UjuDKzjx15odjpgQDYr9Je//w5ErGPM5JP3Nz+vPMx897DtzQO3cMZ/mB2+7HTgoWabPfYJw3oRAREQARHIPwKcZbVw4Zxj+vYqm+IE7ovRaOQ+x41cGXGjV5SXxCf06VVaWlFeEkQjLsUHLun67bJly4ZCXHg7dzQzZszYqby8/E/RaPSvvu9vmUylYyvX1ATVtYlUIpV+3QZmugn8WZ7n/dHP+F8LrHf0kMpRt1RWjl2Z247CxUFg2LBhnw0eOvK3mZrUYcYG5we+f2Wv8tLbI669yVq7zLHWC4IgBrMQQ3eGX4Vr43e33Xbb1rkEJkyY8BbyK5HPein4nO2XRpneybR3dk1tarDjuOOikei1USfyQr/eZXctnj/7OAhZ4ZJFlCtK5xTlqDSoJggoSQREQAREQAR6BgHHdc2Xf3ytKevTb4MBJ2urDb4EhumRWMwcefoE03vzhkv90sm6MJ8vKoquLgAAEABJREFUbiRqLvzD3WazHXY2xq77FdSs//fJW2+YD/7zL1Ozqn6Wf5jTb5vtzfm/mx6G9SICIiACIpB/BHCTHzvi0AMnlsZKHvB97ywIT73T6bSBkBAa4vjIt04sGnH69akwvSpK7tprr71+ANGrfo8jhB0u54pEIkswwvNQ/3PhwNpUMpWZ/vEnyw8+tXLE+MGVo8YMrhx50eDhI28eMuT0z6froqJccRIYNnr0B4OHjrp9UOXInw4aOnzimWeNuQjfP473g2COtbZ+qjfSDK63r8Xj8cemTZt2CK+rLBGIpauQfnk8HvkPhC+KXiUsT6tNJKMrV1cn05k068dw7Q53XPcfvXrFxy1dujRiTLaV4vKd4hqORiMCIiACIiACIlBoBByn7V9HbFNlG+pK4fC5jPDHi54zux92bBhv/NJv6+3N126Zacb87EYTLWk4697DTUxueQpSP5z/tDnj8l+aXpttkZvVIFzaq7c5c/LvzOXznjabbb9TgzxG8MWSXr05tvlxb8DEYpBw9ZUVEAEREAER2GgCFWWxS0vjJTclEnWlFAOyDfFjlhbG179AXDBlJSUTPvvog++vTzI33HBDfI899pgUjUbvT6VSX8i2sf6z+33Eh9fW1n590qRJtdk68kVg/Pjx/9t+++0pmJ4PGh9bu+5q4zUGAWpXXE9Ld91114m4fsIvCBSzNutbcU2vstID+vQu95GYNGZdHWOMk0pn4mvWJiiqokpA8dXG3OifErWrv4n8onRgUJTj0qBEQAREQAREQATykEA0XmJ++9Jyc92Ln9bbb57/pM09Pe93U+vrsY2rH3/L9Nlymw3r40sh0y+Zusj8ZPELoVh17m9uM1/5/Z3mO/c+bK78+3/M3sd+yURicfPjhc82aPOoMyZs0F5JeS/zxYkXmyuX/sdcVrXUTPrjPWbsz/8Iu8l89eZ7zXfve8T87O+vmxPGfdWU991w5hcbPPMnv21wnF889iaTm7QR//ezBmV//sgy06v/Fk2WVaII5CsB9UsE8o3AwoUL44vnz748Fo3+uC6ZDJ+8Ya01Ae79IQZ41XXJoAaWSKb9wBhuuh4OIZ1ORyOx6CVLlszd5Y477thq8803vxGKwU0QHSrCAutefKRVWWtPHTdu3P0Qr7jca12OXkVgPYGBAwdmJkyYcAeip8Lm43oJN3xH2OA66w0R9OZp06bdMGvWrL5HHnbIMN/LnI/rykRcx+3Tp8KNuM77qOOxPC2dySSTqUwaaYyaVCpVEnWjVyxaMPviZ555JhomFtGLBKwiOpkaigiIgAiIgAgUAoF4WbmhIJS1WGlZm7tNwSlbj368rMJkv7Q11YgbjZqtd9/L7P/FIebwEWebgweNMrscdLhxI58/FSjWqD+O+3le4zbZ910POcocePIwc8yZE2HnmQNOqjQ7H3iYKevTt3HxBnH2hX3OWkvjXl+2nhOPi4E2aE8RERABERCBthNYurSqwvjJayPR6JUQCspZk38/XMe+Wl1T98ya6jqnLpGytcm0XVNT90AqlfkRynwGC10mnd4sVZe5C6LVgxAUvgIL09mG4zjL4f+wf//+EyBevRpm6EUEWiAwfvz4F2tqas7EdXQlrp2VsLA04i7+XVRbWzvH94NfZzw/FKGQH7iOvT8Wj3/Z9/2ljuNAY8U3A2t7pdLp5cYaPv0wbCOdSfeKx+LXfvbJB5fOmzev7V+ywtr5/SIBK7/Pj3onAiIgAiLQIQKqLAIiIAIiIAIi0NMJcE+gRE3sl7Fo7CKIVy55QBAw1poPUwlvbNrzOavFMj0aiayKx2KXjRh1+i8DPziHadZak0ylzerqmsOttftCQGAy6lvafxE/A8LVL4cMGZIMM/QiAm0gMGnSpFpcNxSwzsZ19X62Cq4nY405xtpge6SFs60CE7zv2+j5p59++lORSGQcBKz/Is9A8DIZL1ieSKUvRnwN0uEZk0wmo7jef+GazJUoUzS6T9EMJDxLehEBEeh8AmpRBERABERABERABERABAqYQLJmzW9d170Q4hV0AWMgFhjc6P8n7fvDh44a9QJu8DmbxfAfxINIKpUqR5kgY9y/w/9PXTJl1tYkjIGKAAuXfKE9D+WXoPyg8ePH/x3h+jYQlhOBNhHA9RWMHTt2ied5g3FNPsw4KzqOdeFzjzZes9zn6rdDhw79CGkBBKw1uP6WI5x1pXV16Vch7pwERest5IXpELHceDx+0ZJFcy+jiBsmFvgLxljgIyiA7quLIiACIiACIiACIiACIiACIiAC3Uvg5ZerYosWzPy2G3HPg0AQrg+HQEAB68mUZ4dWVo56lj2CCPUvpIfCFMSsCggAN06ZMuXYVatWbbu2pq66GuIV0qFdGYv/DgSEarR3XSwWGwXxahnbkIlAlsDG+BMmTHj5jTfeOAnX2Z95fUUibg3bwXXpGGvdVWtqKv76179uUVVV1R/C1ASIsfsxf719/Nprr71/ytARz/he5kw/CJ53rA2zIMaWRCPRK5K1ay5A3XDftzCjQF+cAu23ui0CIiACIiACIiACIiACIiACIlB8BDplRBAC7HvvRL5RVlp+bSaTCfcBstZShHopE6TPqqyszH2SxjQctA5mIGbRDisrK/sH7LVkKr2ftbZ+dhXazUC8mgTh6nujR48O67CeTAQ6SmDy5MmZcePGfRXX1yWOYz7XaoIAmmrkCghbD0O4ehDC6R9wnYb7uCHN4Pp+kHV5/MHDT3/aZszpgbHvOmiEaRSx4rH4TRVl0UmMF7J9DqWQR6G+i4AIiIAIiIAIiIAIiIAIrCcgTwREYPHCeRfipv2q2tq6cCoKRCjjWPuuF3hnDR16+ju5hN588833IAj8BDf8iWx6IpFwamtreb8cg2gVthFxXS8SseOXLVt2F8oFMDkR6FQCuE6DmpqaadFI9KfWsfVPsoy4Nonrcy9ciwdDkHJ5UJSl2Po6BK/bGM/aqcOHv+XaYGQQmHdQJ0xOJBPWcdyrFi2YezbaCK/nMKPAXviGLLAuq7siIAIiIAIi0M0E3Ai/pKbSSe3N2s3kN93hdGQREAEREIGCJDB58mRn8YK5p0dd5+pkMl3KQVhrjbX2tXTgjaisPO3fTMs11MmMHz/+OohYP3Rd922Ywd0+i+Be3zgMRCOu2bxf79rNy2NPoLzPNJkIdAWBSZMmpX3jzjCBoaAafvksiUWjrmPTvCCttcZxHF7Tz0K8Gjlx4sS3TaN/Jw8Z8XzgZcYZa5axbJgdBL1R9U9LFsw9Ee3YMK3AXpwC66+6KwIiIAIiUCAEiqqbFQkP46mtWbsGnpwIiEAhE/j4vXfZ/aRjonpDG/0TgeIjcMgh+x8UmGB6OpPplzO69wLPnjl06KgXctI2CK4XsY7z/cxljrWPQLTy4vGI6VVeavr2LudSrVcivbb4cIOKShCBTiaQTCY/i0aibwSBiUJs8q21dRXlJdBWHQ9C63sQrq5EmcETJkzYQJDNdmXw8NMe9Y2d4AfBStQ3aMfgpTdErXlL5s8/IFuukHynkDqrvopADyOg4YqACOQPAU7h/ujjdzf4gSt/eqieiIAItInAsn89z3KpZDRdzYBMBESgeAgsmjPngJgTudcaU8JR8abdcWy1Z7zzBw0b9iLTWrNx48a9369fn6f79SnbpXdFWaSitMTEYxHjRiKf+o5/zsCBAzOttaF8EegogdGjR6cyXvJHuH4NrmPqNmXRSMTp26vssz594ufssMMOPzvvvPM+be04gwZVPmmDzHgoV6vRjglFLGPKHTeYPreqasfW6udbPkHkW586sT9qSgREQAREQAQ6gcCzz6bxZfiljyBgPbpgVic0qCZEQAQ2BYGP33vHfPAmHxhm/25ee16zKDbFSdAxRaCLCEydOrXcidobrGN3WX+Tbqwxq3wvmDBkyKgH23rY+bNnf8k1psoau721xlhrjeO6gZdKXzF06GmvG/3LYwLF1bVTBo9cHHHdn0ciuCKNcXhdO46zVTxScnuietWxiNvWRmytDZ585l+L/CD4gbEm/OEG9Yyxdr+SXqV/fOaZm6OmgP5JwCqgk6WuioAIiIAIbDoC1kSuwNHTi6b9xSRqwicbIyonAiJQKAT4hf3uG3/N7iatCeYyIBMBEWhEoECjkydPdjbv12eiY50TfN8PR4Eb94wX+Ne9++HHD91yyy2l+Axo9WZ//vw5AyNROwMNbIXy8IyJxWLpTCZz5amVI24KE/QiAt1EANdwkPKdn2c8/9euGwln/q2/LndE3pRFi+YdgXir1zXeH/6QylF/RLd/5bquB994nscN4Af9739bHIp4q22gTF44CVh5cRrUCREQAREQgXwnkFr21KvWmjuqV68yD913Z753V/0TARFoROCRufeZN19+0djA3Jle9uytjbI7LaqGREAEup/ACSec0Dsej16W8cJ7fN6Y+9W1iZUrVtV8qays7J/l5eX3T5s27fo777xz5+Z6BzHgxIgNpiJ/S4gCxlobRKORukQyNen9Dz/5OePIkxOBbiUwZMiQ5A477fajdCZ9mXWcUJ3l9YkLdEfH9+9+YOHcAYg3K0DddtttB02fPv1nU6dOvemTz1ZvlUik/p1zLTsR48y44YYbYt06qA4cTAJWB+CpqgiIgAiIQM8ikLaxH+JLwpOL77jNzPzT9T1r8N03Wh1JBDqVAEXnhVNvNff+8be8qX3RCSK/6NQDqDEREIFNTiBTU7ON5/mbsyPJVMZbtabWJFNpbuJ+PG7W90T6Ma7rfsP3/cdwM38m4g0cZ17ZwJ9hjN0ef+ehDdgA5WszKe+7Q4eNvI1PhTP6JwKbiMB+++2XqqlL/x7X5ncgYgXsBsIGF+qOvglmLVp030Gm0T8IV30h2v45Go1y+Syfrvk1XNMXVdcl9/D9sIlwP6yS0pJd9t13l/C906iJvIw6edkrdUoEREAERKADBFS1ywi8/sQHGbfkFLT//N9nV5kfjB5qlv3rBbPik49MOplEspwIiEA+EEjW1ZqaNavNE4vnmasuONsshuiMn6ffzZhIZfLNp97Ihz6qDyIgAp1HwDeZfr7vlWU8P1hbU2f9IFiOm/QIb/Kz5vu+hW2Lo94+Y8aMIfB5A28Xz5t5YNSaW01gtmVZpkcikXQ6k/7OoGEjfs+4TAQ2NYHRo0d7a2uS1+M6v8R1HT5ciNcvumW3d/zorQsXztoNkdDddNNN/SBcTXMc5wJc05vBeO3zRxwuHYzjfRCW4wvDqZqA7wtG894kYOX9KVIHNwkBHVQEREAEmiPw2mNrM7G64wMTnFmzZpW54TsXmasvHGcmn3uG+en4UTIx0DWQB9fAFRNHm5+df5a583fXmNq1a/AjtZmSNpH9zbKn3m/ura10ERCBwiUQLylxjbFmTXVdylrLG/twLSGEKFNeXs59rEzOvxJr7Q8YX7x47p7Gce4MjNkVN/lMMrjxT6TTyQura9O3hAl6EYE8IbJj4dcAABAASURBVEARq7S87x89z3wL17Bv8C+8bq05xPhm9sKFC7dAkqmoqPi667pDKU4xjrK8rg19/JjD9wc9ZjFsHD8ZDSMF8NJlAlYBjF1dFAEREAEREIGNI/Dqq9XesueqrGOPsEEwKZlILFq7csUHKz/9xMjEQNfApr8GqletfKN27donbGAudnxzQPqNZ8+FeLVm497wqiUCIpDvBNbU1iRWr61J4IY9jr5ax3H6wlZnMpnzVq9e3S+VSg2GMBU+QZA3/LD977rrrrOsH/zVGLs34ob/+LTBdCZ9+aCho6ZSLGCarG0EVKp7CAwcODAzaOiwP0UjkV9QoOVRef26jruv8VP33nvvHXshfSSu/VCkgmgVwKZ5njcS5X6B767VjmND8Yt18T4xad9dyXAhmASsQjhL6qMIiIAIiEBeEki//sw/0/997pbMsmeGZJY9uz3Myp4tVAbX4tyZHCvUcajfy8JrcM/MsmeOTv/32RtTbz77r7z8AFGnRKAhAcU2kkBVVZW7enXtF9MZj+IVZ5Tgt6Wg1HHM78aPH3/bxIkTV8FfjBv6P+LGPnuU3mXxyE3G2CNxU2/4DzfyAQSwawYNGXE9bvgDpslEIB8J4Pr0nVjZzwMT/Mp18TMNOolr17qOc3zUjc3wfH93JIUOwu39sIljx46dU1tbO7m0JPYcrvV6HQjirr8mkajE+yAUvMJKefxS3/E87qO6JgIiIAIiIAIiIAIiIAKtEFC2CIhATySQSCROww35L3ADXsPx4+Y+iEUjq/v2Lj974cL7tmcaDfl1yAuXUZWVxOtisWg/pIX3w0yHenV1SVnvnyBcPzuF9WQikI8EBg4cmIjGK37qe/5fIFCFgitELGMCcwhU3Ar2Ge8LA4Hq7exswu233eKbuPaPZV7W1lbXWc/zrpk6depJ2bR89sM3bD53UH0TAREQAREQARHoJgI6jAiIgAiIgAgUEIE777xzW9ykX48bd97XlqDraddxTO+K0t64kd/T+s6jixbM/tXcWfeNj8cjk6IRZ22fXmWZkniEG7zXorzhrCy0MW1NbepqiALh3llMl7VIgLyjKFEK6w3jJuB7wT8SNgx2LuxK2K2wGettOvzfwr4F45MgKZgcgPCusM1g5TDOonPhF8RsIPRzkzpcr4mkZ/8vCPw5rktsxlgnRBcxxvhI9621J82fM+vGRfNmP+FY5+ogCHjukG2gcwVBMpVmBQfvgz/94Q9/CIWvMDNPX+o7n6f9U7dEQAREoKAIqLMiIAIiIAIiIAIiIAJdT2DhwoVxz/OqcKRtYHRRx7F1vcpLOIOKN+VIsztByPq/aNT9Q6+y0oPKSmIVEdfhzT3vg+MQrlDGPBjNmG+PHj26mhFZAwIUlHZCyhGw02CXwn4DI/e/w38J9vZ6+zf8J2BzYbfBfgw7HzZmvY2FT/GKItZdCD8IexHGJ8O+C597lD0FfyGMwtdP4Z8Ho9C1H/z+sPXnFSG5kMCIESPW+ta7GGrV0xCrDK5vWChmOUFgYMHutYnEN4w1FBdjYSW8uBFn9Zrqutpw6hbiEIF369u37/yqqiqKkkjJT8c3bn72TL3qqQQ0bhEQAREQAREQAREQAREQARFoiYBdvnz5+CAIjoGF5XDzHmQy3sU24nwlEolkZ1Lx/jyNAr1gFD9oCJoIyruBCV5y0sG5A4cN+4yJPdyoDVCw4mwozqKaCR6fwihQPQn/Pth1sG/DTocdDeNeS/3gczYWvI1yPG4ZanIW14HwT4FRuJoM/y8wCl3cy3A5wq/AKIztDZ91KEZmzymSeqY79dSR7/kmAoExeC3iukFJPGogXtXDSKYyJpHi22BdUkV5edrP+MMynn8pRFy+R8IMvJeOTyQSo8JI972060i8WNpVQYVFQAREQAREQAREQAREQAREQAREYFMRuP3224+GAPXH7PERxr13MA0333fU1KSm+hlzgnUczhDyUaaBuIKyCcexyx1rLsv47oknDRv2AcoUsOtw1znD6Vq0cj+Ms6g4G4qzqChkUPhDct44CldcmkhBi8Las+jZHbCvw3aA9Vg3ZMiQ991Y6gg/sF8vLYn9r6ykfrJVyKS6JmEgZKVx/U9dubZu90GVIx+NxWLT8cb5GwqEIhbCyLZ/mj59+mFIy0vn5GWv1CkREAEREAEREAEREAEREAER6A4COkZBEbj55pvLHMe5DjfbnH0T9h3hZUj71qRJk9KjR4/2Tq2sfPzjT1d+e01N4rOauuTaRDLtJ1Npk0x7LweB+UpNwtvnlCEjflNZWbkybKDnvHBt2XYY7nAYBcCP4XOG0//Bp5C1C3zObIKX147j2AI9PAB2FuwPsDdhD8MugQ2A5Zv4hi51rTv55NGrBw0d9qf4Jyt2jcfcodaal/G+gGhlYDZTm0i9+eHHy68YPnw4RcoA75W6mpqaEejVMljWkRuXiWbjeeVLwMqr06HOiIAIiIAIiIAIiEDhEVCPRUAERKC7CJSVlf0CN+WH5xyPTx/88tixY+vFqMmTJ8dc1/1dOp3Zqi6R6lNdm3BqE+n3Vq+pHjq4csT000477ZOc+sUe5BK7CgzyS7A5MIoV9L+K8JawYnEUNI/DYH4Hexr2Aoz7aFGwo+CFaM9wAydOTAwbecZCa52LgiBYCdE2GgRBxPf9L0Sj0WncPy5LAqJvrbX2cuQns2kIHzd9+vSfwOe1k03OC18CVl6cBnVCBERABESghxPQ8EVABERABERABFohMGXKlB1xs30+bqxzS/5+/Pjx3Aw8TFu6dGlk1113/QnKHZsth3A6k8lccc4553DmSViuh7zshnHeAOPSwMXwh8L4tEZ4Re0ovOyKEU6GvQZ7FnYarBBml6GbneMg6j7sed4PIPiGDfL9AGH38BUrVlxQVVVVL+qNGzfuXpS5Piy0/gVlvzdt2rSd10fzxpOAlTenQh0RARHoGAHVFgEREAEREAEREAERKFYCuOHuj5vsR3BjzdlE2WE+mUqlfp6N0H/vvfeOj8fjl/m+H97roo5Bnd9PmDDhr8zvAcaN2LksjJuwU7j5Bsa8PaxesEC4J7lyDJabw3MTes7MugJxPlkRXvE7vA/uwPX/Z7wPPI4WghYfYHB9IpE4lvGsIZ8b9L+fjcPnUt0Z1113XV49lTB8U6NzciJgjBiIgAiIgAiIgAiIgAiIgAiIQJ4RwA24TSaT49GtHWFZV2etPR//1mYTpk2bto3run+CqEURxyA/wA38i6h/DcqEG1XDL1ZHoeFIDO7vsNkwbsLeB35nO3LkcrNqNMwnA1L04LJEbqz+DNIehXG2FwUjbrA+BfHbYdNgVTBuEP8Q/Kdgz8M4O4wbsn+E8GpYLSwD6wq3Dxr9Cewt2A9gXF7I2VoIFqebOHFiAu+D7+F9sAx+OEiE3Wg0Ormqqqr++hgzZszHeO9whh75h+Xwvjlqq6224jJEB+G84CQBKzw1ehEBERABERABERABERABERABEcgnAi+//HJs7tz7Dlm0YM4dm/Xr9cv+fStMv15l6Xg8mnAcZ+ayZcv+k9vfSCQyGTfae2TTUGZlPB4fPmHChC7Z8yp7nDzwD0UfOLvoH/ApYsHrVEeRkJu9U/wZiZaPgR0E2xe2P4xh7kt2NMInwobAvgwbCzsXNhE2AXYmjPVPhs8ZQOwr+87N2NnWfkhnO9xQ/gKEb4W9AaNoBq/THMUYztzj0lPOPCrqZZVjx45diffChRCwVmQJQsQ6EaLwrxAnC3jGbLPNNq861j6K91BuuSsfXLLgX4sWzL5k+vTpvcOCm/BFAtYmhK9Di4AIiIAIiIAIiIAIiEAPJqChi0CTBHADbefPmXnah++//XBpLPYMbqrPwl12HL5xI260V1lJyWZ9K0YecfjBf3xw5szNWH7atGmD4I+HZdtM4yb9utGjR7+XTShCn08NvBnjegxGASgGvyOOM6v+iwa4yTuX2nHfqL0Q3xxG0eln8DmDiksTWY5PMVyFNG6kn4CfhnGpGgUnGqIbOKb7SOUsqxR8zvihQEbRhLO5XkEanyb4F/hfgX0BtgXseBg3nud4OXuLs7+QtNEOl5TZDLW/BePMsbPhR2BF6SBicT8sPnkyHB/eG8Z13bOnTp3K68YsnjfvwHSidmb/vhXHRiIul12G5fBSumLV2t1cx/3tFv16P79gwaxz8R4jO2R1v5OA1f3MdUQREAEREAEREAER6CQCakYEREAEiosAN2FfMn/uxbiJvtPLZI7IZDyLG+YNBom0chuYCzNxd9Hc++46KBqN/sXzPC6j49JB2kPjxo37OSpSMIFXVI4zhjiziUvwLsTIOiJcfYb6XPb3ffhHwA6GcZYUN0CfhTA3QafQhOAmcTx/FKsewdEpXlHE4gwwztriXl9cmshZWh3pI0Wc6Wh/Hqx+Bh/CxeZuwPuG4mM4LohYvSKRyPyF82YPM45/v+elhyGjrKKspMF+aemMF0ml054f+LtGHPeWxQvnXHjzzTdHUbbbnQSsbkeuA4qACIiACOQVAXVGBERABERABEQgbwikqldVGif4NW60mxJlAsf5/BYWZbhB+2GBG3sik8lskx0E0tdaa3+I+CabKYJjd5Xj7Bhu0M4ZSvV7GLXzYJwtxVlOFIA4i4vL/n6JNrikjrOhEMxrx1leH6KHnA3GpYlcxsgnLnI5IGdxIavdjhfWINSiKHgG/KJzEyZM+ATvjfMwMJ5/vncMRKwdjDVVSN8S6aGLxyBrRVyKhpxRl0aeu2ZtHWfNGd/zo67j3rTDtltxdl5YvjtfeJK683g6lgiIQBES0JBEQAREQAREQAREoBUCXJrDG8xTUY4zRs6Cz71uNocvJwIhgfnzZ+7tO84tQWDqZ3cgHNQmUv7q6rpg9dradDqVodDy36yQlc54Zm11bRx34+ENNoSrNOyqsWPHcqYJZ++EbRfJywkYx0uwwbD23suTBUUr7kvFGUdfQhsUgLgZu4dwITsufaRw9X8YBPfR4v5aVyNMEQZeuxwFQs7G4syuTb7nU7t63obCiUSCm+b/Ee+RDCzo06vUh8/P5/XvH2cNRKqr4vEoZ/hxdh5FLM8PAifjeaHw5XmeA9HrV/fPmbNtGw7ZqUWcTm1NjW0sAdUTAREQAREQAREQAREQgWIjwNkve2NQ18O4Rw6fVMank3EZ0J1I4z42n8J/HFYJK7qbRYxJrh0EHOtc7FjL/Y7CWlBcUqura73auqSTTmcsxKpXKkee9n3PRA7zAp9PufORly3LZU+4zw6eTafTN4SJxfPC9xI3QucTBndt57C4gT1ZUbCiAMYnA76JNihMwCs6xycZck+wyzEy7t/1I/icVdWeJYZ8iuU41LsHthOss90ma2/SpEnp8ePHfzsIghciruO7VIKDgAJWEuE638uMGjxs1I9HjTpjAcrwoQBl6Gz43oKKFUU4dLggd/AiAfcPC+Pd9SIBq7tI6zgiIAIiIAIiIAIiIAK329reAAAQAElEQVQi0LMI8AlX3JD5Ygy7qeVgSA7dUXjl3jN8ilr9DRLSWnK4fzJss5j3q2lp/EWXt3DhfdtHrHOW74cTQQzvq/mUtEzG481zdry9qqqq3MrKypXGxsamveCNVNrL5tHnbKKLJk6cGM4UYUIRGK/132Ecf4W1xwUofAuMMx/PgP8QrKc5ziDiPmiHYOB8siGXHSLYZncKSlJgp6CFYNE4XlM/j0fdNdbaUBOCX5LyMncOGX5aeJ0gHsAodGYHHcV78+lIhFpXmIRsy+WIYaS7XsLOdtfBdBwREAEREAEREAEREAEREIE8IND1XbgRh7gMxhsleG1ye6LUM7B+sObcd5GxFMbZXNyrh09KQ1SukAlQlLK+8ysoLvV7OjmOnb96bd3tGFcdLHS4Y94NotbVM2bMOGjFihVD1qyt2dquv8KstSYaiTw4fvz458LCxfHiYhgUYL4Gv62OvCh2cZPzSahEUQ9ej3fcqJ5PNBwDEv+BtdVxmRw3iWfdttbJ93LBuHHj5sTisXeyHQ0Ck6qpSQ2dPn36/ng/ltJ3HGd8Nh9+UJdI3+T5Pn9oQNQY1Om3ZP4cvkfDeHe8SMDqDso6hgiIgAiIgAiIQNER0IBEQASaJTAQOXxSGLwGjjeBf0YKN9e+Bj5/6W8wfQZpvOnmk8/qf+ZHWq47HRFuOM1lVJyBhahcoRPoX1a2E26WT/F9P5SjIhHXZNLeH3faaad3rLW8TsIhBkFgI5HId6LR6POwmYjnCl6mvCxO8SYsWwQvZEHB9gcYS1tnJj6JstyI/Hz4L8PkGhKgmMfly0ci+WcwxuG16nZAiYUwfu7AK3yH91XgWLM53kPhZzDee5l0JrM53ocLEL4b+f9AHscdDhbxlUh/0DfeT13XXTdNMggcBEYtWjSn28Q9CVjh6dCLCIiACIjAJiCgQ4qACIiACBQfAd5fcJPtxgIURSne5HAD919g2Lwp55KeCxAOYLmO+/Qcn5ugcPESwE2ykzbp64LA9OcocaNsMp7/zNq61IMDBw7MLFu2jE/K+zfSw+skk8mYZDJpUqnPtzSykHoqykpNxOXlx1aKws7EKH4Ba4vjHnNXoeBxMG7UDk+uBQLcJ+snyOdm9lzmDB0GsZYdxStu7l40wrnjOFwmSNHXt451TBBYz/N2SKfTwyBW9cN7M0skjfi3xo8f/z/Pi/wjk/H+Zy3edMiF19t6pqkfLJDb+a6o3uGdj0ctikC+E1D/REAEREAEREAERCCvCFSgN1xyA6/ecaP2cxALBQj4uY43hE1tuP2V3EIKFy+BJQvmHGOMMwg3y5ajxE11EnfS3xg9enSoUE2ePNnPZDJDkHeftTaIRCLGdd3QkJZxHcdUlJWYeCyCqOGG5fQL3XbEAP4Aa4t7G4Uo+P4YfgYm13YC76IoZ2P9Bn5bHMtyBle0LYXzvYwXmJfxnuJndsYa68Zi0XA2VrbfeC/yfbbSWntVSUkJN/83w4YNq7OBw6fIhmXxvjXGmjGL5tzL2bOmq/85XX2AvG9fHRQBERABERABERABERABEegsApydUNKosbcQ535V8DZwvOG+GqnZpTycGfEg4k/B5HoAgcAE41zHhptkOxCjfN9fGivr82Lu0CdOnPh2Op0e73neUPiXo8yNsL/26VXmwSBeRQ3ivh8Y7qGWW7UQw1wWOQcdD2ekwW/OBci4H8ZZV8W07xeG1IVuw6b52cOlmtyQvHbD7AYpFrFhsFNhhe8C714LURgDicGzFeWlq2Kx2GuRSOSNaDT6HMSpKRCPR40bN+5KCMqhYIWywRbbbvsUyjyGuogaA3/LIBIlP9PV/yRgdTVhtS8CIiACIiACIiACIiACPYcAb3IoSuWOeHtEuBk1vCbdCqTyKWuD4XMD95PhMw4vdAfjdTSMS6o2g5/rdkKEeVnjU8N4k4nkBo73PewHl7pQIOPTtTj7go+J50bwfJohxbcGlRpFuOQxexz6B67P59hY/ybE+cQyxhHcwJUi5VAYN7h/Fv7HMO5TVAWfY+bYEcxv15m9WzRnzhccxx3p+dkVXEHa+N73Bw4cuMFTBCFiJc4555xFEyZMuHrs2LGXbLFZr//EY5G449Sf7g9tXeqBzuzfJmqLsw8PauXYBLYYZYbC3ofJdZzAbWiCM9nWwG/JcfYV37PbtFSoIPKc4H4/8Feyr0Fgoq5jN+/Tp+yXtbW1A84666wBEK7OxfuNn5EsUm+HHnpo2vP830Lk4nVI8dhEHOf0efPmldUX6qIAP8i7qGk1KwIiIAIiIAIiIAIiIAIi0IhAsUeTGGDjWQy80fsO0ptzaWT8GMYbcs4qQbCB4/LDu5FyF2w3WK47GhHmZY37bzW+x2Gcm8f/G2X/CKMQtQt8blDMG1buhUMhaT7SNoc1565CRvY49MciTsflR/9CgE+Ka24ZzSHI5zG4yfY3EGZ8S/jcg+fL8DmThk9Gm4hwj3BBEFjrmq9CftoiO2DXjSxeU/cSz1M2qUl/8eLZO0Xc6M855YoFrLWZwAkuHDJ6NJerMqlQbSt0/Huw1ty9KHAarLFYjCS5DhCgsEyuXittUIzm+7iVYvmdPWTI6R8Evv0pepkVoqxJezdss02vxrNoUaSRc1c+4HsefwwIM3zf3zbqepeHkS584Yd5FzavpkVABERABERABESgswmoPREQgTwmwJkznNmU20VoFIZPHqS41Hh/rNxyXRHm/Q6fHsblLdzrpbljcPYVZ0E9igIU3OC1yV2KUpfAwiVw8LkhMrwGjvs3UZzjJtDNzc5iBQpaFNguQ6SlcsgufPfY3LkV1poRPoQsjiYWi5l0OnP76NGTw72vmNacRUzk3FQqxZkwYRGIYa+XlvZ9JIwU9su30P2WRFRkG87yo1jK9xrjss4l8Dc0R1E5FHUQbs5RWKeQ1Vx+IaQHQ4aN+L21luL6uv46tsJ60YvXRZp/PfXUCTWeb6ZEo/VvQ8f3g7NmzpzJz7HmK3Ywhx/oHWxC1UVABERABAqOgDosAiIgAiIgAl1DgDd930bTjUUIikfcZ4bi1j3IPxHGJX3hztsIt+S4L9YHKEBr3C5nfDE9a1xOlZ3FxbY586rxfjWcpcO9kp5AmywPr97xSYlcMtOWpTC9UOuHsFzXWMCiGME+1M8yQmE+MY7H5jJJzqQhEySHjkIYhT7uaxQmFOvLWsf7qnHs9hCfDG6gTTqTeS6R9h9qbbwLF1Zt4fs+RcOwqLUmbfzg1wMHDuReRmFagb5QtOTS1Ja6z+W2XEpLv6VyyusYAe5BxvdtS61sh8zvw4rA+X/F+5Cf3Qa+cVznnKqqqlbFuUg8vSSTSa+21ob1YtHYTmVR50tdCUQCVlfSVdtFTUCDEwEREAEREAEREAERaJIAN5Se1mSOMbxJPwN5FCq4ZO4FhM+FxWDNuV8gY6/1xqV6CNa7eQhl8+iz7fBGDOlczse2Eax3FKy4p9YRSDkGti/sMViu435WbCc3ranw+UjM3ZOLG89fh7Ts8RE0N+Mld9YZ805H2rEwzt7iTA/25/MZEMbwHo03zxZlitItWbJkS2Od8wI/yE7f8B3f++2oUaNWtTZgJ4hf6QdB32y5IDAvPvXci1Oz8QL2B6Lv3NMNXrPuB8ihWAtPrgsJ8H3KJYK578umDkcxsS1id1N18yYtXtb3D9bYN7Idwntqh17lsZ9n4835J500akUQ2EustWGRTCYTMdb5xuOPty5+hRU24oUfjhtRrVOqqBEREAEREAEREAEREAEREIHiJPBNDIuboze3Rw/veMpRhgISN09+G+Ffw7aENXacZcXZNbTGe9Nw/yymZ41ls/UnIZB7v8O+jEIaBQDeoAYIc8NmikiNhZOLkNeay4ovnEH1RRTmflycVcV2ETWczcX9dBimMZ03xUsQ4fHhhY6zabjMMPdJjbsjhxt0wys+F2RqjnJddy/O9uDoXNf5rM5zWt2Afd2NsR3JOuvN84y9evLkybk812cVlMfrlPufUeBtruPcP43CZtBcgTxPL7Tu8fOCn0kt9XtrZOaK2IgWnhs4cGDGuoY/FITXFt+XjrUTlrSyHNBaG2SCmgWRiPsORx3Wc+2A1ctjFGOZ1OnGN0qnN6oGRUAEREAEREAEREAEREAEejQBLqWbDAKHwbgHFQUmBJt13HeKez+9hBJ8Uh+8DrkIanOmE7x69wlCjWdwIcl8hJenYbnucES4yTu8Fh2f4MXjLEWpxiJK9imFyAodxbLZYWjDl/eQ9CIs1/GpjDnx4glaEznb99fhcl3XZDz/xtWrVwdTp07d+7bbbjtoypQpeyJMgbPBoFevjFxiTEDRIEy3xrxeW5vkcq8wXsAvnIF4Qiv9n4n8UGCAL9c9BPh+pUDd3NF4jXIpdHP5BZOe8Wvm4b31WbbDvh/0D6LOoGy8sY/3aUlVVVWssvLs5alUZgnfx+vL8FrmDwXro53rScDqXJ5qTQREQAREQAREQAREIF8JqF+bggCXCFbiwFxGx+VPjWc6IauB41PYuBSvsfjToFAbIvuhTOOZEXciLXeGFqKhoyhwSxhq+MInFDZM2TDGJxByP60Nc4w5qlEi975qafycGZZbhTO4cuNFEV6wYMFOxgaHcrYGBwQR6oO1a+sca+2DkUjkubKysmcdx3ke9sC0adMoDrKYCTeHDpyrsvWCwPgIf3P06NFeWKCwX/qg+7n7pCG6gYPAsEGaErqWAEVn7tnX3FEolHMJcHP5BZNeWTl2pfECzjzl5yH7bQNrr126dCnHyLjB+81Onz59HGw23quLksnkfIR/kkn7f/E8L1Sk4ZtoNHo0y4aVOvlFAlYnA1VzIiACIiACIlDMBDQ2ERABEdgIArwh4vK4a1CXAtX+8L8CewLWlOM9yiVNZbQjjcdpXLx+j5fGGYi/BWvstm+c0CjOJUYt7b3EWWW5VSjicSYaBZemrPEG3v1yKxdL2PrpAyA+hWwt1Ks1NXX90176cmvt/rj5LUmlUjz/ZYgfBZuCG+TrOdujpMRQCHWzHBxrPvVslPutZZMK2ad4VT+2JgbCmX4tXb9NVFFSJxGgoN5SU122XK6lg3ZFXsmK1RRJuZx7ffPBFnXVq8cwMnXq1L1nzJjBJ2D+Ge/LERCYT4SdjPCPV9fU3JvxvOUsR/MDr9/ChXP4IwKjnWr8cOjUBtWYCIiACIhAiwSUKQIiIAIiIAI9mQCfIsiNkW8FBO4ZNRz+K7DGjjdN2T2mGue1Jd6/iUJNiVTZYk0tE2pNQHoVlbn0D16TrvEMMBbi/VdzBjmHReqNy5PqI8USsNbZMhKJ8GmLpqYula6tS9YGgY0HAXVOY3BTHA7V933O+CjHDfLFJSXRMY7vXhxm4AVpgW/MtZWVlRR2kFLwjssiWxKwXscIKXrCk+tmAvXL6po5LvevayarsJIHTpyYQI/nw+qdNcHEKVOmbIf35QIkHon3aQnfm1lD3IXt4HkBRVgU2YUsiAAAEABJREFUgQtM1PF9PnkWkc51/PDs3BbVmgh0OQEdQAREQAREQAREQAREoEAItHa/wV/8uVSvsRBBgYMbmW/sMKFvbFCVbW6QuD6B+7asD9Z7FNvqI50QoELDvcHaap19/E4YQseb8IMM7n19ClVBMpnmeQrFK4pSELaqgyCYGYvFViMeHgyFTcSN/CIwQf2y0iDw3x1SOfLasEBxvLT2PmlJ3CoOAvk7CttK18payS+o7LW1qe8ZYylkmfCftSe4rjs9CIJdYGESxKygtLQ0iXSPCY5jAxjfy4yG1pFfH8IGGrx8HmntjfJ5SYVEQAREQAREQAREQAREQAREoG0EuC/MH1D0XlhrjuIVZ2U1LrdP44R2xJvaa6olQWyXJtr+tIm09iRxXLnlP0RkZxiXz7XFjkHZonPWjbwZ+P6qRCpV7fl+FEJVDJbBTfEbqVTqmBUrVoxJJBK74Wb5YaSH449FI5xRx2WoYdwah8Kn6UH/+F6o34uo3eNWhY4QaGo5ckfay+u6o0eProMeNSXbSc/zLURk/sgQJuE9yc+1MTU1NQcgYXw0GjVIs9GIWy/0Oa670q1Y/TzyO91JwOp0pGpQBERABERABERABERABHokgVKM+pewf8O4N9HX4fNpVPvCb8kFyKS4A6+BSzeItS/S1HLBQ1poon52T06ZZdnwRvpvNqoXRZybyK+A35Tx3oyzObJ59YINyheN833npcDatxKJNMeKMQfkYiFY/W7ChAn/uvjii5PnnHMO99Ph0wWDeDSagoCFcutmhQSB8U3gcQlq0TBpw0DIiqJwG4qqSCcTOKmT28v75jzr3wlRKuxnOuNRoHIQx9vW4m0aLB4zZszdeI++vs0229yDlD/1qSjjZ3goYLmua1Kp9BMDB4bLEcM2OvMFHwSd2ZzaEgEREAEREAEREAEREIENCCihZxDgspOhGOpesFx3DiIt3XdwedTeKJPreEPUlAiVW4bh5trlnkGNZ1Cdhgq9YY0dj8+nb+WmUzz7e27CRoQbP52QT5rbsYV2rkQe9+J6Gv442Od7yiBSLI77VqXTmVt4Y8wxQZDCjW/g9K4oPWPx4rl7zpkzp9eSJUu499XWJfFouqKixMXNs2tNEJ5r17X3DRp22ous28NsWA8bbz4Ml+/BEfnQke7sw+B/vvQIPoCfzD0mlCu8T43Pl7lz524zb17VdnU1qyf37l021oG8lS3r+3w4qN/SkxuzRTfKDz8ENqqmKomACIiACIiACHQjAR1KBERABPKeAO55zFfRywZ7oSB+Kez7sObcYGQ0FrC4sTsNWS063mA2V+DmRhkliB8Oa+x2RcJOsFw3GxHuVQVvo92zjWpyD66bGqVlo5yFRIGC94eHInEa7BZYUbpVa2o4y8yFMMVrhvthrYy4zonWC56Mu8E/g3Tiqc369rqgvDQeAxAIjChmTe9YNOoHGXtFUUJpfVBfRhGwwKtcdxGYgAM19TAGJBevs5Mn+yblnx2LRT+DOFU/0CAIXDfijo65wbKYW7IMutX3TRD0yhaweLMmkmm7YnUNZwxmkzvVdzq1NTUmAiIgAvlMQH0TAREQAREQARHoagLc9+S1Rgfh3j0UHRYifSLsRBiX5XCW0V0Iz4JRwIFX75jeWAhjZuNldXySIYWf7H0NlzGyHO0OvHiwrGMZzgw4Ewl8QhYFrZMRfhDW+Ibrj0jrqOMMstsbNXIs4jNg3AMLXui+gFfO9spNQ5L5K1+K0ay1p+NmmFM1MoExQVlJrC/G6SDc11i7l7FmZ2tNX7P+XxAYiIl2ZdLzvnjqsGF8+uP6nB7l7YXR/grG6xieXBcT4GzNS3AMyDJ47WFu8KhR76QS3pBYLPamYz+/5DIZz/V9vxRWgvdwA0E1mcpk6pLpwHGcU7oK1+c96aojqN2iIqDBiIAIiIAIiIAIiIAIiEALBGqQx5uX9+HnOopYnGlFUWYpMigacZYRxSTmIanecUN3bgBfn5ATeDsnzCBFqLkIfAKjuPUGfIpT8Az34roGgVwRi6IIxbE1SK+G3Q/LXdYHDcVQdKKgZDrh39fQxn9huW4MIlwqSIGLfaRRiENyvXsIoaLcqHz69On7WGuPwvh4Lxp1rV0ejURqkIYkqFlQq3BjHIGFwoG1xoOg9ZZvkwOHDBn+D2stz1FYtge+XIgxc/NseHJdSCCOtqtgO8B6qgsGDx/+dCoTHBeJOFyyW/+DQk1d0tjw3WngW+O4znKkJdZU10UymYzFv2Nvu+02fjabzv7HD43OblPtiYAIiIAIiIAIiIAIiIAI9FwCFK+4FxbFrPZSoNjDGVpNPUWQbV2FlwysseMyn6xwlZv3E0T+AmvsePvVYPbA+gKL4U+CdZZIwn3Bvoj2Gm9Sz+PziYScVcMwitQ7MjijPlZkAQhTJ7iuG842w42ucSORp23a3ycw/lXGmvdisZiHdJ6blYlUZu3q6oRdvrL6/CFDRhfizKvOPnu8xikAh/w6u3G1V0+AS6EpxNcn9NTAiBEjPqytS5wL4Yj7AvJzsTrjeamMF1Rbx1lkAveLqUziQM83/OwMMfm+v1MkEjk9jHTyC/rRyS2qOREQAREQAREQAREQAREQgZ5O4CUA4E02Z4xwhhGizTreFD2G3LNg+8H4BDp4dBsYZ2BxX5rVG+SsS+BNVv1MASQx/A343EiedRFs0v0PqVwuNBJ+CtaUa05Ua6psbhpnW3GG1e+Q2JKo9wHyJ8MOgq2EFaWDODXQ87xQtMNNrkmn0wuHnH76+089/eJPS8r67Prhx8u/9NnKtQGsX3VNXS/P89+uqanh9VSUPDZiUNlZhFttRF1VaZ3AV1DkN7DwGoXf4100Gn3TjUY5a5VMKoLAOqvW1IxcU50YNqiycumwYaM/SKVSj7kudWdjHMfh7KuTly5d2nh2bYdZSsDqMEI1IAIiIAIiIAIiIAJ5TEBdE4FNR4CCz59x+P1hA2BjYVfB7oZx+eCP4HNjauYfjzDTOWMJwRbdncjdDsZf+H8Ln0/v+xP8X8I44yoJP9dR1JqKBG7WfgJ87sfFpYxMuxpxLm3kMsIbEG5OvEKW4dPItkAga2wL0Ta5d1CKm9lzpthohH8BmwK7FfY92CgY98Ji37i0EdHic1VVVTGIVgN8n7qiMfATuNldwpFOnjzZHzhwIGfXnY94eOMLsYtlrrnwwgvrkCb3OYFjEOSMF4lYANFJjtfceWjr97B1SgwCcsYsW7asGkLzTL4fySMIAi7xHTR69GiP8fX2EN7bYRDva4pYR7799tucMRimddaLBKzOIql2REAEREAEipaABiYCIiACItAhArzJeQ4tcFP1H8PnTCvOovo5wvfC+LTBdYoGIm10nMk0E2W/DfspjHtN8UmHFMZ4PCRt4AKkPAzjLCeKJJyVdTniFAIonCDYoqO49RlKZI0CHaLtchTXuJH8D1HrXBhne3Bjbj71kGNCUvE63AQfj5vbzbMjxI3w0kQi8VE2Pm3atG0QPhnpFr7BDfMqlJ8Dn+eOSbLPCXCmHmc37v55kkIbSYDXGz8LKLjHNrKNoq1GcRni1DUQm8Mx4v1J/2y+ZM113XdTqdQyvFcN8xHfLhqN7pHN7yxfAlZnkVQ7IiACLRFQngiIgAiIgAiIgAiIQM8mYCFGnQoEvWCcoYH73OCR888/n5vvM4mC1ZEIcJYaPGNwE/xWXV1d0S6nDAfZsZd+qP447AKY3MYR6I9q82EUtqWPAERTDu/FD5H+DCzr+k6fPp1Pkw3jELj4Pr2bAhYTMplMGd7vnN3KaKeZTlCnoezqhtS+CIiACIiACIiACIiACIiACBQmgRkzZvTFzS1nYFmOADe8Hm5wn2I4xw5zHIdLuShwcX+shydNmtSW2XE5TfS4IJe0cgntzRj5LjC5thHgPk3c844zQIegSnhdws8Tl1/dGD16dArv31wBqxwKNB9QEXYU+R7i/0CZ7DJwB6LXkZ39NEIJWCFuvYiACIiACIiACIiACIiACIiACHQVgUwmswVEqwG4yQ0PAfEqVVdX12BzduR9CRbmQ8iiiHU7Ihu3fBAVe5Djnk18YMLrGDOX6Oo+HyCacRSqSpE3DzYLtjVMrg0E8B5+EO/hsCSEKs6Y5N6GYZwv8Xj8hWg0yiXW4TJCvJePQNpuzOss04XdWSTVjgiIgAiIgAiIgAiIgAgUEQENRQQ6kwBueI9Ae+H9J8Upz/Pui8Vi9RvWT506dRek74abXhQz3Lz9vyjzRhjRS1sJcPYaH07AZYXD2lqpB5XbEmO9DsYnkn4Jvlw7CECMWor3ZLjHIN+neE8fklt95cqVq1Kp1H/wPg6T8f7uD6F67zDSSS/hB0gntaVmREAEREAEREAEREAEPiegkAiIgAiIwHoCrusenclkOPvFOI4NcPP7YHl5uY8b4TANxUbiZjfcHwth7n+1tKSkJLsciUk92bjRfTizpQ0QoihDsZCzix5A+GQYZxzB65GOmgefWsoHJ7wMAt+CUciC1yb33zaV6hmFKDjPzQ4V791e06dPP4NxhO0OyaSD9/D96wWsAO93ZjUQuZjQEePJ7Eh91RUBERABERCBLiSgpkVABERABERABAqdwMyZMzeLOM6BsYhrelWUer3KS2yfXmW39CqPP7p4wdyxi++7bxvcmJ4AUSvKsfIGOJ1OP8V9dRiXmf+AwSjYGlhbHZcVcpbR/ajwJGw0rDcsKxgiWNSO19IXMMLfwd6HXQXjfmHw2uS4dHU6SvKJpfDk8H5MRSKR+7IkIFqVQLA6Z+mCBVsvWTR/vLPrjrP7VJRd7kG5wnt5le971RCuj6qqquq0JzvicyJ7ePkiIAJFSUCDEgEREAEREAEREAEREIFNRGDu3Lk7lsej9/TuVXoExCsTj0Zc13GM69g4lJTDEJzmlsdfdFz3JNwQh73ETTL31+EyuDCuF8P79kfB4QBYg33DEG+LY707UPA1GH0u63IRLkZXjkFNhD273r4Bv72OM//YBsUrXKbtrV685ROJxH/w/kxzhNbaoKK85LiM679oTTAFb9pBjmPLHdfhhu79gsBUBIF/dFk8OpciF+t01PhG6GgbRV9fAxQBERABERABERABERABERABEWgfgfnzZw0oi7kPWMcMRM0N7j0D3OH6fmDSmcwWfhBUoEzoMpnMJzU1NdynKIzrxWRFlHfA4mjYL2AUWeC12VGw4obl3OT9RdSiIMZ2BiPcF1bIbh90fhKM4hz3TfsrwvvDKGZl2SHaJvcUSg2FTYGlYHI5BJLJ5Duu62YgXvkVpfFkaTxW6nl+H9/3w43bIxE36jpO/Ywr5AV+4B/vufbB+fNn7pfT1EYFN/gQ2ahWVEkEREAEREAEREAECo8Av8hvi27T6m+cEKdjWta45IJpMhEQAREQgdYJhCWWLJm7SzwSmeH53h6eF+77HKbzxXWdZMR163ATHGZk0hkkc8WWMUijzTfGhLM84MF8fAoAABAASURBVMs1JFCDKPdzOgY+Rb6QIcLtcVxedyQq/AC2EPYhjJu/nwCf+0XxbyI3hEc0rxzFqDh6tBmMywO/Dv/fsFdgf4KdDdsGtjGOXP+CimTwEHy5Jgj069dvDUSslyrKStIlJbESFIlBiI7jfRtAuKqDivUxwlyy6SPP4F0d9/2gJJ1J7RuPxv/84IMzee6YtVEmAWujsKmSCIiACIiACIhAERDgl11+8aWd12g8TMsabxIaZSsqAl1JQG2LQOET8NP+N42xX/B9n6KD4T+IWYmaRMpbsbz2DJMO9vJ8/yrHOh8k0x7ue1nCULwyEWvvv/DCSVS1jP41S+A55HBp4CXw62AdcdzkfTwaoHDzKvx/webBJsMo6JTB31SOmsXOOPi5MApMnDnGv8+cRfYHpO0F66j7GxqgoPcV+EmYXDMEttjiVb9XeckLcahREK7CUkFgViH8UNJLHeg7sf1Ticy343HqjKaOb/5UOrUa7/MA4SMyCefSsNJGvvBi2MiqqiYCIiACIiACIiACeUqgbd3ir82cXUWrn+6+virTaNxrhBvgrk+WJwIiIAIi0BqBhQsXbhGLxb6UyXyuQSVTmcyqNXXxZDIdZEzms5OHD3936LBRk2uSiS+n0unl2TZxI2xKymKXzZ8/j6JKNll+0wTWIpkiDpdm8UeZ1Yh3xFEf4N8+CkaD0NBPYRS1PoVP0YiiFo9HEeJ0pB0F2x3Gp/pxGWI5wpyVwxleXLLI9qBbmKwxzpld/JvL88unTvZHne1hFOP4xET+oHQl4tNgFKs4O2wZwlwWyH2pDkWYm7GHCgnCG+s4c41C3Rg0wCWDfEJhgLBcCwTWrDm4tHevimE4oeRnrLVBxvOWJdLBGcOGnfHGkCFDPrURu8zBPzRTggL4GIDEhQrpdNpGY7ERHdnUnRcQ2pUTAREQAREQgYYEFBOBHkBgDsbIZQfwmnX8Eh1+SWu2hDJEQAREQAQaEHBNZn/ctXJfojDd87x0TV3CgTiF+10bwb3tebiJ7T99+vTeNTXJPXB7SzEiXHLECr3Kyw91XY8iCqOy1gm8iSJfgx0B495N9YIg4h111Aw4A4sznSrRGJftXQf/Xhg32ufG8BSYKAY9gzSKThS9FiNMwYt/a2lzEV8A449C/4D/BOwFGJ+w+F/4nFHFPM6y+jHi42CcAb0VfIphkEAQ6rijSEWxirOtDkFzd8I06woQ2uLi8cwemUwaAiJ0aFTwfd9bW1O3Q3V19U6ImsmTJztIOxTvf0atCQIbidj697bn+duVl0frPxtYqD3Gi7E95VVWBESg7QRUUgREQAREIL8JeOgelyTQR3ADx1+c/75BqhJEQAREQASaJRAExgaBv6uLfyxEL+P5z+PGNfys9TwP97TB+YlE4o0gCF6LRCK3wueeSyxuohHX8ObXT/sUTMI0vbSZAMUkzmDirKgbUasW1tWOmgJnUnEWFc/ZABzwWNiXYENgw9YbxS/O6uKG/lyudyDSd4VBDDGckYVglzqKKFweSVGMfbwNR/t8iiAicq0TsH5sRz8wEbzPI1Cj/YyXWYswRca7IUiP2X333b8Lgfo36XR2CzvrRKNRlA/CxqF39Y0Yl9dKGG/vCy+29tbpxvI6lAiIgAiIgAiIgAh0KQH+Cssv/I0Pwi+1/KKd/QbWOF9xERABERCBJgg8++wzvFk90vepFxgDgcrEorEbrHXvZJhVkOfg5rc/bGuIVVGmwRz8M+VlcQhcvnEjEQobSJZrJwGCX4U6F8O40flY+NyonX/XEMxn1yV94xLEK9AyRTUuP+TMLz1dEEA2xpWUxvgG5Ww4D8Kzn0z5CfgG7+UvuK47A+/hq/H+5jJUpsHMK441v8F73+PxkG+9wD9y6dKlXErKpHaZ067SKiwCIiACIiACIiACxUUggeF8CxZ+sYKfdf9EgBvkwpMTAREQgQIhkAfdTKXejATGDsBNbNgb3NwGjvHf8P3M5RCr/oYb2BQMN7a8BzahjzifYJbuVV5iXIe3qMgLAj4VzuhfhwjwaXB3oAXu8bQ//N/DuGxvDfxidfzhiePmckTOsuZSVG5GT+Gqo5vdFyuzNo8rmUj7eE/zfRvFSzIacWMQryA6B+HMSc6wZGNMw/t6JcJXxUqcxQhTWA3LWWsOSKVSXDaM7PY5fjq0r4ZKi4AIiIAIiIAIiEBxEXgAw3kElut+lRtRuOcQ0EhFQAQ6RuD9902sV6/yrdbf5JpUKvlRxEY/O+eccz4YP378lyBsXYS8pbCPYcthz0DY+lXf3uUvxaLrJmW4rmOger3VsZ6odiMC3Gvqm0g7GLY3bBKMe1cF8IvBcVbVDAzkeNgesFNh3A+MghaCcp1BIBP4n0Qirof3Lfe3Ko+6NoXwW7FYzESj0dAikQgP9U+IWSPGjRt3dzrtfQzlKpwBiLLGBOZ45HFfNZZrl0nAahcuFRYBERABERABEWiFQKFm86lK2b5z3ytuPJuNyxcBERCBDhOI7D7gSbPzQXxSW4fbyucG+paWbumlvHi2j9Y6b2Vqa7mkLUyCiHUrRKxhsMMdxxkAO6W0tPRqY4N+YQG8OBYCVpDkxt6IyXUBAS6ruwXt7gnjflnD4V8P48xjzppBMK8dxap30ENuDs+lkty8fkvEufH7k/A5uxqeXGcTCILM/xzHDWetW2uN47rJUtcdVldXd2wqlZoIMXo8bEB5efmpeK+HPw5Cz6pLplIfWkvNKzDlZeV9UKbUbMQ/CVgbAU1VREAERKBrCah1ERCBTUBgFo7JpyfBM7/BSzjVHb6cCIiACHQWgSMiEXeW2fmwrTurwXxsx7fe1hnfCwUsay10KfNhfIstGixZmzBhQs0555zz7tixY9+BrayoqIi5TmTzcHYGBpVIJd/2/ZUN6iC5J7uumiXFdvkEQ/5ow+X02c3VTwLsy2BTYY/BPoBtqplMq3Fsbr4+H/61MIpU3MuKm8CPRJyb1XPZP8shKteVBDIZ938QmFPZY1hj+lb0L0+ee+65j+F9ffu4ceOmQ7h6btSoUfWidWm1qTNB8I61KI2KgeFXrDQ3fkesfc5pX3GVFoECIaBuioAIiIAIiED7CPDXRH55fxvVFsHkREAERKArCJwYifj3mp1PLOmKxvOhTc86W3reOgEr7I+1Hw4cODBcPhTGm3hx/cRWjjVRZlmLm1xrn96lrl+LdVhW1ukEKFK9h1YfgvHHnHPgc/NzPjVuc4QpbF0On0v1HodPYeld+J/B1sK4xxRnPyURpshBY5tZY5zGfJatRTnO+PoffM64ex7+Yhhng/HY3ISesxb3RRqfZvgd+Dz2v+BLsAKE7nZJ/Eskk/+1dt1sKmNtb5vx+7TUj9dXrkxax75nLd7bKOh5vok6kW0QbLdrVsBqd0uqIAIiIAIiIAIiIAKFTeBZdJ9fzilmISgnAiIgAl1C4JhIZO3fzQEHlHdJ65u40XjE4cyKcBMc3K+mTeBxn6WWe+W4B/pB4LIQ6hjXuM9CGdFnMYGss3V3/uvCXfLahkY5I47C1tUoy1lQJ8DnTKgD4O8F43LEfeBzZtQA+IfDuLSPs7poDNNYh/twcVN5ClSsS4HqIJRnuSHw+YMSZ3+9jrBcHhHYYostfGuD561dd0m6rmt9YyluNtvLSZMm4XPAUOgMy0DgNn5gtg0j7Xxx2llexUVABERABERABESgWAnwV2MupSjW8WlcIiACXUegzS1PPI0PhDNHRGpjC83eAzZqFkKbD9bNBZcuXRrxPH+Xzw9r04FxWv1cDfxgnyBYJ2AZY43rOi+NHj1aApap/xeKe/Wx/Ahk0A3OouJMqOUIfwTjLGaKTq8g/CKMTzzkvlo0zq5inLOn/o08zrji0wI/QZizsKrhc3YWlzUimDdunVKTN93ZtB058cQT/cAz9QJWEAQQo/zdW+uVb+w7QeBzJp6hgBWLRbZrrU5T+RKwmqKiNBEQAREQAREQAREQgW4moMOJQM8g8I2xpxuKWI41x0fS9i6z+xG9i2fkn5ZYG+wW4KaWY4IQlfKdoPWnCVrLGThZkSaT8jNcksYmZOsI7ABPQgogbAJXRO/PjtOz1vpBxD4LP2zM933rWtuqgAXh6S1rnBqDf/x8cK2zBfx2X9NoBy3IiYAIiIAIiIAIFD4BjUAEREAERKAgCHztrJHmnFFcKRUcHzGZ+82AAeH+TwXR+RY6+emnJuYHtn6Tesc6ad+PcH+jZmtNnjzZscZyj6WwjOO4NVE/w1k9YVwvIQHy2aglV2FtvXSEAJdEdqR+0dWNe87bEK64j9m6sVmndQErcN63juWMvbCOH3ib3XPPPe3eC1ACVohPLyIgAiKwjoBeRUAEREAEREAERKCrCbiua7IzsXCsIyKr7T9METydsLy8PBYEPmcLYVjGZLxM2vM8LjUL4029HHroHn38wOuVzXMcm1ydCLi5dzZJvjHWGDMIJte9BPg0zS937yHz/2hJ101ZY9eyp0EQ8OKkwMpos7aqrm45BO160cv3/O1LSzPt3gdQAlaziJWxkQRUTQREQAREQAREQAREQAREoA0EsiKWteaoSMS/0+xzVP82VMvbIpFIOupaZ7PwphaD8jxvheM4rexlFe9njK0w6//xJjceT4RLjdYnyVtHYMQ6T6/dSOB4HGtvmFwOgWg0mrLWrlmfZAJrK+bMmVMvQmfTc/3Ro0evMI6pn4GFOrFYrKTdelS7K+R2QmEREAEREAEREAEREAEREAEREIGNJ/C1s0eZc8PlhObESCq1cONb2vQ10+lItLSsrDSnJzV1dXVBTnyDYIkpMRb/sxmu4yQcp18PmoGVHXmrPtec8il9rRZUgU4j8D20lN2bDUE5EohEIkk34q5iOLQgcOPxZKvLoCFu138WBL6/o5uOVYT12/HitKOsioqACIiACIiACIiACIiACIhAfhEo8N5AsGm4nHD3AU+Z3Q7YshCHFfGTfX3fD7turTXGDz5FpMUZWCnH3zIwQV/O2kJZgxtj77333lvXCBNkWQIuAtNhfWFyXUsAF6+ZhEOcCJNrRODTTz/1AYhPjFyfE5RnMpFt10ea9eqSiY+tRU2UwPu9PO15rYpeKNrAScBqgEMRERABERABERABEeh5BDRiERCBTU8gu5wQPTk8YqN3FaKIFVinN25MMQRjeJ8aOLZ+xoVp5p/j+1EUpjgDz5o11Wvf33PPPVut10xzxZ68KwZ4DSwGk+s6Ageh6eth4XUJXy6HwKuvvppxHPv5Mt/AuK4f5M68zCmdEwxMvZhdWlJSah2nJCe3TUEJWG3CpEIiIAIiIAIi0CIBZYqACIiACIhAhwlcNOY0M/G0oWxnIESsuQwUklnrr5tegU4HlKACE62oqKhPQ/KGzjr9I67LzbIhYCE7CNZ8+umnrI2IXCMCZMmZQd9vlK5o5xHYAU0tgYXXJHy5RgQmT57su5Fo/TLfwJhexomQW6OSjaLW+NkjBc1QAAAQAElEQVQUx3WM52R4PWeT2uRLwGoTJhUSARHoegI6ggiIgAiIgAiIgAj0bALWWpMjYh0R4XLCAtrY3Xecd9PpdHgSfd83uEk90NrkNmFCMy+B8U9nWWY7jmsCYx5/9dVX4TFF1gyBy5H+Y1i7BQDUkWuewGbImg/bAibXAoG11Wtfcd11E9Qcx4kZE5zSQnGzZPbsHaKRyF7ZGZp1dXUfOinz+T5apm3/JGC1jVNhlFIvRUAEREAEREAEREAEREAECpqAtTZ3T6zDI6nUfWbnw7YuhEElk2a573v/sHadrhL4wdZBxv584cKFvZvov108d9bpjrXDswIWbm5rXd+dyRkeTZRX0ucEODuIAtbPkNTi09+QL9c2Aoeh2HOwA2CF4TZhL/1M5j7XcUKhme9fx7FnzJ17X5MPGaiqqqrwI/Z6z/N3zHYZ4tfDa9Ppj7PxtvoSsNpKSuVEQAREQAREQAREQAREoMgJRHYf8AtZ1zBo76XDPbHOO63SWGtPjESCmWbAgGh72+ju8qNGjVoVOPYmx3EyPDYEKeu6zhgbpP88f/78friRjS1dujQCK1kwb+ZlvrXTgsD0YVlaPB6bd8qwYe8w3B1W4Mfg9fBDjKEKVgaT2zgC1ERGouo/YfUCC8JyLRDot8W2r/iBvyBbxPeDzaJO5MEFc2edy/c3LPLyy1WxefPmbVdRGpttrRnp++tWEOJ9btLp1MzRo0fXZeu31efJamtZlRMBERABERABERABERABEShuAj/A8NpqKmdMexgAbfvcV88eac4dNQSVgqMiq82jZvcjmprJhPz8cb4fWew49nGIWGGnwpvWIPiyazNv9S6LvZCoWf1Yonr1f13HvQY3taUQucJyjusmquvqfm6tXXeXG6bqpQ0EBqHMszBeKPDk2kGAwt+tKD8DJtcOAkcffXSdlwp+GovGcmoF5Y5jb03UrHqjrmb1o++9E3spYr1XkfZFvM/DaZmu65pUMjmnpDyzKKdim4MSsNqMSgVFQAREQAREQAQKlAD3tPgi+v512BWw38B+B7sxxy5EuC2OyzZOQMFfwfjL4/PwX4Hxixg31W3nr7eoKScCeUjghh9eamRdw6A9p9t1nIbLCY03z+w9oMU9pdrTfleUHTJkyJqUlz4Pbb8MMQpe6KwJTJ/AmL0RO9xYsy1uaMN7UZaB2PVpKpMZPHToyH8hX679BPZCFe7dxL9v2yMs1zIBzl4bjCIU/ibCp5AFT649BJ587rkXksnESRClVuTUc42x20OtOgLv+S8YY/hkUkSNwfvcONY+GkkF5w8cOLoaee124YdGu2upggiIgAiIgAjkCwH1QwSaJmCR3B/G2REfwv8b7A+wn8C+DbsE9o0cuwnh1sSnLVFmMezvsO/A+Gv3QfD3gQ2CXQ17G3Y8TE4ECprAMYfsb2Rdw2BjLozsckLoWcdHUuZus88+FRvTTnfVGTJk1H9tOjjV4GYVAlW4nLCpYzuOTUejkX+mvMTBw4aN4mdrU8WU1jYC/LvHv2/cx0miTNPMqH9Q4LsX2QthFP7gyW0MgcmTJ/tDhp/2kJfyj3Yd5194r3vNtYM8fg7MTmTM8C+ddtry5sq1ls4T2FoZ5YuACBQ5AQ1PBERABIqQwBkY039gv4Dlzm9HtEnX2neiXVHrJdiJsKyrQeApWO4XNt5A8Evxl5AuJwIiIAKdRuCrZ400544caow1x0VSpX8zO59YYvL43ykjRnwYL+11sjXBsdZx7jDW8jMTHj8mzUpr7F/9jD1m+aqaE4cNG/1BHg8lH7qW+3emtf7wCXpcFvcyCo6GcbYRvB7vtgWB22D8bjAcfltd0NaCPbXc4BEjXkt69kgbBMdba263jl1t1v+z1qlxrP2L8f1jVlcnzqysrFy5PmujvNa+rG1Uoz2wkoYsAiIgAiIgAiKQPwR+ja7cDeOXeHiGX+J/iwBnXY2Fz6UttfBz3ZOIvAtryu2GxCdgW8FyHb8AH4UEzr7KnT5fjrRfwuREQAREoNMIuK5jLhp7mpl4GkQsYw6PRNY+mO/LCddE10S9IDjWBMGWsPV7W63TA6xjdgiMd0yfSERP0Wv9KuEG4/zb1nrJdSV4n78LgnfAHoNxZtZ28HuaIwf+oHQ7Bs4foSbA599oeG1yb6AUN8qH18Ap0ohANJrq41tzhDF2p8APXLP+XxD4qcD4OwbW3X+LLUxbflBcX7Npjye06RylioAIiIAIiIAIiEBhEeD3Gn7RvAzdtjC6P+HlABi/vN8A/07YQFjj/S64xBDJTbpvIXVLWK57EJGHYLwTY5h7aiFqOEX+YQTGweREQAREoNMJZJcTWmuPiaTtnWbH/ft1+kE6ocHF8+YdWLLGPu1Y59ogCCgihEJVwE9NY/r5fnCy4zq/DeLuk/Pn33M0yvAzvBOOXJRNpDGq78K4fL09ewdRSDgM9bg31mvwfwbjPmQV8IvVRTAw/uDEa44/Tj2A+Dkw7ocJr02OYut/UfIUGGdaw5NrisDkyZOdBXPmnOyY2GM2MNfhfczvWLnXV78gsCdbG9yaSZT+Y9GiOdwXq6mm2pSmD4k2YVIhERABERABERCBAiDAX5spYOV29c+IrLtdQgBuP1hT4hI3Y0fWBo6zryZtkGoMhbHcZIpjLyJhAIxfmv8NX04Euo6AWu7RBPh0womjOBMrOCESiy3ONxjzZ87cz4mYObiZ/QKs2e4xD7ZLzIk/uHDh7DObLagMux7BdfCPhC2Dtddx5tGPUIkblz8Dnw8jaY+ogyp57SjWcWY0N7Pnw1WWoLcU7+C125Ezf/zivpbtrtxTKuC96xw+4KBxkaid72W8XXK/bDVmgLLG8/1D4tHY3IUL7+M+ZI2LtCkuAatNmFRIBERABERABESgAAiciz6WwnJd45lWI5AZ3gjAz3VcZpgbz4YvQKDx/iF1SGsseHG/h4OQziUK/KUcQTkREAER6BoCruOEywnPO72SBzg8svuAp8wuR3DWCeOb1BYvXty/vFfp1CDwdwqC+lvawBr7MTq2BGl3BCagyF+/rxNubEtjbvTWJQvnfhFl5JonwJlBFGeOQ5FbYJz1C69djn8nOQuGs7l4TrjE8Cq0QPa8hgpFI+Dfd47jPPR9Boxi02z4p8IozG3MOCgMjkJ9smm81QCS5XIJ3L9w7kmxWHSK7/u5SwNT1gQvGBPcifc8RURu2B6wHt77Jp1K7+kE0dlLl87qy7T22sac1PYeQ+VFQAREQASKk4BGJQL5RmDPJjrEX2Nzkylg5cYZpvjEpQIMN7ZjGycgvhbWoU1IUV9OBERABDpM4KIxp5l6EcvN3GV2Pzi791+H296YBnCDagMv9eVUOn2g74f3rMZakw4Ce93mW2+3w+DKkYOGDBs1dkjlqH18G3DG1TvZ42QymTLr2MsWLlwYz6bJb5bAR8j5Gowzfjmjah1sJLTTcdbS0ajD2ctcSs8fYe5H/HIYn6jLB5hQ8EJ0kzqLo28OOxB2NoyzqzmLjDOf/4L4GBhn9bAcgu12q1CDTyrmLGqKYIjKtUQA79Pe1rU/S6dzf7ML+H4ePqhy1MGDK0eNGVQ5YlBJ4O4FwfpP1tpQbPV930Qi7oBEjTm9pfaby5OA1RwZpYtAtxDQQURABERABDqRQFOzqMLpCeuPsRN8fjmF18BxuUH9TIAGOcY0JYrxiy5Fr0ZFFRUBERCB7ifwtbNHmfNOCz/qTowYh59n3d+J9Uf826xZ/a3xvwIhK7zPxE2r7wfBNf989vnvHnroobl3umbo0FH3uY431nEsZ2isayEwp3qet+O6iF5bIcDZWP9AGS4pvBh+Z8wY4n6PJ6Gtn8OWwjhTjmIZw99HnD/q8G9pb4TDcwy/sx0FTPZjHzRMkZNiFX9keg9xilbcmJ6zo7mXF8sieaMdhb+nUZtLDb8Jfw1Mrg0E3CB9UMSJHJEtivfx/1Jr6o4YXDmSs66yyWbgsGGf/XPoi9+AiHWT46y7ZCh6RSLRUXPm/CXcF6++cBsC61poQ8G8LaKOiYAIiIAIiIAIiMA6AvfCS8A4Q+r38PlF+2D4WTcYgaZ+nZ2J9KYcb6Kams3AL2e8cWiqjtJEQAREoFsJONZuuJxwzwGcrdKt/eDB0q67eSwWHwABy1hrYeatZNpcN3ny5CY/M08Zcvpjnm9ud11OBGILxola78sor/vUEEf9S1Af2jCQQRJnD3E53f8h/AmsMxzPAZeGUaw6EQ1eDeNDSriE8XWE/wPj0xEfhD8Txif98Ym/VyDMh6l8Hf75sHNh3ER9IvwLYXwiMGd8sT3uJ8mHqyxA+iMwzgDjk//YNpfq34U0ilXc47IE4YjBSye5hWiH4+JyzGUIt8QY2XK5BADrtHSGl54xfP8GfnDbiDFjuCQ1t1gYnvz/7J0HgB5F/f5ndvctV3JJ6FVAsOFPRUFBqkEkyV06GCGV2EBUVOyKGCsWFMUa/WsghXKU9AYqKGChowJKEykCgfQrb9nyf57N7fHm5Wpyd7nyJPN9p8/OfHbfe9993plZOzd0vPBbELA4QytOC8Lw6Kzdu9t/p3hRxg3oRQREQAREQAREQAQGOAF+6T0PY+CSB/6Syn098ogn7j1JoMTnt6/nED+wDeOXbYv0cqflBeVEFBcBEdjtBHZYThja68yhb9+vzzvlhPvjJjU+rONYE0Xmn8ViseOZQVHEWURxnSgKTWjN24888si2/vbGZYbiSxfGDD3BPINy3Hz8TfC/D+PsKX7GIdhjjueFm8Fzr6zXoFXOXOKMLe4bRZHqk0i7GMbj/wz+/4PNh1Hc+i38ebAfwbjnFmd08SEpZyFeC+OPTuz7wQiPhFE8g9ejjsv/16DF8TA+BYGCXOn3BCTLdYVAdVXVq8Nwuy4dBEFzYMO/dFRv9Ogp630/eNpaXkLGVGSz+/luMLyjOm3lScBqi4rSREAEREAEREAEBiIBflG/Eh1/CVbu+J2HTxQsT/eQ8GcYv/iX21yklzt+0eVSivJ0xUVABPovgSHTs1jEmjLOWBu9y/NCiO3vbZ3atDsgRCbi394OD21N+FIQhrHIBcHLOJEdvvfee2+/y+2w5pDK7A4PzsD6HOhwv6gx8Lm5eQh/qDqKe/x+8BMA4Cw1imW7dakt+jHgXRAFnBEXjwOaVKP13WfjSIcvEWfJxyUiiF9uyHd8HO3yS6d/ULrckgqKgAiIgAiIgAiIQP8lwO88B/RA9/iLNr8M90BTA6kJ9VUERGCgEPjI2ZPMHIhY6O+x3hFP/NkcetQIhPvEBTZ6ycHdLA8W35pGxuFGRoy3Z5EbRVBn4r+rURSZ6urq/R955BEktVdD6V0kwD3HuDF7MlOK+1pxaV7MuottDORiDej8CliywTv3CXsRcbldJFBfX58O/LB1/6rIWN/NOs2dNmttKimTy+c3m9BtTOJd9fllrqtlVU4EREAEREAERGBnCaje7iawHzrQ7b0WUKfcUcAqJOyyqwAAEABJREFUT1NcBERABPoNAS7h40yss+viVdPv8DxvmXndCa03m73b0bDJtApYkYmM2W+rMR3OAosiu9FEEcWGuGtBGHivfe1rO6wTFxxaL0C50wPm7KN7Ufsi2DtgfLrgZfDvhwWwXWkb1fuN4zj4QACKVtxri5u8c2kj99Fqc2+mftPzAdaR4cOHp6IwrE66bY1tdhuLnYqDmUx6b4rUcT1rCjZref3F0a6+SMDqKimVEwER2O0E1AEREAER2AUCZ6KuhZU7pnMafLnxS295Wcb/wReZCIiACPRnArlCwTzyJB/aZkKoSH8z/76DD7fo9S47ji00NTW1HgtaVsWGioq2/va29iUdeDnDm1kUZiJujDP5F1+sZFjWSqBDhq2lOg/w3NyOYhfC+JATPlHwYoSZxifs5hCmEASv3zuKHxQ+uf8ln0w4AT3mj1X0+eRCbgvAMkiW60kCeI+nIE+3vketifwRqVSHM7D4YIYoiFqFaWstzk9GM7B68sQMwrY0JBEQAREQAREYqgTObmPgXF7BpxDlkVdu70RaW+6ethKVJgIiIAL9hUCx6Jvzv3apuefBfxkT2R/4IyI+8a1PuhdFWd8auwk3p4YzLbLpzMiRYdh609pWJyr2iLixNoWIODsIw0xYXd16cxwn6qW3CHDfIm6ozo3Yj8BBKGqdAf83sOdh/c3xc5v7Vn4WHTsBxhWq7PNMhLmvFWebISjXQqBXPMdxMkEQcaP9uH0ong3HjB/fFEfaeTnxzW8eib8J/LEwLmEj0+w2NnZbYNQMrBifXkRABERABERABAYxAU5z55OSyof4CBLa+8WQG98ieweH72iGyzB2SFREBERABPoLgY2bt5rzv/4D88C/HqN49X3/8bs/Z+65hzf9fdLFKNqcx03qUyUH83JB0OHT5E44YUJDZF5eQhgGYUUqzPXRkseSnrYZHDKJBYyUy++gepolCH8QdiCMDz/h0/q4fxSfLMiZTn9E+oMwClycsYVgj7gQrXAW2BPw74atgvGphRfDp0B1LPx9YBSuLoX/NxinGXIWD+siKtcXBPAeT1tr4veotRZitflPZ8fNZ5wD8D5vFbAc1/nf01u28Nx1VnWHfAlYO+BQRAREQAREQAREYBASeBXGZGHlrr3lgHw8+JvLCyP+EKytJxwiWU4ERKBNAkrsMwINTc3mSz+aZ+596N+4T7Tbxas+O/r2A23cGBSsY5/dHjMmjKJ0aO3BSbwt31obWePyBpg/EqBOWGFdjz88GP3brQRCHJ1iEmcq8wl+fLLhdKSdCuOsp8Pg7w97Pew02CzYl2A/hF0BuwFGEWotfNoa+MtgV8N+Afsm7OOwKTCKU7xODkKYs6qOgz8Odh7sG7BFsDthFLjgye1OAhknPARfqjz2wXEc6FkhFHPG2reUjfYPw7AiKeFYu37OnDndFkAlYCUE5YuACIiACIiACAxWAtzjo62x8dfbttL5xbmt9D+0ldjbaWpfBERABLpC4IJvXmbu+sfDxkQQrw6uppDQlWo9WiabzeascZ6EKGX4LwyCdOCFFDoYbdeiMHoIdZLlRJ5j3QPaLayM3U2AwhZn9VF8oKD0b3SITztcCP8S2Kdhc2DcY5Ii1FiEabXwJ8H4VMDz4X8F9lMYZ3xRnPofwpyRwyX9ybWAJLn+RKC+vt51XPedsdrc0jHHsdyHrCXWtucb91AoXVXMxXvdFHx/I8PdNae7FVReBERABERABAYYAXVXBI5qB8Gt7aS/rZ3029pJV7IIiIAI7DYCm7ZsM+//0rfNA/9+bLt49fjdnze33rpb9gKaOnVqgBvbJ3CjGvMIoyhlHK9TAcvY4CHUozBiWNcPg7fwRjluRC8k0DpzhRFZnxLocA+3Pu1JPzjYpk2bnNBGb+P7lN1xHMu/O48z3KGF4SGO48QsXdc1gR+VLjXusGpppgSsUhoKi4AItENAySIgAiLQ7wnwO83/oZdvgpU7LncoT8OdnnmgPLEl/poWv9QLEOFSCnix4z4O3PA2juhFBERABHYHgS3bGuJlgyXiFZd57Y6utB4zisIXHMfhnkpM8xwbHcpARxZa84DrOK2iG/7gHlNdXe11VGeI5XGZnnjsnpO+7+45bP886siRI20UmlYBK/DD0Dfh1o56e/fd81LQubg8NC5GAcvznNalxnFiF1/4Za+LRVVslwiosgiIgAiIgAiIQG8RSKFh7o/BJwTejHDpl3xuMvoupJW6CBEuX6CP4CvciFekGIP7KZM8JSuDfO7lcT/8t8DkREAERGC3EPjUJZebO//+EGdAfM9//LAv7pZOlB00Cv31uEFNBCzkOgf/85/1HW7kXhmmNgZBwGVp8QwsG5l37hME8WwNNCBnDPcE0+fN7rkSRu3UYQdppVQqVTmsuvKgKNr+FSqIwm1eUNzS0XC3bRuZQfEDkzr4+2D8KHiuozrt5UnAao+M0kVABERABERABAYCAT6N6Gl09GxYGsZfSj8GP3EMlwpaTMfdnvkLA+1YfBNVlscbKT7JkE9jugN5p8C4l8Ov4VNAgycnAiIgAn1DYMu2xlcuGzTXUWjvmw50cJTIt+sd1+U+RrEYFUbhQU89ZIYnVRYvXvzqhQsXnr1gwYJPL1q0iDb7hcbNB0Ymet5aGxfLZNJ7veA4NXFELwkB7ieVhOX3DQE+9XB83xxqYBwlm3X2LRT8+HuVtdZYYzZUuZUbrrzyylfhPX0s3tNvwnt8ZOloCgWvEvEjEgHLcayxNtyph+JIwAJJOREQAREQAREQgQFLgI/y5qavpQPg47XnImEq7EJYqeOTrig+JbOpSvOS8H+TQIlPAYsb1K5E2tEwC/s77AxYW4IXkuVEYLcS0MEHKQHuefWFH/6idM+rz/WroWYyL9rItApYJjKHRVXeyPnz52dxY/sB9HW167pXpdPpSz3PuxThK3zfLvP9YC/kRTAThoGxQZ5Po2NUtp0AN0XnDODtMb32BYGZOMjeMLkWAr4fHhS0zI7km7Xoh+5TW7b8FO/ldXgv84mVnKG+DiL1lyBoUQA0YZOtTKVS+1DAstaahoaGFyuCdK6lyW55ErC6hUuFRUAEREAEREAE+hkBPgGJglTpL3kUm76Kfl4L4w0RvNhx36vjEdoA68j9GJmRMXht392CrGT2F4JyIiACItA3BC787k9Klg3e3b/EKyDAzWmxMdf0tLXU+Y3JZrN7GuOMxA3u+bBfh2H4OtwAm2KxGJvv+5ypdUgYGpSLuA9WFAShcVznEDQn9zIB7vP4nZejCvUBgfIfwfrgkP37EBXpzF54//J7lsnnC2bLtsaDIUxNw/v69bA9ED4Q/tvxXv+W4zhrFi1adJCTcV9tHSeuY63lAG/Dr4hNDHTXJGB1l5jKi4AIiIAIdJ2ASopA3xB4BofhrKjL4Zfsu4LYdvdneFxiyKcLPo9wZ45P0xmLQhthpY5PyOIMLOaNRga+f+FVTgREQAT6gEBDU7OZ86Vvm79vf9og97z6Uh8cttuH2LRpk+8Ye4/jOHFd3MyaQt7n3+AvFQqF+O7VWmvS6bTJZDLG2jjJRGGYiyLjoFIhwktgbAae3I4EPohoe0/WRZZcDxHgg1rWoq0DYHIlBFJpN37PFv3ANDTlI7x78b7lO9bE6ablH4VpBN9mrb0UgteRYeC7iBv+XYiMvfOee+7RDCwCkYnAYCOg8YiACIiACHSJwFMo9QkY98A6Fj6fPMg9qxjnTKlrkLYN1lW3DgVZlzcK70aYbXEZAffC4JdaLRsEFDkREIG+IbBh81bzme/9tES8uvvzpp/seVVO4Nxzz/XDKLzbdeP7VcMbWYhYZ+DGdU+WxQ2tQd6DELPOzOfzE5H2J6ZZx2ZwMxxXch2EgoA/TiBbroQAN3OvR1yz0wChF915aPt0mFwZgcaGZs6cipqa8yaKIhsZU2GtjfCe/h/iN3iedwfCsTiFOMuMhtj1qSAIKU4b/C0IIFY/OHfu3LCs6S5F40a6VHLgFlLPRUAEREAEREAEhg4BLim8E8PlEr+74a+H7azjUpYHUPkPMLZVPiMLyXIiMDgJXL7wOiPrHQbdvWIKRd984Qc/N3f94+HIRPZ7/uMUr7rbSp+Wj5zIPFosFrfPiI0ik88X98KNa3zDyptdiFqfmjlz5g0zZ85cjp59BPZSKuUFEQJw6ZTrhdazDyMs90oCr0HS1TA+SASeXBmBXY3OQQOXwaCi4lVuBwI29P/rup4fBPHbmXkW7+0tQRBMx/v5zLPOOuskhBdAxGKegRg9POW5h0LMink6jrsx8g1nusf53X2RgNVdYiovAiIgAiIgAiIgAiIgAoOcwJVL1xhZ7zDozqWTLxTMuV/9nrn3oUcMxKvv+wdXf7k79Xeu7K7XGrlP9u+ZTOYfbImiFGdXIVyAeMUZGVx+3frjQjabzY2oqWzE3a2HMnRRc3Pzuhde2PwsI7I2CbwTqfxxRSIWQPSQwyVouOfV5T3U3qBsxnc2PFYoFp+JXh6dzaS8wv577RU/UAfv8Qi2IJVKU7wKqquyAeKtulMYhf+rGjny0Zerdy/U2lD3qqm0CIiACIiACIiACIiACIhAmwQGdiL3d5MZ0xsMunVlbNi8xXz8m5ftuGzw1ls5M7Rb7eyOwscdV7s115y/IZVKGQtZAI43t+koioqu61ZUpL13rF25bNTqlUs+XFXhLfFctxL9jO+JrbVOU9G/5pxzzomfZIh0ubYJvAPJd8G41B2e3C4Q4PX3BdTnJvlcpomgXFsE7rnnucLWrY2r8T5tzU6lvX38sLB6zcqlv1y1Yum0qqrMmJRno+HDqgze24kwbfDeN1Hozx81atRO/x2TgNWKXQEREAEREAEREIH+QkD9EAER2D0E/MfuuUnWOwy6c0abmnPmS5fNM/c8+O/QDIxlg68YXnMx+E0YBrcbY03Kc9PGGN57poq+7xjHuSSyZo3ruPNMZN4MYWsk8nFPbKPG5nyxubkw4brrrkshTa5jAm9A9q2w98EsTK77BPZAlatg34bpmgOEjtyRRx7phMachPdsxHJ8wfvbIL6X4zjnplPu4spM5qJMyrWOY12WoSHP4A2+NrSZ+YzvrPGPyM7WVT0REAEREIH+S0A9EwEREAEREAERGIAEwjA0H/3GD83d//wXlw1e6o+ILhqAwzBTpkxZHxaiObixfTybzTi40Y0ffuFY6/h+UAm1JcOxcmy4sXUdxxYbm3J+U3M+hXhdLpeTmEA4ndtwFFkIuw5GIRCeXBcIUAs5DeW41yUfJoCgXGcEGhoahqfT6dfgfY23qY1cxzGOJUpj+H7Gezv2S9vZLl6Zu5oL4fm1tbVbS/O6G95+pO7WUnkRGBIENEgREAEREAEREAEREAER6DsCG7dsNR/6ynd3XDZ4zz2x8NN3vei5I42ZOPGxwORPDILgVxCumtkybnxNEEYUr0Le2HJZkee6f92ytfF/zfliLFohLQt7PYKV0y4AABAASURBVMvLukSA3M5Ayb/BzoXJdUzgdcheBFsNOwgm10UC2Wz2CN/3eb1x1hVELLPeS7kPplKeYaS8GWudbWEUXu5HuboJEyb8pzy/u/HeFbC62xuVFwEREAEREAEREAEREAEREIEhSGBrQ2O8bPD+fz06UJ422KWzVFc39Xnrpj+Lm1s+IXYTKjXizjcs+sHfMdDfhkFwcmXNHu/OF4O/IC92xWLRoPzxcUQv3SHAJxT+EhX45Fzyq0C471z/P9KB6OIFsHthZ8NiIQa+XNcIWIjOb4KA5bE43qNRsej/Poi84wuF4mSkrUT+E34Qmhze0Fsbc9GmrY23j62b9Ina2qkvIn+XnQSsXUaoBkRABERABERABERABERABERg1wh84ts/Nnf942FjIvt9/+DqL+9aa/2r9vjx45uiKPonbm5HoGdVuAv2Nm9t/Mlf77zvQ2PGTbrt+OOPb8bN8G3IK8Cgb0UUsI6ur693GZeZ58AgB+uqOxoFb4H9CcbN3uENeXcpCNwP+zGMm7bD65Lb2KVSQ6DQ5Zdfng6C4MySoTbjPf0rLgusHT95WabyvsnrN2z5VUNT3jQ05dwgCC3K31NSfpeDErB2GaEaEAEREAEREAEREAER6CcE1A0RGHAENm9tMHO+9O0dlw0OkKcNdgc2BSrP8yLWgZhlXNedfPTRR2cZp+FG91qUad0fB/HTXnzxRc0gIhxj/gVvEux/sK46bpx/DArfAbsZNhu2N2woubdjsD+Akdun4e8F647jhuMf7E6FwVx277333hOC1cklY9w4c+bMW1vi0YsvHolsZxLeu3ES3u/0uayVfo+YBKwewahGREAEREAERGCwENA4REAEREAE+orApq3bzBd/+Msdxau+OngfHycMw79DoMrzsAhTwDqtoaGBM7KYZGbPnr0B6SwTx3EnfOCIESPeFkf0wplo64CBywLvgt8dx+Ve3Kz8ClT6O4wzkShsVSA82JzFgLhM8L3wb2+xC+HvD+uOa0Thz8K4n1gDfDkQwPvzZIjPGQQ5Q5Kbte8wu6pQKOyTTqcPQRkWMfl8/lm85/8dR3roRQJWD4FUMyIgAiLQSkABERABERABERABEegCgQu/8xNz5z8e4rLB7/mP3/2FLlQZsEUymcyLuKG9D8JUPAbc2KZwo8ulbnGcL4jfgnQGeXNMm440ihJx2hB+SRj8FwyOg10G2xm3HypxJhJnxbCtixB/LWygu2oMYAyMIt+T8OthJ8A4Cw1etxy5nIQaFPqK8OVaCLiuOzqZXYWkCO/lHcRUCFxvhYgVz/Lj+5j5qVTqCZTtMScBq8dQqqGeJKC2REAEREAEREAEREAERGCwEtjW2FS+bPCLGGu8vA7+oHRTp07dgoHdCkEKnjG+77sI77A/E+L34CY4nqWFsPE874QrrrginvERV9ILCYR4+RzsFNhjsJ1x1AEoNHwDlbmhOWfJLEOYM466O1sJ1frccVbZiTjqD2F/hj0OWwF7D4x58LrtuP/a11CL1+R98OVKCFx++eV8cihn7iWp2xC4CRa7+vr6NESrUYjE/CFe+Xgv34r3fYC0Tl1XC/DC7WpZlRMBERABERABERABERABERABEdgFAhs3bzWf/f7PypcNUpTYhVYHRlXXdfmUsk3sLQUq3PCetHjx4pGM0yBY/RVpGxim4Qb40Gw2S6GFUdnLBHwEuUH7G+BfYox5Fv7OuipU5CysCfB/CeMMJIpalyP8IdipsNfBeJ76Wj/gHmkH4dhcSnoGfM5SvBE+97Tipv+fQvidsH1gsXACv7uOwvEfUGksbC5sPUyujMDIkSMPxfvxjSXJT8+YMaN1BlZDQ8NwiFaT+b5mGbzXm4Ig+B3DPWl9fQH2ZN/VlgiIgAiIgAiIgAiIgAiIgAj0AIG+a+Kzl/7M3PWPh3HTbL/rP3735/vuyLv/SNOmTfsLbmxfTHpirT0FN7ytM36mT5++CTfJa5EOPoZPI6zCTfCsuXPn6r41gbajTyHrS0g6EnY9jHF4u+RSqP1W2Mdhv4L9HvYgjCIZZ2otQvgDMIoZw+BzLy3OkmM9ikjcr4vni8alj6XGtMRYjuW5zI9CFZ8MyGuB+3VxZhifoshjcnbV3TgOx0exbjLCPSFq8hqjWEqBjsekiIWm5coJ8P2H9ynFQ57LZP+ra0rLQXw+JJPJHIpycX6hUPgPRK+nSsv0RJgXT0+0ozZEQAREQAREoL8Q4JTyiegM7fXw23P8ssUyiR3SXsFeTr8K7XMKNm0awv3BLUUn2B/amxDuruMGqvzV9keoyC+c3KuDyxL2RHwwO37hJzPavD4YKH9xTq7fcn88js/Nfg+D357jDUNpvVe1V7BL6YO7EGcnJKx4szO4R6vR9SqB+x9+FO3b7/kHVXP/IYSHlisWixSxWgcNgYpP12Pc1tfXU9T4FW6CYyEGvkmlUp858sgj+ZnNMrK2CfDpjdy4nEu8+PkT82u76E6l8rxQqDoCtafD/h/sHzDOVnoaPi9qxrmp918Qp/i0Bj6X9XFpIr9XLEd8JYyfkZw9xdk79yP+MOw/sOdhbItPTOR7412I7wGjwBULJwj3lONm9uegMf5tvxU+xSx4cm0ROOyww0ZCeB7P92OLuFxwHOcW/POQFp8bpI/L5+PVvwZ5FLFuv++++7gZfltN7nSaBKydRqeKIiACIiAC/ZQA90PgFyVaR48+5q93LJMYp6bvjiHxVz/u2fAeHJxLAeDtdpf0hz45dbVDXIbwXRTmL7X81fYTCJPrJ+FzWcIj8L8JG6zfP/bC2MiMxs1jEe1Vx2UTyfVb7vNG4Q4cnZunckNbiokHIF7quCyjtB5Fr9L8wRTmDRBnKNDfmXHxRidhxZvDnWlDdURgO4EI4tVjd3/B3HprT4sM29vv569hGFIwiPfF8X3fZDKZUcuX33jiTatXfmX4sOyf9x5Zswo3wD7uinOwCALXMNwYU5jp5yPrF917AL04H0ahiUsAn0E4gvWGw+kx/CGEP04djANwmeGb4b8ddjLsdFgdjJ8tXJ44DmEu03s3fP7Awh99OIvr1YjvB+NsLgplCPaKo7ryR7R8Noyfnwvgb4TJdUCAAtWwioq3ZTOpiuHDKpv2GFHdsOeI6tReI4fdlmva+u/fr1v5q+XLr5+aSnmn4L0dtwS/CYFb586dG8LvUTdYv0D2KCQ1JgIiMGAIqKMiIAK7jwCXDizE4bmx7HD4dLw5a0YgvlGBz19Svwx/CWxnhQRUlesmAc4upJjIX5yTc9PNJgZ08WvRe+65w1/6OTsQUTkR2C0EcDM39JYNlpPGDfEfYBTXjYUEkkm7o7Je6rYg9L8WBuE7jDV7pjy3IjImC7MQsNyqiuxla9YsObS8LcXbJIDrzHAfK/7d5w9jFLQobFFUaLPCIE7k9w/OEuOyx3dgnJzVxaVvQ5EFht89h/epXbt25akVlekbKrPpSrwvK/GWrYatZ56JolcX/eCDrnGuLRaKFC557XEG1mMzZszgDPzuHbALpZ0ulFGRIUVAgxUBERABERCBnSLwPtTivhTwYvcHvPLLIpcg8pfY+GYFaXTJL7EMy3qOwDloijP6aFxK8nXE+dQveLHjr+S8kYkjQ+hlCsbKvVXgyYnA7iRgv+8Pj76yO3vQH449e/bsp8IwvM9xHDNiWFWQTafcIKTO8HLvKrJpQ3ErScnlC0fb0Llv9fLlx8U3zkmG/M4INKAAZ0AfB///YPyRifs+QRtEbPC6Ioa2DsbPQ86+nY0wf8SBJ7cjgbZjfJ+tW7Xsi24UrbDWcvloXBBhgzfnPrFvDILWNOcLjVCtqpDGpYUhROce37zdtPyTgNUCQp4IiIAIiIAIiMAuETi2pDb3wRiD+H0wbr76Z/h8ghD3uEAwdnPx2ptLBdD8kHO3Y8TcbJfGXz6/ijgFRO4pgmDsjopft7/w3HBZIWcl0X67PVmvbRD4FtLIiMalJ4jKiUD3CPhcNnjPPbyx7l7FQVg643nXjBhWaVzXaf0cwM0vR1qw1tmUSrnrHcflki+mmSAMTaHoj7BOeMfq1UvfEif2l5eB0Y8cusnP4O/D5/Jx7uVHMZX7VA2GZXQ+xvVPGJd488cc7oHK5Yq3Io2CXTwzCGG5LhJYs2LFydZxvuwHgYGY5bVUi8IofNZE4RKkrTXWPg/fFIthykQRXJSFeIVky+8jLVV61pOA1bM81ZoIiIAIiMDgI8APbd7kH46h8QsR95XgTJaOPkP5hZz7OXBfB24Qyr0hqlC/q47L8fgFk8fisdOdVLTI59IwbsLN49GvRFpnjsfZF4V4HPaxs+OgaLuO+1gkmdzrqvwmjTOBbkABPlGIG7z+AuG2fgHmr3wc+2uQT95cMlKNcFuO/R2BDFoyXp4XigwJB5ZBkVa3F0IcLzc3r0G4Lcc+sE1atqUAw7wG2C8+JYnHacnqtsdriv3g9cH22F+mdbuhLlSgePW3knI8VhIlfy7x5FIKWvk5S8qRQXKdkAE3j+c1l+SX+uRCVrSEL8vy/cBzwvNZ/l7gtUsWbJtcWL60zfIwzyn7wPNIY9s8bmk5tsE+0BhmHn32iWk8JuNMZ5hptNI09pX5NLIhIxpvBJnWlrFveyODY+GY2E/+PUCSXHsElD70CFTVZMJMhm+Xl8ceRuGjxjjnj6mbsMeY2on7+r7/Y4harVOzwpB/sgwUL+fHLZu9v1x58IfiwffQMPk3jMIO96SsRZv8nsGHVHDDdc6W3oy0Aqwnj4nmesxRrOLfYm76zqXh30DL3H+LP9ich/CVMI6jv/Yf3evf7pb587PGiX4bhmEl3oMV7G0YRYWGplzTixu2/mbMuMlnjB03aWxk828uBuFKCMyWZWjpdMoZWVNZ+vnJ5B6z8g/7HmtYDYmACIiACIjAICDAzUi54SefkMNf9jj9nLOL+BjpxRhf6wc2wonjDTWfsFNa5yFkPgb7GKwzR/GGm2+zDo/FdvhLFm+u26v7Y2Tgi7/h5umsw7r/QhqX6sFr01GE41OCWC6pw/oUstqs0Eli62PRUY6zsSiOIbiDuxgx7sfBDc4pYJX/Isplb+w7jX0ib/aJY7sQdct5c0kA82j8VZmMyIr1k7qcjUQBjHX5NESeO7bN88m2+dRKNL2D42wbtkn7LHK4PJKiHOuwLs8J99CoRF53HW8UeH7Zj6Q99pez1Ch6dLc9lu/MKPAkZTiOJEzRjHGOk3ZKklHic5Nd3iAk1wn7zDDfFxSbSorGQQpkSZt8khSfHPYb5JBZck745KmRSKObgxcem+3SWI5PuEJym46CH+uzDzwXNIZ5LVNYTCpx3y+2S0sEJI6XS1uZdjcKck82eIbngmk0ik7cI4V95biZTzsLL8ynXYVwW46CK5/AxfY4Fhr7thaFS/uGqJwIDG0Crkl9rFikLrydQ9EPwoam/G/HjpvAvxdxIm6cKXon719j49T45aTq6mxbf7vjzEGJu4lUAAAQAElEQVT6UjL8Hh8hZ7rxwR/8zsBlhvxbxr+DXHLOvaP4d6/887rHO9FJgw3Ip+j2bfh8OAxn4bGf3HeJ3y0oWCFLricI5PfZ412ONfyhj81F+BdsbWh2cvli2nEcPhiA6ebppzdt3rylgTP7+GaO8J6NHGsbM+l0R5/jcd2dfZGAtbPkVE8EREAERGAQEWhzKFxqRSGKT8rhrA3OQqEoQ39P1OANLW/ieYOOaOw4S4VpnJpPMYW/WjGfAgpFBD4Jjtb6hTyu9fILBYy/IsovZHwaD4/FYzPOvRzYFrJbHY/Hm/mPI4WzPngc/qTNGS4UopYhnZumw9vBsV88DoUk9pPHYV2Kb7ehJNuA1y3HG/6kQiLC8YlDpX3mbJ9tKNTWr6KfQjo32+avdhw765E3RSKy+wHyKWLBa3UcB0UUGve4oDDE5V1kxvocE29yeEN0NWpdAKNowfGyXfaTX9rJEVmtjsdnmzQ+rYib05Mv67Fdztih2EYRq7VSFwLci4PCCfcGYz/Yf7bH/vIcc2ZaTz5pi+P6BfrF8wwvdlxaGAdaXjgujpNWft55XbFP/GU7uU7IYCTqngRjXunMOyQZXttJm7wGuQ8GRSrW51jJnSImhZ5LUOHXMJYnC7bNfpA3n+SIrB0cmd+JFArL7APL03g+uM8axUu2jSJxP9gWjfHEyJ1ptOSGkMdnnEb+q1GYsxiTfEQN+8d8GsfCtFLjl3WKkLz5S/rGOgzzvPN9yvdXaR2FRWBIEli9eumR1kb8uxKPP8TdcUNTzhaLwVcWLFhwEexUGJ+gNxZZcRncGAepFP+8GC5TsiYK3x9n6KWnCfBz+gU0yr/v3DuLPxTx85Wfw0cjnXsKcnN4fibXI87PXQpcnA3FmVsUmjg7iqIYRQ3OlqJxJh19pnF2F4/TiPpbYVzi9xR8fo/gd53/h/BXYfzs4BML+d2If6f5t/QipPNzmz8KcmY320SSXE8SiKw5C++95DOwKV/0C74f8EegFNI/Pn/+/EMXLVpUU1FRMcbzvA8ijZ/vefimMpvJhGF00KpVS/g9uie7FbclASvGoBcREIFdJqAGRKB/EvggusXZLW3Zn5DXnuMHMcUfCgAswyfYTEKAN6D88sQvX4gailvJL1SMcyYUZ9gwzC9X/OLHXwkpdPDXS377/hAyS+sg2uoolnAGC58exJtxPjktyaToweMlcfoUZHjDzTD3M+JMIe419XUk8MsjPEMBi7NRGKbxs/9nCHAs8GLHL6qcnURxgKIOv6TEGd14ofhEcSqpQkGGyxH4y9z3kMi+U/hD8BWOosJcpCZfljhLhl+U+aWZbSArdl/DKwUQeK9w/LWY4gWPV85uKkqTDb/s8ss2Z/kkIhoFBu7XhSJtOrZJltchl+PgtYRg7Mbj9XRYVxz7TTGJM3F4LXB2Er+YU1xahQb45Z5f0DlbhwIkkrrteDPBX6gpQvIaeg4tnAcjV46d1y7FGSR16ihM8Xrme4GseFMxDbW+AOP7AZ7hNfRdBtoxjpUCIm+GeE7Yn6Qo3wNsi2x5/XG/NHJJ8s9MAi0+3xcUISke8QaIQhzbJkO2zT5y9hRvfHj98r1D3jTmsRm2z9lTTKOoyRsoppcarzEKT+wXb8pK89oL8+/Ez5HJawme4cyrjyDAm7xkZiL7z71myBNZciIwdAmEYXCYiSKKwTGEwA9tEIQ2DMNK3Ax/I5PJ/N51XQro8fsF4pXxPIcbSfPvZFwHf9TGrFu3bmf/VsZt6KVLBPh3kyIR/5bdixpLYBQXPwOfn6v8O0wxkn9/OWOOPzDw+wrTR6EM/0bzc3I0wvxhgj/w8QcHfifg9xV+zlOgovH7Ej+P+T2J32OuQB1+H+DsKi575PlP/p4jS643CCxfvvxVURDxe1PSfCqXL76URBzHeXMqleLn42qElwdBwM9Mfr/Neq6bd11rwygchgSe06Raj/n8EttjjamhXSOg2iIgAiIgAj1OgDMzKEC0ZbyBbu+AvNlk3SSfH+QUtCgSUcTglynm4fPZcLkcwzT+OkifxpvzBQjwF0X+Usw6/OJFAYVfBpHVpuNNOr8M8gteXVmJUiGKx+UxWIRfMPmlkAIGhQCKQRQrmMcvFtwPIvnM55dMCmXMo/Gmmsfi7CZ+4eSMGaZ31yjYUXSiUFJalyIGl+FRVOEvrNw0tjSfYX6xjW9UGIGRF78oU2iiCImk2PFmhUvI4kgbLw8g7U0wjmcGfPKGFzt+8eWsIebxaUzsS5yBl0QERLBNx2UUvAY+j1wyKj1/XM7A6wBZHTp+IU++zPGLH8UvfjHnrB0u20j2qaLIV3odddhoWSZvBrgMkH0snUHEWV+8prg0sqxKu1H++o17xDifohevRV6bFKz4C3zClueO75e4YBsvFInYL3Ln+5DCUGkxzlxif3nDw+MkeeXvz08jI+FMwY/ng+8lMuRMv/8hn47CKd8n3JSY543Gc888+nxfMI03X/z1n+mlRk48v+TIG6zSvPbCnD3IWXTM57nl9cSZC7zJYzs8LvMoDnNWGsMyERiyBBwnxd2skr8hJoyi5D1icDNsCoWCgZgV86F4hcD9zc35OcbGy+QRhYvM3kGh6WKE5HY/AZ5L/q2nyMUfkbg8n587/BvNHwu5xJvL+fkDC39w4Ocdl2hzuTn3xeT3Bv7d3f0jabsH/I7Vds4upvbH6p4bfcPaeNZx3D0bmdXFon+e67rx+5SzrGAe7ARYXIYv1lq/siLFMq6NIhsYN/nMZnaPWfJltscaVEMiIAIiIAIiMAgIUGzibArezPIXQy4L5LD4uclfjflFjXEahQL6NN680qddiheKSqzD8twglTNs+Evkk8hry3F2D/fJ4k0+vxByZkrrr16oUCry8OaabSPZcDZKqSDDuhTPGpkJ46+iXBaHoOFsp2SpGKf5U+jxmQHjzBYKRvQR7bbj+Plr6udQs3yM7CtnIfFXVX65LRWiKIywXxTA+GstZw+hCZPCC+vwl1cEY8dNseNA2QuPR5GFY+b4+SU6GRe/UHH5GY/LL6KcKZYIHmyGx6DfllF4435nSR5n9nwxicBnfygSItiho2iYCEKc7cZznFRgnzjzKolzHEm4Oz6vFY6LVsqMggqZciYgBbKutEkhKCnHzffJMIlTJCVnxjnbidcsw+XGpSQUp9gfnhPepHBT+aQcN95digjHz3PFZa2Ixq70WmcC3zf0afPxwvbgxY7t8saIEV4zFMUY3hljW+TFG6xkpmVn7ZSeLy47Lj23FHZ5bjlDi8IsZ6N11p7yRWBQEwjDKGetaf2cSaVSL+JG+EHHcQLcJOO21zWe5xlrLZeXXVUsFkfNmTNns4lCzpBM2FjH2g8sW7aMMyCTtIHsc6z8W9jeGJLZ3e3lK733CJR/HpUfiWJcedqAjP+5vr4C4lPp560J3ejK5ubmm8Mw/Azfk3if8r3ZOr6W+Naqyiz3vuIPjca6Lr5nRfwu3VqupwL8MtlTbakdERABERABEehvBLhUjjMj2jIKLR31lzfIFAG4JxP3W6A4Q8GHN+Pc2Dqpa5MA/MtgyY0+6/EXR87a4r5XFLrYJoq0625EDmeOwGt1PGZrpCRQKgBRJOASr1Ljkj7uD8QqFGiSML8EJ5//3Iiz/HhMa72xYOVuGvlwQ3X2jzOJ+EhrCkelYyd7Mkn6wUOQNb+8c3YUxQj2g0IAhaik7yzXnnG2Fo+d5FMQScJsh8sekjj7wrQk3pFP4Yf9Ki3DWWtsg2lkS9GE4faM+ZyFlOR/FIHSc8XwLKQljjOVknB3fLLjbCgav0RyiR+Xy3Gs/ALO5R4/6UKDFORKZwrx2i+txmuSy+SSNM4GTMKlPvdDKa+bXFvkx9lTpeXZz9J4EmbfKSYncc66ILNS41KVJJ8CVBLurs8ZiJw12dV6FIO5kXBSnsJXEqbP8XKGGM85hVp8qWdyfzH1QwT6nkAqFTyID07OvIkPnk45qZqaig8HQXA+bpJ/4Pv+ZbC5iJ8xY8aM6bF4hZLW82+NIsO/K4b/8Edkj4wX7nCzzfQBalxinXx/aGsInD3d1R8g2qqvtJ0nUPo3vq1WVraVOBDTNlV5nC3+sihs7b+Nyaw599xzi3gv/gjvz8mwqyE4P55Op5+B4Pwo45lM6tvVVZk00pNhP1dZWdMrwl7pF8fkYPJFQAREQAREYLAQoCjCG8b2rKNxcikaPrgNN5nmci+KAbxZ5RdMfG9usyqX8HG5XqngQSGLe+FQ9KAYwxldbVbuZiKXIyVVKErxS3ypcU8ot6UARZZEBCr9IkYuLUV63KOARAGPezBxY2uKWa03HjgaH91Nxgga3MsY/rLOmT3fQgKXXVGEIWfyRlK/cuRGYcIYE0+zp0DVUQe5+W1pGY679FwxzOsraaNUrEnSuuvzGqR4yuVy3ympzJlgpddASVZrkP1Lrh0mctYZ/VLjzKIkTkGX5zCJ97TPpZdeSaOcqUdmpcb3QFKkVCxM0rrqc5Yar7uuludyxdK+lYqoXW1D5URgSBEYPXrKej+I7ubMjZaB75nxvLMOPvjg3+Im+TOzZs26cObMmV+bPXs2BeWWIsaMGTN1Y+SEF1rb+ufGRpFz8d13zyv9+9pafoAF+GNSR7M+OehSoX6ADW9Ad5fL5tsbAD8vSmcPt1eu36f/7sYb93SNw9UDvNbY3ygKwwtqa2tbf1zCe/MPeG9Ogx3xvve97+Bp06a9Fu/Z6dVV2aPCIOKPX8ZzXROEwR9GjRrF74Fsp0fN6dHW1JgIiIAIiIAIdJNAPy1+BPrFmRSJ6PMvxLksiRtuc4PSexBvz/HXK97QfwkFOCsIXqurQYh7aXGDbAR3yXFZYtIA9wTihu7tGffo4Zdjli9dwhR/2WBiDxlv5LkEsK3mONuGTErzyJnxmXhJ9vNC0HDJGgUuzijibCTO+GF6fzGKOxwr+0ORtLMvaaXninUoKLV3rpheukSR5XfVOKOttI3OZigl10pSp63rhEtpk3wKs/wSn8R72qdgWNoml6GSU3t2UWnhXg5zmWTpIZKluqVpCouACJQRiBy7KBGwfD8wFRUVZzVv3Eixv6zkjtF9933VImss/+a0ZESHv/TCvlwK3xIfsB4/JzqbscKtCAbsAAdox/mDSUefmfwOwB+LBujwXu523nMmR5FNvtsYY+0Led/w4T6mo3/r1t24X8r1TglD/m5muH9dswkjfi/tqNpO50nA2ml0qigC/YaAOiICItDzBLjZd3LTzi+UnEHEp5dxTyruU5Xs/9PWkfkJziVIlyCTS+UoVn0T4WT2EdvljTeSdsmVzvTg/ldcGlZqXD7J/Xh+haMwnIgA/OKfiA1cjmCRX+r43aA8rTS/rTC/4PGpbs8jk7+YtzcDhjOsUKTVcWYYxSDuoZR8aeKT77hBN2es3YWSXILWmUCEYr3mkn6VHoAzlMiJaRQw8gx0YBSEWC4pwl9rS88Vw79FJjcxw6+CGwAAEABJREFUZ5gsEe0xV13WUmezFbhvRemYuM9XaRMcO4XFJI2b9Cbh3vC51Ig3d0nbfIIjOZUa93zjflpM45OrkrK97VMQLu0bl86WHpPvJS7d5Gb3XJbBeGm+wiIwJAlEkXs3hKt7rd3+lsjnC3t5lam6CHfQHQE55phjiqEJl1q7vR7K2iiMPrJ69WouNUZ0wDp+zvFpt8nnc1sD4Wzw8r8xbZVTWs8R4ANuOrq2+PnO7z49d8Td0NLatWv3cJwIP/5E8RvLWou3YvjtyZMnJ99d2+xVFNW7oe++PwgCPrAnLhNE4e3bmot8QE0c7+kXfgHp6TYHYHvqsgiIgAiIgAjsQKD0CyL3+ildxsYZFlwWmFRIxAB+pnLjd27UzNlGjLMMBa+vIMAnksGLHWdxxYFdeOHTe5LqZyJAYQxeq6M4xS8Q/GLFKeEUi5jJ5WDJeHhDPZuJJTYN4fK2kNSho0AyByV4THiGX/goTDFcapyZVhrn/lIUiDgzLUnnks0wicDn0+lK81keyX3muEE3z2tyQB6fM4CSODfe7WjZB8txPBStGKZxP6Tk+mCcxvPAZXn8JZcsmdYTxvP+gZKGeHPEPclKkl4RZH/ZlySDy1GTMH1e/8keWWyPT5hiem8Z+8P3YdI+r/cknPj44m0o5FJwnpQklvn8Yp68X8uydjrKvvGYSQOcIcHjJHEuO6aYzY3cKTrz4QtJnnwRGLIExo0bt8k65peOY2OxPAxDayLzxZuWLOHDTjrkYt3CN/GHh59lcTnrOMeYsMAni8bxAfzCHy86mnHMpyNzFncyO3wAD3V3d71Lx+fMq7M6KcnPU34P6KRYP88Oc582xnKvVsN/jrX/qh03mT8IMdqurVvn7oOyX8H7Ny6TSqWKkY0unzp1aukPO3FeT72Uf3nqqXbVjgiIgAiIgAgMZAK8EU76z9lFFC0Yp5DBzcBbP+SRmHzZ5k09ZwvxCyhv+DnzKRFx+HnLWTsoHjuKFHFgF14444QzU9gE+8AZPAzT+OWWT2rjk/1GIKH0hp/LIXkjjeTY/RSvfFoiPMN+c3N1081/nIFze0kd7rPE2UR8+iFv5tkHPpmQ+1slxbi88g5EKKaVfmH/LNLIC57h3kfck4jhxNhWEu4Ln4IlZ/ZQRKMY8R0c9C2wxP0AgWQ/LATbdR9HDpcawDMn46V003aep+Tmixv10lCk224CanD2Go1Pk+RsNoorFFWQFTvOIuTMtjjSwcsvS/LORTi5RnhNc5P+5BxRoOW5RpFedaXXzjk40hhY4rinF8fLOM8Nb/IYTiy+QUaE7+P2Zgcie6cdl8byOmYDvOHhjEKGyYqzL7lPFuO8yeHfCIZlIjCwCfRA77c25BeFUfSktfyYMMZx3UPCtDu2s6a5FxbK/NBaC8+YKIoQij60dm09/5bGaQP0hTN1+XnaUff5udoTs7g7OobyjOE+nJwJnnzWtcWEP2Bwj1P6beUPmLQoNPzxMn5DcWkv3pfzutL50HfGu44Tz1BzHGsKheIjUZTmd7uuVN+pMh2dkJ1qUJVEQAREQAREYBAQ4A1+1DIOLpWi4HMb4tzUnXs8xR/yiNNRPKLP2URc2sQw8znrhbNuuCSA4k4iIvBmmk8rZLldMS5jxC9mJvnixF8JufSLX7i4hLGupXEe7yKEE5GI8Y8gnogufFodN1vnNHHOpElmUaFIlx1Z8Qs1l1OxEr9fcINt8qJow1/Kv4sMCoDwDG/2uS8XfS6bYJ+ZTuNMJIoiFFooth3GxBIrFydKsnotSMHpJbROAYLMEYwdr4muLlfjjCYu6WRFftmjwHgvIhz70/CTcW5BmHnwuu1+iBp8+iSNM9l4TjibkNcjsgzHQO48X4x3ZFwyy/PHMhTvOIOIe79R3E02tGU7nI2WXEss21vGazSZhcVrgPtrcJ86vucewEETYZPCKPdQQ1Kr4yzEJMJxUdTj9ZXMIkvydtbn34tkeSzPLWdb8nyzLxQm+X7g+/TnOMCLsNjpRQSGOoH3vve9uSgI+SMF3x+mWCwaz3Xm1NfXdzoLOGu8/+e6Lv9exhitdQ6KgvR748jAfuEPBB39TaUwzs9T7ss5sEfaf3vP73X8bC/d67Gt3i5HIr+nwBuYjuLv6pVLL8aHeesPs2EU/je02zr9HnJzff1wz3XP8wN+lYuF5KKx0XzOruxNGvxA7c321bYIiIAIiIAIDBQC+Pxu7Spv1DkDJZkCzS8zJyKX4g6/rHwN4cQxjWF+gnPmEcWDRCzibAzOfnonCvAzdwN8zsigcIHgLjse62K0QoEInqEIwpkpFC0Y594MnPm0iJES44wZTg2nuJQkUxSgmMR07pOVpHfVpyjwdhTmhp+l7XLWEpJjx/YpivAX9nVxyvYXCmxcdpmcAz6Fjxu4M86bG4oO20saM6wl0B2P7ZSXbyutvAzjFEPuRoBLzyhOIGhYl+PgclHGu2IcO5e2cQZfvqUCl1TyfFUizhs4ih7cN41CJJJ22bFNXovr0RI5kivPD6KdOl47FO7+gZK8tjl+zl5KnvbHfM6Eqkd+bzgyLm2XMxM4u4qzE7hkk+8nLi89DYXSMPaRAtcpCLMsvFZ3NUKsA89QzGM7XMbLGVlMK7Xy45bmtRemmMylgRSqeZ5ZjrMHk/ch+8P31ZeRsTPto5qcCAw+AtbayAnsb+A/k4wuCMOTKisz/PufJO3gQ9yq/vWvf73vk+vXm6Jf/KLjWP6d4yws10T2G0uWLOFs6B3qDLAIH7rBHzY66zZ/pODDTvg3rbOyyu86AYqnFG/42dJRLV53/J7YUZl+n7du3fLDHWs/j4uIn6kG78UoCsMvv/RSGOC9RrG03TH4mczpnpfi95i4DOr+t6GpuDOz+OP6XX2JO9rVwionAiIgAiIwmAgM2rFwaRZvbGkdzXTirAyWSaxc5DkfhLh88JPw+UWR+0hxGRVFKX5AJ/U+jPxSxyfqcdN3Tiv/BTI4A4t74FDI4lInClilN7Gc0ZW0xc3WUWUHNw6xJJ9iCqI7OC6tYrucFcMZHizDmTh8KhNnj/HGeYcKLREKWxQkvof49bDvw3hjz/2ruBQtOWZXBQ9UN5xJxCc1sh3OpGI/ViCDHMiTbfKYnDWD5FZHHpwxRsGEM3rI+yLkkiPPJ59QyLo0Lp1EVuwoTDCNxtlGcWLLC2cKUVRgHtttSW71uCyOebRSQbK1QEuAIiaXVpIJx/FtpFMk4TgoOCHa6jjjju3RuHF3a0ZLgOPk8j6KVJwJxS/JFIB4fB6DbXK2X0vxTj3OmOOx2jKKiVxqQtGK1wHFVYpOpY1S9OH1nNSnAFOaT+HrWCRQgOV1wmuL1wkFSF5zpecCxWLH/vPYbJPnlOJOnNHywhkSzGO7FAZbkmNvIV6ZRyt/XyErnm34HgSOgvH6YHmKmxSGWIdttjXDaS7KM5/XFpnzpoPvGwrKyDJJf1mm/NpkPo1jZz6NTxplWqkVEeEND7/M8z1OwZDLibl0lGJZ6cw9FJUTAREggdGTJj0dBuG1rtt6r+y41vzgllvmcyk8i7Ta4sWLZ+ZyuXU1NTUPVldXP7ytsfCdIAggTlsfN8+4+TZ7ZdN2dGuFgRng5wT/pnXWewot/Ozm7OvOyiq/awQ4k5d7h/Kzq7Ma/L7W3udFZ3X7T34Q8btHJd8/QRCaxuZcuHFL0wcRX14sFn/J99y8efP4I9sOfYa4lU5lU5/K57f/Hufi/Yv38eKpU6fye8UOZXs6IgGrp4mqvaFFQKMVARHojwQ4Q4pLemjJHlFt9ZMzJVgmsbZufLkEiPsI8WaaezP9EQ3xhpzL7ZJ6pZupI9vwRpYzmLiMiKINBQvukcMbYC7hYplS4wyXpC2KaqV5DJfmt1WfZSg0LEGAm4NTKOPN8mLEmR7Bb8vxSwbH93lkUlSgoMWle+TCmSxJnzh7BEW67FifTChusB8UfsiB4g+XWXFGUFuNcdYWBZSvIpO8KTCwHfKkMJb0J1mmiGKG5yxJLxeT+K2KAgnz25rxxr2ImEej2MX22jOecwpxHAdvLLh0sK1x8EmPbI/GjV3bao98OMOKIuj7UYBCFwUWtsn6SOqy45JGHqst49i51xpnNpQLV8kBeG1wtmFSv63jU8BjPq8TXlu8TrickOyTdkp93EwaHpt1uJSVv1KX5pML82jl1xbPLdNpPPel9ZIw2+d1y+uD4iaX0VBU5Dlu65ywHq91LjPktUXmXELLOuTHfNblMWlJGtNLje895tM4+640LwnzmuN7hw9toGDIfbm4xxz/HrAPSTn5IiACJQQi116Nm+f4vRdFkXEd58jGxpp3ImyTYgsXLuSPTL/EjfLxhUJhz1wuNwJ+TVOu6BgbOfhj1oSbbhOF0aikzgD2+XeEfz/4edHRMChiUcjnDwzJDOGOyiuvfQL8oYafw/yBpP1S23O4ZQR/EAm3Rwf0a/x+aWzKmS3bmkwz3k94H73LcZxT4fManAexeNmiRYtaZ0XyfTm8Ij05CHz+oBMPHuLVC4GNuCogjvfmi9ObjXelbZURAREQAREQAREQAREQAREQAREYmgRqayfeh5viG3DDHAsCYRhmUk7qF8uXL6+ur693cfN8OfKmIb0SZhA2uMGO/Vy+kIbKVTRRVAHxKm8dmzw0YaDD5GxR7vXX2Tg4dY0/sPFHrMNQGDjw2o9dP+sahT9uYE7WnPXdWff4AyZ/OOGPGp2V7ff5EH73amrOm6ZcwYQR3kFRZPkeowVBYOBXRFF0GuxavA8P4oBuv33VCOO6v0Aerz3juG6EN+6vxo2bwh+XWKRXTQJWr+JV4yIgAiIgAiIgAiIgAiIgAiLQYwQGZUPpCvtF3CTHs0XhGwhUr8s6ZkJzc/PhiH8A1irMuK77GG6efwUQ6yFm4b7bcvajjWyUwQ35YJntCE3AcCYnZyZjqJ06Lu3mDFfuTdhpYRWICeyHVz7Qg7PYRiLcFfcJFOrVp+yh/T5zYRBailc8IN5LES2bzZqqqirjedu3icR7j9mvwnuOoqpp2uafbkzE5ZaxiByF4UuR9blknuV63SRg9TpiHUAEREAEREAERGCAEeDSSy77onFZ2wDrvrrbMQHlioAI9DcCt99+34vWRNfgBjoWoHzfN9a1H4OQdZS1tiLpL8Srf8HetWnTpguQ/g6EH7O25eEekbFRQN0nKT3gfS7hpiDFrQS6Mhhy+i0K3gTjfoHxDBmE5XYkQPFlLpK4rQH3LeyKJsILi3uEcikrqg58B2HK2dqY2wt+PBj4vF42NDY2npjP5w8rFoufQQbFYXiGYtWJ9fWL3mSM8w2IWdZs/4c3avSrurozuKxye0ovv3blZPVyF9S8CIiACIiACIjAgCIw+DvLfa5ejWHS+AUOQTkREAEREIHeIjB37tywGHlfM9Y8lxwjjKLjKivSF+DGOr5ZttYaCFtfnjp16rMXXHBBPpVKPVNTmWV5iguoZqN83n/Twii6BI8AABAASURBVIULufci4oPCcS9DilHcF6urA2L51ShMsYUPkaAwgeiQd5xlRUGQe6VeDBqcgQWvU8c9OrmXKfc2bbnWOq3T3wtYbtAeBCEf8hL3FW8vU1Ndmd1vv8qHzz777CcPPvjgH1tr+UNeS7710qnspUh7TZyAF7w3nx5TO4kPVUGsb5wErL7hrKOIgAiIwA4EFBEBERABERABERABEXiZwPjx47mv0HzX3a634ObYuI7Lp4vGogHjuHnmQ0fiSjVV2TMc1zkhiuKoifC/4AdZlPnuihUrXvHktO2lBuQrZwJzphCXu3V1AFz/xScU8gEWfAgJnxzb1bqDrRxnpvHJw3x4C5fB7YsBxqIo/M4cry4++OO7KBjPDoQ/GBzeThFFvDTeLxyjSXueSXlOtfHTazBA+8c//pHvOx/h2KU8F2Xc07g3lsE/1DMmivjEXcT6zknA6jvWOlLPElBrIiACIiACIiACIiACIiACg4hAJvJ+HoRh6xN5PS++XaVwwFkw23DTfObSG6+/eM3KpSutiRbgLhxCDSUsmy8UCrmi76eB4zWbN2/mk0YRHDSOQkIdRvNzGIUFeF123B+Ly+X4FNXzUCsL66qAg6ID0vHCoWh3JXpP4YpPQt4T4e44PoH4NFRgG/AGh7vlllu8RYsWUcg7FO8fcoocx5rKykw8QKhZ71i7atmzxx79livSKe9VlRWZoGZYRVRTXeHi/cfyBj7Fq396zUUKe3G9PniJDxF3IA7pRQREQAREQAREQAREQAREQAREQAR2E4FRdXXPW2PPc6zl/k/GdRzXdR0KNhncNFfihtvL5QufQ7gujKLtd9zGeEEYNDc2Fz12G2V4o/3hhQsXjmF8ENkmjOWTsAth3KsRXpdd1hhzDEpTyOGyxB8hPB7G2UjwBoXj+T8KI/k4bC2Mm9rPgn8gzMK641j/SFT4AwyaDl4HiXvqqafeg/cIHxDgcEgO/lVVZNd7ThxlkkH+/njnzRxWlR1WmU27ac8jP1pLvsmFYfix90yduiVO6MOXl3vZhwfVoURABERABERABERABERABERgQBFQZ/uEwJi6CcuDKLjYWlPEAW1NdQWFCYubahdxU/SDylwuz9kxjBrruI8UA/tWz/OeiBO2v3DZ2CX19fWckbU9ZXC8ksmPMZTjYNyfaGfElQNQ9wLYchj3ELsB/tGwKljMGv5AcNQyKGLugc5+FPYkjDPNuFcV9wFjPpK65Qoozf2uauE/BRtU7re//e3e0KsoXpJbPJMKQtSjTbnCG43j3Gttq0ZlkM6xv5zAGMxx3E0mDN5TO2HKHxHtc7czJ7XPO6kDioAIiIAIiIAIiIAIDHwCGoEIiIAIdIFAdOfdf/9hFEanW8c+nk6l3HTKo3CTVLVN+WLGcZzAMfZHxim8a/LkyU8WCoX3IW0rC0Hs4s35m5H2fcQtbLA5ildvwaAo3GyAv7OObKag8t9gXGpHUYIC0JmId3WTcxTtM0dB8u042mdg18H+DqPQ9FP4nGkFb6cdn97IWWpcFrczwuBOH7ivKqbT6a9ba1+bHM913fW+74+dNm3aS37onGasM9tas8VaXhZJKWPwvjKplGccaxeZIH/82AlT7ng5t29DTt8eTkcTAREQAREQARHYBQKqKgIiIAIiIAKDngCfSjh2/ORbQ5N6m+8XZ1dVpOdZazcnAw+CsGnD5m1/CpzUF8aMOYOziMzMmTMfwI32pbgpj4tBxOK97uyrrrpqVJww+F62YUhcEvgO+Ith3CcM3k45zm7bHzWPh30Mdi2MM5r49MMrEObSxXHw3wTbG8bZWin4FtZTjm2xH9yjazgaPRR2Amwm7BLYzbCnYdzM/nvwKbxRjGFfEN0pR6HqEdScA+OS03/A55JVeIPLXXHFFVw2OAPvi3hgeK8YCLyXnXPOOVxSasaNG7dpa0Pz4g2bG+6C7+fyBViRMx6fAqRP5YqFI9OVNXNGjz+TT3FEUtxMn7/wTd3nB9UBRUAERGD3EdCRRUAEREAEREAEREAEBgKB2trarbXjpywYN/GMjwdBQBEl6XYNRKwTN2zYQPEmSTMQry7HDTqXkSVpw8Mw/PXVV199cJIwCH0unZyBcfGJjb+DH+8fBn9XHHUCLjN7IxqZDbsMtgLGGU//hX8/bB3st7CvwfiUv0nwT4K9GXYE7FUwzoqicdki/YOQdhiMG6xzJhWX+k1H/NMwHuN6+LfDOBuM42J4AeJfgJ0G2wdGkYtiF4K75J5F7S/COJONIt1uE2XQh151vP49z7sU743q5EAQsNY2NDT8NInT933/nWEYvStfKHoNTXlYzmzZ1vSFMbUTfjRu3JSHR40a5bPc7jRemLvz+Dr2QCSgPouACIiACIiACIiACIiACIhAHxLYsmXLNdZaCifJUTkD6Kp58+btlSRMnTqVy5/OyWazTUzDDTu9V+PG/FIGBrlRXOITB7k/1hqMtXTZJaI95ri/GAUqzmw7B61+BcanI3IvrVsQvhvGmVucqcPZTf9GPPEZfgjxB2B/hrGfFKi41PMTiFME435cnOVlEe9pR5FqIxr9MIyzyTiTa1dmrqGZ/u1++MMfVkD85fnhDLu4sxCzTC6X+9RHP/rRhjgBL4sXLz4E5ZYiyH3Q4BkuHbzxoIMOus7Esf7xIgGrf5wH9UIEREAEREAEREAEREAEREAERKAdAhdccEE+nU6Pg4hVuufTQZWVlV8vrYKb8webm5s/7ThOPFuEIhbqTF64cOFnS8v1ZbgPj8UxU8iqwzG5HJBL7ziTCdFecxYtU1egcXYUhUXO3qLQVYk8LvFLjHEuEeReVhRKWJ712AaK9pqjcLUSrXM22Wvg/xq2CcZ0eIPX7bXXXhfi+h+H90HM2HXdHISq9/73v/+lqNg68DAMv4XInrDYoc5mpH2sP8y6ijvU8sKLpSUoTwREQAREQAREQAREQAREQAT6HQF1SARiAlOnTn0WN+I/jiMtL7jR/sDixYsntkQNygQHH3zw/0N8GUQseMagTgo37p+98sor3xonDP4XCjOcCcUn6r0Ow+WMI8aHhGiD8dJxZhWXO3J/MO6nNR6JC2GcgQVvcDtc8/aqq66ahPfAZyBExYPFe8VAvFoOIXgJ95mLE/ECcZdLQKciGDuUoxD68ZkzZ8b7y8WJ/eRFAlY/ORHqhgiIgAiIgAiIgAj0HgG1LAIiIAKDg8Djjz9+CW6wuddTPCDcqKdxU/6r+fPntz41j7NGeOOOctz027fW5FCuJpXy1i5fcv3Zq1ev5gyhuP4QeKEYwRlHnJHFPa24mfdfB/G4N2Ns3E/rRPhcJshN4PmkQkSHhlu27Kp916xeftnw6opf7zG8esQeNVWFmuqKZ7Lp1F0NDQ0fp8ibkICQRU2Is69SSZq1dvmMGTMWJfH+5LOz/ak/6osIiIAIiIAI9E8C6pUIiIAIiIAIiMBuJ4Abbr9YLH4cHcnDYgexam/P8xbU19dXwNxVy5aN2WN41RXVlRluHO5FkcmGYZgJgnCfXMG/yobFZ9asWvrTdetu5KbgcRtD4KWIMXJGDZ8wSDGL+1hxSR2FCm6a3hObv+MQfeoiHO0l2G2wb8JOhXHD/gvh3wPjkxpZBsHB71atuuGQdatXXJ1NVT9uoujDruvsaa0xjuuk0ylv76rKzFtefcgB69auWnLGLbfc4i1ZsmTE4Ycffq+1do+EDsLkSX5JUr/yJWD1q9OhzojA4Cag0YmACIiACIiACIiACIjArhKYM2fOv3GjfS6Mogzu1SOLNt+dz+cvqKnOfCSb9VZAsDol5bkObtqR9bLLFYqmOZ/fy7HOR50wfcuqpUs5S+flAkMjRFHncQx1AYwzlPgkPj7F8DzEueTuXvjrYQGsPzluzv8YOvQHGPf34qb1fOrhKYh/BcZN5Fs3Jkd8yLh1q5Yem3JSfzYmOgvXfsqxtiKK4vcFGfB8c8+xdBhGR3le+vrmxq0XNzY2XoD30FuScggHCH9o+vTpXHrJev3OJGD1u1PSYYeUKQIiIAIiIAIiIAIiIAIiIAJDnUD02GOPLcTN9h0lIJxMJvUta+zlhWKRN+txVmU2YzLp1tVRxiI1ly9S9DJ+4B+ZqUxfu3r16oOQPJQdZ1/9AwDmwWbA3g4jE+4d9QGEr4Nx0+8N8GPREH5vuhCNU4j6H3yIMua78E+CccbcG+CfBuP+Xuvgc1YZBRoEB53r0oBWr156pLHODUEQHhCEYc4Yi7dGjCTCa4iXbdbaVu2nWCwav+h/3hjzaRSEZwzy+Z644fHHH19u+vG/1kH04z6qayIgAiIgAiIgAiIgAiIgAiIgAiLQSmDu3Lkh/p2JBD51zziOE1VXZh2kUaNCMp3J4+b96qqK9CTPc+5iCm7YOcvE+H7AKG7ki2/IeGbRzTfXD48T9EICFJAoVD2DyG9hU2GcqfZa+HyK31HwR8EmwabDuOTsG/B/DquHcUkfl6JFCJe6AiIUwvhEwCsR/j7sIhg3mee55IyqdyJ+JIzH4Qb0FK6+gPjtsEYY9/QqbxfJQ9NxGWzWS/8Ko+dyWYOLP2NM6OWh4m5rzBU2b226KXKiU8IwOht5D7MAykYNzblUFEXVMJ5rJJn7fd+fzfcVI/3VJGD11zOjfomACIiACIiACIiACIjA7iag44tAPyYwe/bsDRCuPg4rVFakfdygw23vsLV2s+OY944dN3Fa3YQpyzwvzT2RDNJdE5koxD+Df7iBh5jln1wspH++cuXKkUiSa5sAxSc+wY/Lyx5AkVthy2BXwbhp+sXwPwp7H+xk2N4w6g08J4lBXDEUpfhEwHOQ/znYt2DcZP4G+Gth3GD+3/Cfh3EWViKwICpXSmDFihV7OWH6F0XfPyEMt2PC9Rw154o+xKtUZGwG6Qvr6ibfXzt+0rXGsxOiIHpo05bGYhDE5R28Hzg7axPKnTdnzpxcafv9McwLqj/2S30SAREQAREQAREQgUFBQIMQAREQARHoPQLTp0+/zbP2w5lUqnWdIAQts60pd/1f7rx/FY5sFy5cuH+xWHwbwrGLjPO/yNqbcPMeMQE379Zz3Gmu9S+BAKB7ZEKR9WsCCxYsqMp49udB6E/B9Rv3Fdd9lCv4/2vKFSgUGlzLNAqJcf5f/3rfExu2NNwWhKGHBIqKnLk4HELvBbNmzfob0vq905uz358idVAEREAEhjwBARABERABERABERCB9ghEwyor70qlPC4vi8v4fhAVi/6MI4444kaIV1+EULUSN/nvYCbCxtroEdfLTUN8HePwTRAExnO9969ZtfRHURTpPplQZP2SAJ8guPeeNT+IovC9UbS9i7yOcY1f35wrfAwp8UwqiLa41u3nFy9ePBHvg/0PP/zw70Pkej/yY/EKdaKKTMpUV1c+ibQB4fTGHBCnSZ0UgV0loPoiIAIiIAIiIAIiIAIiMEgJWJvBzTxnlcQDxI289YMwi8hE13W5RO1tUcvlmXjHAAAQAElEQVSdPm7ai8i/Yty46Zsc33zAROZm3NSjqOFSwlTKS523bs3yS1asWFEZJ+pFBPoRAc68yjVu+bFjnQ/jOo57hmua/srIafggrnM+ifGvLWmcgbU/ru+l6XT6f/AvRB3OVIwFLNex+arKrElZp3WWFhvqzyYBq6tnR+VEQAREQAREQAREQAREQAREQAT6HQGbNoE1NmztmDUGjjfv8cwq3NQb/oOY5SN82YwZMxYyfvrEif/zTfCJMIoeYXmm+b5PEetznhN85e677+bNPpNlQ41APxxvfX19xZ571HzDcZzzIUTFl2wsVEXm9qZ8cE5t7YytuLa3Iu2r6H4zfHixMGsKhYJBnTjOF7ThD6uuyMJHNNqElwHhJGANiNOkToqACIiACIiACIiACIiACIjAwCHQlz31PLvZum5zckzXcULXdZo9zzOu63KfHy60+i/EqU+m0+mv4Mae8bj4uHFTHnZDZ1xkzSNIj9N4s5/yUp9+8YVnLo0T9CICu5kAlw1WV2R+mHLdTyZCFK9XiK//DGzwgcmTJ3OD/biXqVTqDlzr70HkSQpULEdrCfuOYxtrqrOe6zgGZU3kmqfNAPnnDJB+qpsiIAIiIAIiIAIiIAIiMJQIaKwiIAJdJLD//q9+PgyC//ImnVXgO9WV2X9FUfQh3Ox/KgiC92UymZNnzZr1s6lTp/JpeizWaqePH/+oF3mTkHA/6sIzplgsplzHPW/NqiU/0HLCGIledhMBiFfZ5oYtP3Fdey6uZctuxNdpFN1pnGhSbe3kRxFvFWVxjQfnnHPOHUh7N94DF8Cugd0Ku76qIrNpZE1Vhee6BvmmqanpnxUVm59lmwPBnIHQSfVRBERABERABERABLpPQDVEQAREQASGAoE3vvGNRd8Pvu26rp+MN53y3jKipur1jz322OUQrq7DTf1TSV5b/nvGjXvYj6KPmsg8xht7loFYkE6nMp/yvPCiW+bP555aTJaJQJ8RWLduXVWxueEy13PPhRjbKl5BrbordKJpY8dOegLXK6Kv7NL06dOfmDFjxk9mzpx59huamk7fc+Swp6oqs3ujfKwDWWuKrrXnjho1J//K2v0zJe54/+yaeiUCIiACIrDbCagDIiACIiACIiACItDPCVhro4rq4Ut931/BZVLsbhRFjufYj77j6LecP3fu3C7d944bN+nPgQ3qoAZQFGAz3DvIetb9XG6vEd+KE/QiAn1EANewDQvN3zYmOi8MglbxykTRP92wOH1sB+JVaRfr6+vdFw/Y50to4OMQZeMsLq+NInvj6XUT/4oEXPJ4HQCuS2/kATAOdVEE+i0BdUwEREAEREAEREAEREAERKB3CYwaNco3xejCIAzvgaAVHyyMoqzrupe+/W1vmRwndOHlmWde/E9TLvdB1H2upXgBwpibSqfPW7tyWR1FhZZ0eSLQqwTWrFw60fXc83BNGypMYRgZhP/ppN0pp48/c4dlg+11hNdrTVV6luO6n4MQlmI5irwQsm4Obe7jeK+8/PADZvZzGwgCVj9HqO6JgAiIgAiIgAiIgAiIgAiIgAjsbgJjJ09+Moj8GZ7jPoMbc4Obdz55LeOlvF+tWn7jxM76t2DBgmOqq6t/0dxcrN+ytXGfIAi5tIpWKBaLFY7n/OLWW6+r6qwd5e8SAVUGgfr6+nTK8y4uFP10U3PBbGtoNlsbmoItW5uiF1/c+pErr7zynfPmzYsFKRRv0+H6t2tXLT/TWucnCFdGUMH4vgij8EkbOhfU1k59sc2K/ThRAlY/PjnqmgiIgAiIgAiIgAiIgAiIgAh0j8DQLj1+/Jn/aizkJqRT6Rdxs45bdmPCINgjlUrPX716+ant0Vm8ePFpqVRqLW70PwDbyw9Cd1tjs4fy1bA0LIKgtUe+oeJwhOVEoFcJVFRU1OQK/uEQUk1TLm8gZBlckzYIwzfh+vyU53m3oszXIHS5po1/KGPXrFl2huM4vwnDsArxuBRErBeNY8eMHj/+X3HCAHuRgDXATpi6KwIiIAIiIAIiIAIi0MsE1LwIiMCAJjBx4pn35fL5j3uuu9lYu13ECoORbmSuWr1s2Qnlg1u0aNGbcKO/OAiCPZMbfdd1TRgZFyLCFpRnG441JtOUbz4dcTkR6DUCt9xyi7d58+YPbG1orAmhOPFAEGOL8GP9htcoRKk0RKxP5/P5r7S1x9vaFUtO8Bz3Z1EUDkO92EGgfcFE0Tljxkx4JE4YgC8xgAHYb3VZBERABERABESgHxNQ10RABERABERgdxKoHT/p2kLR/0gmnd6Km3/ct0cG//d1Pbtw7cqlJyV9a5nBciEEgb0jiAUsm8lk1kPMWoz4ylwun4EP7cqwDa8YhJdA8PoC6nFmVtKMfBHoEQLz588f8dxzz30FYtN3QiioSaO4LgNclw9DtHoGYmvIdFyjaYQ/c/jhh7+J8cTWrFjyLtfzrg+DcB9cu3FyKp3eUCz6548dP2k12qIgG6cPtBcJWAPtjKm/IiACQ4WAxikCIiACIiACIiACIrALBChiQYD6oOu63MeKAhRFrMOs4161atWq+Ka/oaHhABziONzoxyIVym7M5/NjZ86cOQP/xqc89xe44S+gTOxQzkX8EpRZ+Jvf/KZ1dkucqRcR2AUCEEVdCFfX4Pq6uFjkhKvtjVnHidJpd+nUqVOPLBQKx4VheC/KxJkQsLg88LQ4gpc1K1a803W9a4Iw3BfXKlKMqayoaGzO5983dtzEG+OEAfwiAWsAnzx1vTMCyhcBERABERABERABERABERjKBO685/4bi37xyxCmXhaxovAgzwaruCdWOp3eDzf6B8JiTIj/N5PJPBBH8FJZkd3PWMsZLxSx4EcFCAgGwsEElPvT1VdffQyKyYnALhFYuHDh8b7vPwJh6nT4cVsIR45jzfCqrK2prDgC16idPXv2s0jn0wN5PZqWa/FILiNct3rJJNc114VRuG/cgDERBLFtjc1NFzY3F29tSRvQXscC1oAemjovAiIgAiIgAiIgAiIgAiIgAiIwlAnMnTs3bGgq/sgPgos81y1wmhWEAM7GOtiz9tphldmTIAhsTBgFQbBHoVDYn/FVy64/BvrBBNTJGmssRCsbRSa+h4ZwQP8otLUU4sPZnD3DOgPa1PndQcDi+vkIrq3rce29GteVZScQjzzPDWuqK03Kczlz8C1rVi09j3m45jjzz2WYhjrmuLe/bbwx7mKIV61ibCqdbvT94hfH1k369dSpUwOWHejGN91AH4P6LwIiIAIiIAIiIAIiIAIiIAK7nYA60D8J8Oa9oalwmR8GX3A9L8deQgQwEAz2ymbTF3uuU+M4NmI6xKtD4K9dev21463rzjfWVrOsNTYVheFtQRDeBnEhFgOYjjYOdF33inw+/yMtKQQ5uS4TuOqqq/aCePUbXE+XQ4SKRVNWRjzAtbW8pip7b8p1IF4ZCK4m5VrnB8uXXv995P0KFgtY8E1FNvMWx5or0EYl42yjsrKi2S8WPjW6duLPrbXxtc30gW4SsAb6GVT/RUAEREAEREAERGDwENBIREAERKBXCFDE2tZYuLzoFy/0PC95siCEgWh4JpOqCsOoyANTAIC9oangX+374WuYRoNItSVVEb0/nU5PQHxuKpWCt91BxEpDJDg/m83etHjx4pO3p+pVBNoncMUVV7wb19mtuG7OCcPQS0oizuAn169ff7Zx7TnWdWPBlYlhFFWkPO/CkcOrDq6sSJuqyoypqa4Iqyszb0XeCNPyz/NSLzY2FqZlKodfgfYGjXjF4UnAIgWZCIiACIiACAwaAhqICIiACIiACIhAWwQoYtWOm/xLPyh+JJXytuDmngKWyaRS6YpMuvTe2AmCsGpbY7OTLxZzKBcEfnjJqadOegJtNKRSqe9BdJjgOM6LyIsPBTHCgXGD7esXLFhwQX19vZ5SGJPRSykBXBcVixYt+jKuoXpcL2+EWebzOsL19B9cV3XTpk372YUXXthcWzvpITeyn4B4yiKJOR4ScL0aWspzed3y2jNsw0ul1vu+f17t+PFLR40a5SeVBovPwQ6WsWgcIiACItAzBNSKCIiACIiACIiACIjAYCUQja2bfHUQFOekvNTzvOm3kBCqKjNuNpMqQFAIk4GHYZTauq3Z27qt6dqtTbnLbctSLIhYBYgMK1DuBM/zbkvSURdJZm/oCz8uFArXX3PNNYdDsEi3mMtM2dAisHr16gys5vZly4YtXrz4qHw+vxrXy9fDMNyj5XrhAwECpN0O4elds2bNYn7rrKn/vbRxcWNj8zpjOl4GiGsuch3n+cD3Zw+Gpw2adv5JwGoHjJJ3jYBqi4AIiIAIiIAIiIAIiIAIiEB/JXD62EnLGnLFk4yx8x3HMel02g4fVpWuGVYZiwfWWgPXCJEh8sNoKgSpxRAiMqbk3/Tp0x9tbm6egDIXZTKZeF8sZkOcMCaKTi0Wi39xTLhqWGV6FZpesnbl8m+tWlW/H8vIBi0By5EtWbLk0DWrlv7MhoW1xi/cvs0N1w0fVvmHimz6LWEUxWVYrqKigt4XgiAYM3v27KcYSeyyyy4bYa29sSlfPG3z1kaTL/oQukzkua5Jp1KxZbNZA/HqJTT4taCp8LbRtRMgdpk+/9dXB5SA1VekdRwREAEREAEREAEREAEREAEREIF+QQDCQDRx4sTHMpUbzi+GzuG5XP7MIAw/l0l7F6U977MQpV4wxlagXAriAvcomrhhw4a7FyxYcKwp+TdnzpzNBx100PcgcNVCCPs7skKICQHUL9bZO18MTtvWmDvNRGZ8ZMIvuFHm/tWrlv1o1aobuFk8isdOL4OEwJply167dtWyn1aknLutsefh+jnZOOZ1xth3uo4dWVWRqdlzeFWhMpsuOo7zRwigJzQ0NPx41qxZjabkH66zU/bee+87kHQ6BFHXDwLb0JhzN21teqmxOffZol94Hy3X1HSSH7lHetnqb40544zncLwIdQatk4A1aE+tBiYCIiACIiACIiACIiACQ4WAxikCO0dg1Kg5uXHjxj1RN2HyDWPrJn5/bN2k77zv7LMvhYA1Di0+CkEAHidURQ7C/we7eeHChdPnzp1LgSrO415DBx544B9G1lQ+l82kuNbLRX3LTIgPJl8omi3bmhh1IhPti5vwT7iR96fVK298/8033zycGbKBTWDt2rV7rF6x5GPWi27BSD6K87wnrho+TdDgQkgjLXEuriGvsiITjqjB636ZB88999z4AQIsMH/+/OyCBQvOQZnViB8Jix3iXGr4QBhGJ0ya8t5Lx9RNrqeNnTDl9tra2hd5DcYFB/kL3juDfIQangiIgAiIgAiIgAiIQOcEVEIEREAERKCVwKxZs+7O5XLHQ4j6A8UDZiBMbxjiv331q199PcUGJkDMcnKNW252HOf06sqsHTGs0qAMs1rN9wPTnCvEcbYDgeNV1ji/LuYbb1+3evmpRv8GLIGb1iyd9yKrFwAAEABJREFUHBVzf8P5/3EUmf15fnn+w9D48Cl8xtcDwhijbUQkQCDjOs7bhxUz19bX17fuj+Z5Xj3K/Qb5lWwHPopbE4bhtbCTuWyVaUPVJGAN1TOvcYuACIiACPQ4ATUoAiIgAiIgAiIweAh88IMf3NjU1DQGwsHXIU7kk5FBWEgjPgFiw10LFiw49fhjjx4F0eEkpFuWSaU8s+fw6qeRvwjlKEBA1zBBoegHruuWLvFyUOH/wjBasWbV0uUrV15/GuvL+j8BnGtn7cpldWtWLPt9GNqrjTVHMK205xAtna3bmgovbdpmNm1tNM35/A8dx641URTP3kN5KFPR6GFVqam4jqbA/oPrqA5tlOo02xD/THNz8/tnzJixFeEh7UrBDGkQGrwIiEC/IKBOiIAIiIAIiIAIiIAIiEC/IcDlXU888cTX0KFpEBeehR87ig+Ic0nhKr/oX4V46ywaqFVPGC86GWmfgjXBoFMZF/rVi8Vi8dOpdOoRCFlxO9tfokpr7HjXeqspZK1evfy4u+++O7U9T6/9icC8efNSa9YsP3Hd6uUrjY2WWMecivObSfroOI7xvNTfm5oLV29tbLb5oh8vH4RI+c0H/v7QFwPjTTfGLIBFMLqgOVe81Fp7NexQtBVrNAgbtPUk/GkQrn6A6zBeg8oKQ9liOEMZwOAbu0YkAiIgAiIgAiIgAiIgAiIgAiLQUwTmzp0bTp8+/Ua0xz2J7oWogKAxEBtMOuVZ69h94gS8IC//t7vve83YsZOf3LZtG8Wrp5GGnNhF6zdsubo5H77VD/yLS59cyLZMZFKw8SYI7lj//DN/Wbt22RFxLb30CwJrly9/46sO3Pe+yA/+iPM1NsL5gt/at6qqSoPz+jkvs/7Yplz+CWTEoiaEqAD//oLrqFBbW5sfO27SHGMN8/2NWxpMY1P+ALRjUT52vF4Q/xsib4N4tRJ+B25oZUnAGlrnW6MVAREQAREQAREQAREQAREQARFICHTDh5iwtampiUsFP02RgVU9l6sAGdpuQRg+CqEiYqyysnKs53mvgxhhWso/l0qlmsaPH980tm7St8JCeCSq/7Ilj1ViQ5yNHm0Cc//qlUv/uHbV8oloU/fuMZ2+famvr3dXrVpy9pqVy26PnPBOHP2NPD/wY4ewcRwnj/P8i62NWw+vHTf5B3wwANIfgMWbnkG8opA1HW3Fs7FYccu25qdf2rTNCcOIebw+NjEdVkS98yFucr+rJA3JciSgNwEpyERABERABERABERABERABHaKgCqJwFAiwKVcELIug8hwDOxe69hWUYIc8vniaxcuXPgk7K+IX+f7PjxDgYJPpPvL9OnTuacR4+FpdXWPnF478SMm8I82JroRiY22dR4OUqKoCtGToyhceuwxb716yZIlI4z+9RmBdTfeuM+wqsxCJ7JX4WycgANXwmJnLc6MMTyXV0eBPfa00XUfHTfuzCestSELRFG0Dn6rAAWRa1o+n1+6YMGCb+LaeLxQKB6F/FKXRZl7wjA8BtfIL6dOnRqLX6UFFDZGApauAhEQAREQAREQARHYvQR0dBEQAREQgQFEACJFBJHhHtgxruteX9p1x7Hcu+pVSDsWZmGxg6DxdBAEn2HdOKHkZcyEM+4dO27ymZFNvT6KzO/RRrEkm4JIZK2Zmk3ZdesWLKgqyVOwlwjgfLlhxr0RJ/Ds8kNAaCqYyCx3CuERY+omThszfjxnW8Wz7pKyEDm3QoxagesjTkd7zBprrf0yAq+GTzEy1mMQjnDO10ybNu0ds2fP/jvy4zrw5coIxMDK0hQVAREQAREQgQFGQN0VAREQAREQAREQgb4lQOEh6zqL4bce2HNdCk6tcQaQvwlixjlz5szJMd6ORbW1tc9kq4aPCYvmmGIQ/AliFtviFK4QikYewsn/BXsOv1gbvLdDsIeSb7nlFm/tyuUX+cXgnVu2NZnNWxsN/cbmfM5a88ti6B+dqao5Y/SUKes7OiTO+ZchWlLc2qGYtdbANTPRdezW4cMqopE1lb+3LbO3mC5rm4AErLa5KFUEhh4BjVgEREAEREAEREAEREAERKBbBLY0F29BhUZY7FzXcSsr0tCbTBhF0fMQJa5GxomzZs36I/xO3dNPP33wxoaGn23d1nzSloamMF8oWlRyTRRl0F6Fjcwn//P445+/4oor3lhfXx/vn4R8uR4gAL7O4sWLj3r22We/ta25+eLN2xqdQtE3fhCaoh8EzblC+qVNDZM3bWo8siuHmz179ga0ORo2D+W5nDDC9RBB2Mpbi+skmy6OqKmqgejZlK4wN6KMXCcEJGB1Aqg72SorAiIgAiIgAiIgAiIgAiIgAiIwdAhMnTp1izXRN0tHXJnN2L33HH7JwQcPe8OMGTOmwR4qzW8vfOWVV+7puu41EDhOhOhhfT/wGpryHsSTPOswzVqTdj37lVQq9Y9cLnfrokWLTpg/f/4I5rGMrHsEyA1C4B4LFy486aqrrvqjtfY+tPDZfL7owE8cZ8Ix7qD8vki89plnnpkCv1MH4XL9zJkzz1u+fPneOLdnVVdV/BWilbfH8Kp0ZUUmheMZY82Vp502ZYPRv04J8CR0WkgFREAEREAEREAEREAEREAEREAERKAHCQyapoLGwm+sNVtKBxSF4Zfzzc5DK1cu+QCXpJXmtRe21l7gOM7bS/KhZYWFpua8D+GEIoqBbzzXtfRR/kSU/WM2m30QQtZaCGAnrl69mjO1OGsLWXJtEQA7O3fu3CwEq1PAbZ3v+w+i3J8A+8QgCDh7LkC81PmIxPzhx87zvLkQvfaPI5288Py//5wZnxg5vOqnmZT7zhRO4MtV7NaUb7/xclyhjghIwOqIjvJEQAREQAREQAREQAREoN8SUMdEQAT6A4HaqVNftKF7nDX2sdL+RGG0f8pxf13Ibf3D2lXLxtR3sOQPgooDUWQyxBSbtAFB5QsQWw6PjP8uiFUPI50zsSLXsU0Ix4IK8l3UOQDx01Op1G0bN2586Nprr/0FxJVJCxYs2GfevHncVL61TYopt9wyP7tixYpKhLPl+WhnwDkwsBwH+FZwXPQZLxmI5b5hSN9v8eLFZ11zzTXzjjjiiH8j/1ZwfQ9Eq/0QbnWAVbR4cV3HVFVmX7LWnoIyU1DgAVjscMzXw94XR9p5Qb6zbvXSMwu5hj861l5qomjvHYpas9614SmnTZz4wg7pirRLQAJWu2iUIQIiIAIiIAIiMOgJaIAiIAIiIAIi0AMERo8f/y/fBJONtXdB8GidwQMRyoZBdBLS1owYVnnV6tVLj4Rw5JUf8rDDDjvIcZw9knTXdVdVVFT8Yvbs2c+effasu5H+IvIz0FW2uI7jw9+KNluPg3wDkQUaSfTqYrF4LuovgSD238rKyqVXXXXVWVdfffWxa1Ysrc03bfttrmnko9UVXmOuYcszrzpw36t+v2bVWSuXLj1+7dplR6xevaiG/YPY40KAwWHYcv8w9of9Yv9Wrlw88hb0d+3KlSf9bt3KD77qoP2uqanKbOS4RlRnN3BcN69ZOWX5DTccB9Fq2r///e8VOBfPgdnVEPw+hLZe1cKrdXDIC2CbPM+x1ZVZM7KmCgJWpjBjxoy/nnPOOcvB/+vpdNq0/ENRe1SZUBZnoY/pVUvr37Ru9fJ1xjjXhUFwPI5t40y8oCLP25/90H3b6XWT70eSXBcJSMDqIigVEwEREAERaJuAUkVABERABERABERABIwZN27KP59fv/HkMCyeCR6cuQNvu4OAYcIwmJrx0nflm7Zcs3r16oMgorSKGggPQ8lSYcvbtm1baz4EqVexjciYEdZ1H89WVLwRdb5gjHkEloMoAu9lR3EGlkVKLepdBbtt49bGFVu3Nc70/eCg5ua8MdbsaYw5sxj6V6Uzzq2eTd1Xld3n8VzTlgdrqjOXrl25bNLNy5e/Cn3d++b6+uHwM6aP/mFsFkJV9uab4+PuvfL661+9duWNk4ZVpX/W3LjlweqKvR4NndR91gluCYLwV1DupqBONpfLR2EUpYyxJ4ZRWJ/Jen/wXOfKKApHQ9iLRT5T8g+iFGNN4PcoGH2sosK8pWZY1fOZNJpgjrHZtWvrY2ExiqIXWsrjcBFtRDqdbt1IH/mWImB1VeaGdLbyLsRPQ5txKy+/RC+igxMiJ33q+PHjn305XaGuEJCA1RVKKiMCvUtArYuACIiACIiACIiACIiACAwCAnPmzMnVjj9zaWiDY4Iw/Kbj2AaII/HIIGiYQqFQaa1zhmv8B9euWr7wplVLjoJQ41VWVj6KcpvjgttfToE4cv6iRYtqVq9c+nnUPXB7sjEQs554Cf9mzpx5aSaTeRNEklNhX0X+A2iDx+PT7hDd7lAX4lmYQhknX/TN5q1NpqEptz0Tr8yHCJQqFgvVTU1Ne1ljXwv7pOu5N9qM+6QTFR+PhlXcm/XM7/74+5tu+P1Nq367ZtWSL954441v4NI8NLHL7pZb5npr1ix7Hcd605rlC3GcG4NC4x8jv+JeJ/IfT1dlHne99I2Odc51rH1tc3PznoVCoToMI5f9b+mAj/FzdhNEpWi/MAzdMIoqaqorTEUm41sUQj5eDZdfbkPgft/3L4DQdzJYv2HWrFm/POSQxhcgeK1FXuyiMBxpipkrFy5cyP2uPoRjxulsB/boOeecU+AsrJtWLTtm7erl19jQ3uNaOw7ttop9EL1wPsxGY+3XUoHzprHjJ62ura2Fghg3pZduEHC6UbYfF1XXREAEREAEREAEREAEREAEREAERKB/EKirO+O/deMnf8W49s2RiVZY6zQmPYOwQkGpxloz3Tje3/x842UjK73Di8XiXyFOxcUgqmQR/g7Embuac4ULi0WfU4IipJlisXDrueeeW2TBqVOnFmbPnv0XiC9fh6B1FNLGoO73UO9ma+02GJJ2dEiLCsViABELworNIx7ADI0lUZf9i2crFYtFbhg/DG2+Ol8onNjU3DSlUCjOcR3v2zVV2Qc3bXj+p2uXLTuC9XbWVq++4SA/d8z3KtLZf3iu+50wjGY055onFYv+O3jcKAp5/Lg/YRiaKIriQyX9hQ/RyvpRxCJhPgjDZhTYXggBOKeqMmOymRQ32l8XRdElqPPumTNnvhXsfgIR6h5wRBvGHHPMuUW/GNwEznF9lLXGMXWZTOpepM3m8Q3+Ib0BwtTtq5YtO+7Qg/b/BQr/DQLZVOTXwFBiu8NxNiF+fa5ojhpbN3HuadrvajuYnXyVgLWT4FRNBERABERABERABERABERABAYkAXW6zwiMHj3hP3+76/5JjglOhMhxDwSNWCxiByCCUHFJQ6T5WLqy+u8jh1e9w5hoE/LyyCsivYDyh0LA2mfT1sZo05bGjblcIYpywSqUadPNmDHjDogyX5hx0EG1e42saRxeXWHSKc84jjWu4xiILAHahihl3Fy+aBpzzRdC8PlxFJm7oyh8EsffYizKui7qOAiihvJkHXsAABAASURBVHnFP3QtiIrFgvWL/ocrhmVXLFlS/46FCxceUWb733jjjfskdsMNN+xfln/E1VdffYxr0tc1Njd/asvWbalC0TcROmPK/llr4/5ARIJvI2PNRpR70kT2dmPMD7Y2NN62cUtDetPWpspNW5oqtmxr8sMwIj+2timMonDYsMpN6XS6btasWReB012o16bL+dEtXipVSDKjKLLDqir2q8imAtd1DM3znOf3GjnssxWV6T+FUfiBMIoclIurOOCMcAhytwUmOG5M3cT3TZo06ek4Uy+7RMDZpdqqLAIiIAIiIAIiIAIiIAJDkICGLAIiIAJdJTB37tzw9LrJ9z/97AvvDHz/VIgbq62x3HcpbgJx09TU5LmO8wYIJVWO0zorKoW8NIzlXAhNIzdvayw0huGqRYsWXQ4x6Pgrr7yS+1gxfwdb27T1q9ZE+3mea7iEbmRN1UYv5Uw01q6x1sZlXde1TU3FA+vGT/702HET354tmrc6kXccRIJTIj+cEQbhd0IT3WAde59j7X9QawP60oDKvrWIIUDX3Jx7fSaV/iuOdR/Em1bzPO/ufD5/Z2KFQuHu0nxr7b1o768vbtxy3LbGnNna0Gw2bWkw2xpyEcSnPPKfc6yD46KcNdeFUXBJEBSn+pF5lx/6xwXGe9vY8RNPWr9hyy+LfnhEBKEpiqgbRc0Qwi5oyvujTBQ9gJ7uAUubyBw6rCL1Ffa51CLUu+qqq/aaP3/+SWA6r1gs3vbC+g1kH7WWiyKTSXnuHsOrI7AMa6oqjkC9EzAmNymDsQGvxekJlhnXOTl00u+pq5vyCMbxcjtJYfk7RQDX5k7VUyUREAEREAEREAER2BUCqisCIiACIiACQ4oAl/3VTTzjT2PqJo6zTnRWGJo1ED22QuCIOUAQMVCx0iOhYlVmM561xofF4oe11kehAH4ml8u9GfU+ns1m74BItO7qq6/+xoIFC06lCMP9mOrr612kjwkhuqCOQR2GfjJ16tnLIc58CPEXmR6iA/CPgcVu1OTJm0ePH/+v0XUT/zR6/MTFY8dP+mJt3aQzx9ROfFtTIXzb1obcHxoam6OGplyYyxfRfBSyIvsNgctUpD0PbVYn5vv+AbBDSuyAJI8+6maDICjdw8pAcAoLvm+2NDRv3bat+WNbGnNvHDNu4tFjaydOHVs3+Utjx025rg79Gz/+zEfHjRu3CW0YCHGHog/7MAwuaCK6CWx+/d73vvfPSP8UBh8vD8QxjeO454FPmpzAbB8Ige++5pprLkG5m6uqqv7oOM6H8/n8//lB6DQ2cyJcFIIXm44N5aCFmVhHQThOQ37kOC5neS2D4DZl7LjJk2prJ95Rq32uYj49+RKD78kG1ZYIiIAIiEBfEdBxREAEREAEREAEREAEBhoBCh6jayetqB0/sTa0/hgIIasiE+U9z42QZ6xjU5VQg/bZc7hXVVlR8DznKYxxG4QaD37sgiAwELIMRJmjEb4Igs3vrbX3V1ZWfqNYLI6maBQXxAvazxnHWYkglyxyWV0Tw0hHsjOM4c6soaHhbD8M35svBsNy+WLFtqacC4HHRxuxwINjm2w2nXJdJxaLOmsP+agapeC3OsdxImMh7UWRxbj2zhWLn4IIlW8t0E4AZYejbrxpOvuBYv996KGHIvgmW23uN8bEe4ExL4zCmjAsToRYdQnqPJZOp38Hfp8Pw/CofD7P46L4dlf0Q7N1W9NWqGoPQRAsuO7288NctoU0jN1pxEBu8KPglLF1EyedXjv+JubLeoeABKze4apWBwoB9VMEREAEREAEREAEREAEREAEdhOBsWOn/GXv/V6YHJrorRBMPgthZLXrOLe7rnOHH4S/hSY0dfjw7Ano3okQpb6M/HshvORct3XlGmccGYgvFKcORN7nIbgsjfj0PFRqcX7jS5vXz58/f7+KioqLIbi8iukoy7r/ZLgzQ9mZEHniYugDDhH9oTlXuDAIo9VRGG1A3gboTpsqMun/om+3dWaplPdkNpMyGJ+prMjQHkW/fo7jbDH4h7DBcY5dvHjxNEQ7dCj3PMpDaDJkwBlZ733Na17z5nnz5lU+91xzxg+CAvqa37y1qWHj5oaM70dXos6nUWcYucGP20ca6zLchH7cBd6fac4X3uFlwpP9QnhiGPhfNZFZhvPzpygyV/p+8cPFsHDMtqbC9Lq6Sf8w+tfrBJxdPYLqi4AIiIAIiIAIiIAIiIAIiIAIiIAI7ByBY445tzhu3JSHa8dN/MHo2gl1p9dOOOn0sRNOHFs38YNjx01cXlt7xjMzZsx4aNasWZek0+lTgiCYCvshRKKHILRshlHsoRjFGVnwjRdPP2rpThhGVUE6fV02m12NsheEYWhbslA2Wp2E2/MhIr3GWnsIhR6WQfiv27ZtOxP9+ZnnmG9bx6attXtZa/YaMbzmtrPPPvuUadOmndyeeZ43aq8RNb8fVlVhhlVXmKqKTKEym/4RxvgxHOPLyOdhKCal0Nejkdba3zij7AVM/olyj1q7vRjK72+tXVpTU7MURW+CcFXT0JTLFH2/OoTyhLIODFkm5gYmBrbZGPMPcL0UdScccMABx2N8l82ZM+fR006bsmHshAl3jRk3+RtjxnGW1YRTcF7OGTtu8m/Gjz/zX1OnTm3d8B1tyPUiAQlYvQhXTYuACIiACIiACIiACIiACIhACQEFRWCXCEAsaYCwsmLmzJmfhkD0Rog1Z0J0+RX8f0PIaYaoxSV8NgojLzmQ41jrOvZo3/ffCotVHog0Eer9BfFbk3Lt+RB79kb78RI9lslkMn88//zz4/2nxo6f8hdjzTbkUwwzQbFw8D333NN6bJYvt7333jsVhP6xSR30pWHsuEk/Z7l8Pv+7VGr7ykIcl8LSYdddd12HugWZoOzXHcfJsQ2ELcZ2CMb2HvhvsNakmU6z+IdyaRg0vXQT+vAwyv8UZaeA31vB9bMQ0n4/atQo7jnGKrJ+RMDpR31RV0RABERABERABERABESgEwLKFgEREAERSAhQbMlms+dDhDkB4s/JEGL4lL21fhDyaYFJMVuZTVuINvGm6y0znO6ClnPGnDlzOPMoKdeeT2GIwlicXywWT124cOH+jKxdu3Z/E70sEEXWOk888UQskjG/bXuSySV7W0XpdauWHstE9O10tM+gQf8oir2Q7GcVJ7bz8uSTT64OguDbEPD49MK4FOr7NERi3YOTr6w1z1hr10C4ugh2DLidBEHuk7Nnz74FQljrGFFHrh8SiE9kP+yXuiQCIiACIiACItBbBNSuCIiACIiACIjAoCFA4QUCzIZZs2bdDeMyw3FBFIxxXGdDMkjXdZzhwypMJp1qhrr0U4heM2bOnPlckt+RD4HnnxB91idlIPq8HULTjQsWLLh406ZN387lizX5om/8IDS+H+SampreDoHreBrKHLNo0aIjEX4bLE579tnU0UEQxk9CZJthGFXmC8F3Fy5cPC+dTl/s+z6TaQzcO3fu3Fh4Y0J7hjI+xvMN9PN8x7GPQ6xj3Rz8lOe6JptJNQ4fVtmUSqXPPOCAAyZC+PvOWWed9TC5kV977Sq9fxGQgNW/zod6IwIiMEAIqJsiIAIiIAIiIAIiIAIi0B8JUJA544z33RH6wQ8g4ERJH11EaqorKkbUVE4dVpn+9do1K36wZuXS81cvu+GEm5YtO2DlypUj/1xfX4Hy0Ljw2uLQXgGi0kLXdWMhKQxDbpZ+HMSmrwZBMHtbY3N667Yms2lro9m4peGUqqqq2yGQ3VFRUXFHKpX6SxRFd6DuXxhnOgSx25vz/uiW5uk5nuee4nnOh3GcvZgAIYqzr/6JLtczXmpoz65YsaJyJfrLfq9eveyENcuXXnDTqhU/Hjm8atqew6uzI4ZVOiNrqoLh1RUB0szwYVWVULKuxlju1PLAUpoDKywBa2Cdr8HUW41FBERABERABERABERABERABESglwhEbuaHfhDO8zyvVcSC+ENhaB/4p5gwvBDC0o8zFRU3ZaqzD7s2+MuWyvQ1q1cu/ca61cs+snbVsjHrVt74f7fcsmTEXnvt9eNiEPwa5aMWcckvFos5tBP3nmlouAhxK5vL5QytubnZQJDiflgjgiBIM850Wj5f4JLG1n5ZSGbDqrKR520XydDuZtT9+PTp0zetXbt2j2XLrn/rmpXLJqxbufz8dauXf8ezQb1r/DvTVZmHM17qJsdzfhia8AL04d1hFB3oOGzeDoefwfgx1KA+MO4n487qZXcQ6JFjSsDqEYxqRAREQAREQAREQAREQAREQAREQAR6i0D3262trc1bN/3JQrHweYg4/0qn09wUPW4IAhG0nogzqbxCoVDZ1NxcAw3pda7rTEh53pejyPzcWltvXe8mv5C+M+NFd+wzctibsunUVohCW9AImogq8YJqJt6vynVdx3VdC4uP4zhOuz4rNDTlYjHMtPxzHWuHD6u0I2qq/OHVFS/ts9fwr9zyuzX3Qqj6W2U6u9px7FXGMT9D+59zHKcO/TuiOZerYf8hnLnoSzwmNod8gzEb13WehNL25bxvPzR+/Pgm5skGLgEJWAP33KnnIiACIiACIiACIiACIiACXSWgciIwBAlQxKobP+X7phCOhpB1YRAGN1dUVDyeSqU2QuTxXdeNRSaIQbH4E8T7WPlxGKLQMMT3hwD0mkKheDTKHF9ZkR4OcamSQhPMVFdWmKrKbNFznfsgIP06CIJ5vu9fhfAtqH9rW4a8ZSyXy+f/n4nsveiDn5waqGEWbXnpdOoIa+zpuVyeT048wg/8/dBWFYyzugx9tEMdLO4/2qDvp1LpDRXZ7KNhFK4q+sULjGtPHzNu0rcnTpy4LTmG/IFLwBm4XVfPRUAEREAEREAEREAE+pKAjiUCIiACIjAwCbxnwoSnxtRO/FFF1YjabU2FN+f9xnf7fnCWHwQXhWFwo4nMfyorK002mzUQtygGvWKgFIxoEL5SKc/10inPDK+pMlXZ9LVV1cNOnD59+kdnzJhxPtqYdeCBB55+0EEHvactS6fTZ7DctGkzPvLcixtOCPzgUtSJxajkoDwOLYknPo4d9w8inBk2bFgURubRKApvCKPoU8aEZ+ebC6PWb9z6f9nK+yeNrZv009NPH/9oUlf+wCcgAWvgn0ONQAREQAREYOAQUE9FQAREQAREQAREYLcQsNZG3MCcS+nq6qbeXzdh8g1j6yZ+20lVzrKF4LjGXOMRhXz+9KJfPA/K0DeymewvU6nUMtd174Jw9KzrOEFFRZZL84qO6zzmeakFhXxT3ZbG/EfYJtoPaVOnTg14nPaM+SxHmzNnTi5y03ObC4V3ep43D8d6wHHcXEVFhfFcp+g49hmk3ZnKpJZmMulfRGH49UIQnNuYy52ytXHra4yTP8F6W2ePqZ3wo9G1k66vmzTpH2i/MGrUXN9ivLsFtA7aawQkYPUaWjUsAiLQOwTUqgiIgAiIgAiIgAiIgAjKjB9dAAAQAElEQVSIQE8QoMgzevToxtFTpqyvrZ38+Oi6iTePrZs0b8y4iRePes+Yj7jpyrP8qLmuGDonF6PgmFxT87GFoPiOfNG8+7TRteeMHX/maghGDbvSl9ra2nxt7YS/nja67iM4zhjj2rfnmgrHBr59ezF0T/G3NY97+pn1Z5/6ntrzx4yb9FWU/VVd3cQ/sb+1tVNfHD16VuOuHF91Bw4BCVgD51z1XE/VkgiIgAiIgAiIgAiIgAiIgAiIgAh0QmDUqFE5ikTjxo17oq5u8v1jxk++k/6ECROeovjVSfXuZkd1dXXPjx497p9jxo+/E/YAj1s7deqLnKnV3cZUvoXAIPIkYA2ik6mhiIAIiIAIiIAIiIAIiIAIiIAI9CwBtSYCItA/CEjA6h/nQb0QAREQAREQAREQAREQgcFKQOMSAREQAREQgV0mIAFrlxGqAREQAREQAREQARHobQJqXwREQAREQAREQASGNgEJWEP7/Gv0IiACIjB0CGikIiACIiACIiACIiACIiACA5aABKwBe+rUcRHoewI6ogiIgAiIgAiIgAiIgAiIgAiIgAjsDgISsPqWuo4mAiIgAiIgAiIgAiIgAiIgAiIgAiIw+AlohD1MQAJWDwNVcyIgAiIgAiIgAiIgAiIgAiIgAj1BQG2IgAiIwMsEJGC9zEIhERABERABERABERABERhcBDQaERABERABERgkBCRgDZITqWGIgAiIgAiIgAj0DgG1KgIiIAIiIAIiIAIisPsJSMDa/edAPRABERCBwU5A4xMBERABERABERABERABERCBXSIgAWuX8KmyCPQVAR1HBERABERABERABERABERABERABIYugaEjYA3dc6yRi4AIiIAIiIAIiIAIiIAIiIAI9D6Bo3GI40rsEIQHinsjOlra97cgvrscdYoDcfA3wI6BvR32fzCmWfidO2Nej0Kl42E7SJIbyAR4YQzk/qvvIiACIiACIiACIiACIiACIiACPUxgkDb3GoxrYxfseZT5O2wV7AIYhRN4nbqVKPHnEvsEwgPFzUNHS/u+EPHd4d6Hg/4b9jTsQdidsL/BeD6Yth7h98I6c99HgdLxrEW8v7iR6Ej5dchrp6viHKoPTScBa2ied41aBERABERABERABESgdwmodREQgf5HgPe/FA86s33R9TfBamE/hj0Fo5hCQcpFuCNHESKxjsr1t7ykz6V+X/ZxHA5GxlfDPwJW2o/S8F7Iq4c9DDsN1p4rrZOE2yvb1+nsT/k1WN3XnRiIx+MbeCD2W30WAREQAREQAREY9AQ0QBEQAREQARHoFwR433wkenIZ7MswuZ4l8Ek0twJGxhR3EOzUcYkgZ8iN6bSkCgwaAnwjDprBaCAiIAIiIAJlBBQVAREQAREQAREQARHoiEABmY0l1oRwDlaElTuKK19D4qkwuZ4hMB3NUBiEt4MLENsMuxvG5YNb4TMNXqtLI0Th63D4ckOAgASsIXCSNcRdI6DaIiACIiACIiACIiACIiACg5bANzGyQ0vsMIQ5u4cbsrc32+oclJHbdQL7oQku0YS3g3sJsXfDDoZxA3duKL8/whNh22ClzkPkN7CB5CJ09oUyewxxpsOTa49AXwhY7R1b6SIgAiIgAiIgAiIgAiIgAiIgAiKwOwlwZg8Fk8S4Sfh/0aF/wL4NOxvGWVrwWh33aGqNKLADga5GqEXMR+E9YaXuGUSOh/0R1gBLHGfGccngW5GwBVbqTkLk/2ADxW1CRyneldoHkSbXCQFeNJ0UUbYIiIAIiIAIiIAIiIAIiIAIiEDfENBR+hmB69CfZ2GljjO2SuMKd58ABae29q/irLdHO2juceSVPyGRugbrcYknsuUGKwGe6ME6No1LBERABERABERABERgKBLQmEVABESgZwk0lzXHPbPKknY6Ogw1Z8O4DO4m+DfAvg/jEkZ43XZHocb3YGxnDfzvwM6A8el98HrEUXzisr7EXrsTrY5uow4539hGennS5eUJiJ8Aq4R11bH8d1F4CYzLSLmvWWdPmETRVpdFaBaMrLkP118QXg67BPYGWGfujSiQ8KN/EOLl7gAkMC+x1yFe6t6GyA9hPM+/gP9eWBVs0DoJWIP21GpgIiACIiACIrDzBFRTBERABERABEQgJjASrxQS4LW6f7eGdj7Adrn/09No4grY+2HvgU2BfQbGzcsfgP8+WGfCCmcenYlyrHMf/M/C2A5nOH0e4ethj8Ao2OwBf2ddBhUXwLi88n74iXH2E6LdchSMyitQuCtdNlien8Q5Q+sORP4EuxR2FoztcZkhgh2645D7V9htsM/BJsHY/9/B57JFLlFEsF1HkYzH5EywK1GKrMfBZ7vj4X8B9k/YQ7DTYO25PyAj4Uf/K4iXO14HzEuMYhvLUNBi/XsQ+RSM5/k8+PWwv8F4HcEbfE4C1uA7pxqRCIhA/yCgXoiACIiACIiACIiACAxsAtxE/FYMYQSs1HEvptJ4d8MHogIFlAvgD4e1596MjKtg58O4WTm8VziKVx9DKpc6djRri4IZBRsKK/ugfHcdj0ORbUZZRYpIHypL6yzKsZxYVoj7jC0uS+soyvqnoAAFpGvhd2UT9Akox5lSx8LneOC1OsY5K4szwKpbU3cM8FytRNKnYeWiJpJaHXUWzsLijDoKia0ZPRDg/mAcw6h22uLMLnJkX9spMnCTCXbg9l49H+QENDwREAEREAEREAEREAEREAER6FUCXHLFjcQTowDAjdspAjyIIzMOr9VxudivW2M7F+Dm5eXtsiXOICp/Eh3v2X+ETC5Xg/cKx5lXXEb2igwkBLByty8S5sG66yjEcOkehZ6kLje+ZzrFpyStK/4hKFQuEuWRxvHD6xVHEfLqLrTM/c247LKtohcjsS3hiIISBcQNyC91ZHVRacIuhl+D+jfDKmAdub2RySWk8AaS67yvfDN0XkolREAEREAEREAEREAEREAEREAERGDwEfgWhkQhJjEu/+Ksp2lI5/5U8GLHfa++itB0mA/bWcdZV+VLvLgcjvsbcdYMZ0pRlNpWcgDet1M84b5LJclx8Ot45YwmYxCAo5jEGUKc5cUlf0cijWOC1+q4bI5P7mtN6CTAvv0EZUqPwxlP3AurXLRBsU5dW/txFVErB+stR4Zc/sf278LLJ2E8F0/CL3ecycbypemctcYZaKVpXP7JJYecFTUVGZyV9Vv4pY57klGwK03b2TD5J2O4F418HMY+cUkkgjs47o9VLhLuUGAgRspPykAcg/osAiIgAiIgAiIgAiIgAiIgArtMQA2IQDsEbkF6LewbsFJhCdFuOc72urCsxn8R54bm3KOKwtgWxDl7hhuLI9jqKIJ8pDW2PcDN2V+/Pdj6yllSnJH1P6RwBtbD8LmPVrk4xGWJyOrUcTYPZ/3sX1JyPcJs8wX4O+PaErAovJX3cWfa7qgORTLOPqN4x/3HKMpx76ryc8p9wsq1Eu6xtQmNkyk8E+KFyym5PxWCseMY5sahl184C4vHeDll10I8Pjf8p2j2UzTF2XzcA4sCLKKtLoVQDWxQufKTMqgGp8GIgAiIgAiIgAiIgAj0KQEdTAREQAQGI4F3YVC/h3EmE2dJIbhTjsLIfmU1uSk6Z3eVJRsuGyxfUse9pjgLx7T84+bjLcFWj6JGa6QlwH2v7mwJ02O7zyBAcQVeu456wVLkci8weK2OwhlnALUmdDNAIa+8CoUZCkzl6T0ZX4TGKAJyuSKCsaMIx43P40jLSxp+ORvus8WnLVLQ40bt3AeN+3+h6A6Os7LKBTHuZbZDoV2IUEw9F/VLx0DRk/1BcqvjuaOI1ZowGAIc1GAYh8YgAiIgAiIgAoOEgIYhAiIgAiIgAiLQhwRW41jc3DwxLtXjHldc1oes2FHMoHDE5XgUbtraByku2MkLNwnnsr7SYm2JIMznbJ41DJQYlxcmy8K4p9MRJXkM3o4XzuiC9wr3JaRwphf3UWI73Py8fL8tFNnB/QAxzvSBFzvOOpqIUCkbRLvtNrdRg9oEGbeR1SNJfLohZ7+1NeauLINkPc6Q4ywsPs2RG8Kzz69C78iVohKfJEjhsfypkSyHYrvsmtEClypS7ENwB/fsDrFBGukpkIMUj4YlAiIwIAmo0yIgAiIgAiIgAiIgAiLQNQJ8Utz3UTQxLhP8MOJ8yh33L+LyOYoXSIrdq/F6GYyzdOB1y72pjdLlS79Ki3CWVGmcm3cnAhiFrHLB5/HSwmVhik4cK/euojhWlv2KKPe3+kRZKvWDw5BWygPRbruNbdTgWHaGaRtNtZnEMbclnLFwW4IQ09syilPvRsbPYNw/i4LhWoR/CeN+ZGSW7FOFpB51iYDWVqPdGUNb9QdEGi/AAdFRdbJvCehoIiACIiACIiACIiACIiACIjDECTyA8XN/IW76jWCrewtC3AQcXrccN1Yvr8DlX+VpSZx7TSVh+lwSRqGHYW7oXn4/39OzcDjzjMcqNc4woohVmtbdcFv9pDhXuml+d9vsi/JcAnoPDvQ7GPcQK19aieSB6QZKr8sv+IHSb/VTBERABERABERABERABERABERABHqbAJfNcWP08uOcXpLQ1SAFqPKybL88LYl3NNOpLXGpo7aSNnvC5yyjXWnnOVT+D6zUcdbSvqUJnYTHIn82jPXg9brjvl2cjUfxsvxgXILIGW7cXP0zyORSP3hyPU1AAlZPE1V7IiACIiACIiACIiACIiAC3SSg4iLQrwmUz8BiZ7n3UTIbivGuWPmMKtbpaFN4bhjOMolxk3MuI2OcS+LKBasDmNGDRgGN+4GV79PFjdDftovH+XNZfWoTHy1L6yhKoegKFHgRtgz2QRhnpcHrFfd5tFo6ZrLhxumnIJ3CG5ecsg/cN6yjWXUoLrezBHiR7Gxd1RMBERABERABERABEegvBNQPERABERCB3iLQ1lIxChjdPd4jbVTghuptJMdJ5U8szCGVwhU8wycJlgtYFNWY15Zxw/e3I4PHa2smGLJe4a5CCvcD48bhPDaiseNeVd+LQzv/cmMbVWch7RBYZ24fFOCTIeEZzsDihurfRoSzpOD1uOO+V9y8vrRhLiMchwSKe0Ni/ymMdbc7CVi7/RSoAyIgAiIgAv2FgPohAiIgAiIgAiIgAmUEuFSP+x2VJRvOpkpmQ5XntRf/PTLKxY53Iq0tR5GpfJkiNz/f1lKYy9bKZ/qcjLz9YW2585D4N9ijMD5JkRuOc2yItumeQirrwDMv4OVaWKnjsd5RmtDN8G1tlGd/2K82slqTWIYbqJdrGRQH+YTA1oI9GOCx+NTH0iY566s0noQpENYkkRaf9VuC8naFgEDuCj3VFQERKCeguAiIgAiIgAiIgAiIgAgMFgIUI76MwdTCyt3PyxO6EKfoRSstOh2Rtpa+vR/pe8JKHUWkRDTj7Kvyvbk4M+oDpRVawkznnlEUf9gmnzB4Uktee95WZDTAEscZRErFEwAACWhJREFUV8nsL6ZRYFuCQEdLIJHdruPSPy4Z5DhKC81A5Fswtg9vB8dxkAtnXJVmkMlnkVDeFpJ6xJEbZ2GVNsaZX6XxJMxN7svzuPl7ki9/FwhIwNoFeL1TVa2KgAiIgAiIgAiIgAiIgAiIgAj0EQGKOeNxrMS4VOzjiHND7gfhfwNWLjBxts/VSO+u24wK3DcJXqvj8dkWxTLen2eQ82bYd2CljsIXl8mVpl2KCGdlwWt1FNz45MRqpFB4ocD0C4SPhJW6eYh0ZxnkQyj/Y1ip455b5WJSaX5nYe6vxaf6lZYjgy8h4RYYZ3lxWeShCL8Vdj3s/8EoZMFrdSsR+gustxxnzZVznoaDce8rMqZRGCQfLoNE1g6OSx53SHg5olB3CPDi6E55lRUBERABERABERABERABERABERCB/kFg13vBjbeXo5nEliLMmU2c6dPWcjyKPtzEHMV2ylEcowBWWpki0L+R8E/YYzAu9StfskYhjZu4I7vVUVgpnwlGsW0FSvAYXC5Ifw7ipe5hRCgGweuW47HyZTUo2lAkK0vuUpTjqUNJjhneDu4ExChiUTijkHg34hQZ4e3gOEvsYzuk9HyEM7vIsbTloxD5F+x+2AMwnr8L4LflJGC1RWUn0iRg7QQ0VREBERABERABERABERCBwUJA4xABEegyAYoU3JfqD12u8cqC3Ax9JpI5owpe7HhfzicOvgGxg2AUoeDFjuIJRSLOmIoTyl643I4zmUqT+XREim+HI5HiCWcIIRi7/+H1DBiX3cHrlvsvSnM2F7xWx5ljX22NdT/ApYQU8CjaldcmF27MziV5DJfnsz/HIfFZWG86ipafwAG4Fxi8VkeRkbPl3oQUzsCCZ17Cy+2wUsdzUBpXeCcJtHUR7GRTqiYCIiACIiACIiACQ5KABi0CIiACIjAwCFCI6GpPKfBwyd/TqMBlbufAfz2MT5+D16bjjKg2M8oS70Scm7ffAb90XylEd3AUZuYi5dMwzlaC9wpHQYyzui5BTqkohugOrhkxCit8EiFnYCG6gyufWbVDZkuE/NgX9qslKfZm45ViDrydcuwP9+SiGPckWqBoB69d9zxyuMTzNfA5OwveK1xXxpNU6sp545gp/FHEJIekbuKzDc4W44wy7g2WpNPnDLVSEZFpvL7od2TtnfO26nSnbFv1B0SaBKwBcZrUSREQAREY7AQ0PhEQAREQAREQARHodQKP4wivg3GmU2fGGVGcDfValD8WdiWsM8dlb6XtfreDCk8g7xQYZ0nxyXu3Iswn/1GQoQDCfawo0HDpIMURZLfrKNZw36jDUIIbznN5IJe1UQzi/lCcIcWZQu9CPmdgwXuFm4KU0r5zVhSSXuEoLnHWE/fUSuxElNpVAYX1L0I77APPETeNZ9+5dI8zrf6KPD59cBR8MvsQfNaB16bjskm2lRgFwzYLIvFTsGQs9N+DeFsCEwVHLh0kY86KY5zLHLm0kuk0ipPcpys5Lv3j0V656EWGzEuM5wjFdnC8LpJ8+hQfdyhQEuHm8ex7Ykcjr71zjayB6SRgDczzpl6LwCsJKEUEREAEREAEREAEREAERKAjAhSCKIhw76LOjLOvGtEYZzixHoKdOgotpe2WLzkrb4DtPoNEihcUZg5BmJu6U0xahzBnTcHrsmtCyTWw98IoplDQ4r5RFEK4zxSPh6w2Hcdb2vf/tFlqeyL7zFlTpUZW23N37ZW82dfPoxn2nWIWN3GnAMW9rij0cZzlghCK7+D4FMXS8fC871CgJLIB4dKx8Pjttc/+rUX5T8Io3J0Kn09T5P5liaDWlWNzZl9p/zirDE3t4Mi0tAxnf+1QoCSyDeHSMbBe0h9kDQ4nAavkPCooAiIgAiIgAiIgAiIgAiIgAiIgAiIw+AlohAOPgASsgXfO1GMREAEREAEREAEREAEREAER2N0EdHwREAER6FMCErD6FLcOJgIiIAIiIAIiIAIiIAIJAfkiIAIiIAIiIAJdJSABq6ukVE4EREAEREAERKD/EVCPREAEREAEREAEREAEhgQBCVhD4jRrkCIgAiLQPgHliIAIiIAIiIAIiIAIiIAIiEB/JyABq7+fIfVvIBBQH0VABERABERABERABERABERABERABHqRQD8RsHpxhGpaBERABERABERABERABERABERABESgnxBQN0Rg5whIwNo5bqolAiIgAiIgAiIgAiIgAiIgAruHgI4qAiIgAkOQgASsIXjSNWQREAEREAEREAERGOoENH4REAEREAEREIGBRUAC1sA6X+qtCIiACIiACPQXAuqHCIiACIiACIiACIiACPQZAQlYfYZaBxIBERCBcgKKi4AIiIAIiIAIiIAIiIAIiIAIdIWABKyuUFKZ/ktAPRMBERABERABERABERABERABERABERj0BJxBP0INUAREQAREQAREQAREQAREQAREQAREwAiBCAxkApqBNZDPnvouAiIgAiIgAiIgAiIgAiLQlwR0LBEQAREQgd1EQALWbgKvw4qACIiACIiACIjA0CSgUYuACIiACIiACIhA9wlIwOo+M9UQAREQAREQgd1LQEcXAREQAREQAREQAREQgSFGQALWEDvhGq4IiMB2AnoVAREQAREQAREQAREQAREQAREYOAQkYA2cc9Xfeqr+iIAIiIAIiIAIiIAIiIAIiIAIiIAIDH4C/WKEErD6xWlQJ0RABERABERABERABERABERABAYvAY1MBERgVwlIwNpVgqovAiIgAiIgAiIgAiIgAiLQ+wR0BBEQAREQgSFNQALWkD79GrwIiIAIiIAIiMBQIqCxioAIiIAIiIAIiMBAJSABa6CeOfVbBERABERgdxDQMUVABERABERABERABERABHYDAQlYuwG6DikCQ5uARi8CIiACIiACIiACIiACIiACIiAC3SMgAat7vPpHafVCBERABERABERABERABERABERABERg8BPQCFsJSMBqRaGACIiACIiACIiACIiACIiACIjAYCOg8YiACAwOAhKwBsd51ChEQAREQAREQAREQAREoLcIqF0REAEREAER2O0EJGDt9lOgDoiACIiACIiACAx+AhqhCIiACIiACIiACIjArhCQgLUr9FRXBERABESg7wjoSCIgAiIgAiIgAiIgAiIgAkOWgASsIXvqNfChSEBjFgEREAEREAEREAEREAEREAEREIGBSOD/AwAA//9cjKJgAAAABklEQVQDANd4vJzmyu19AAAAAElFTkSuQmCC;movable=1;resizable=1;rotatable=1;deletable=1;editable=1;locked=0;connectable=1;" vertex="1" parent="1">
          <mxGeometry x="120" y="310" width="1200" height="730" as="geometry" />
        </mxCell>
      </root>
    </mxGraphModel>
  </diagram>
</mxfile>
